<svg width="266" height="266" viewBox="0 0 266 266" fill="none" xmlns="http://www.w3.org/2000/svg">
<g clip-path="url(#clip0_417_564)">
<path d="M68.1025 69.4219C70.6804 68.9092 73.353 69.1729 75.7812 70.1787C78.2094 71.1846 80.2849 72.8879 81.7451 75.0732C83.1142 77.1222 83.8846 79.5087 83.9756 81.9648L83.9844 82.457C83.9789 85.9799 82.577 89.3566 80.0859 91.8477C77.5946 94.339 74.2176 95.7399 70.6943 95.7451C68.0661 95.745 65.4968 94.967 63.3115 93.5068C61.1262 92.0466 59.4229 89.9712 58.417 87.543C57.4112 85.1147 57.1474 82.4421 57.6602 79.8643C58.1729 77.2863 59.4392 74.9182 61.2979 73.0596C63.1565 71.201 65.5246 69.9347 68.1025 69.4219ZM69.6953 73.1943C68.2009 73.3552 66.7618 73.8743 65.5039 74.7148C63.9674 75.7415 62.7697 77.201 62.0625 78.9082C61.3553 80.6154 61.1708 82.4942 61.5312 84.3066C61.8918 86.119 62.7813 87.7841 64.0879 89.0908C65.3946 90.3975 67.0596 91.2879 68.8721 91.6484C70.6846 92.009 72.5632 91.8234 74.2705 91.1162C75.9778 90.409 77.4372 89.2114 78.4639 87.6748C79.4263 86.2343 79.9683 84.5568 80.0322 82.8301L80.0391 82.4844C80.0409 81.256 79.8002 80.0389 79.332 78.9033C78.8636 77.7674 78.176 76.7345 77.3086 75.8643C76.4412 74.9941 75.4107 74.3031 74.2764 73.8311C73.1419 73.359 71.9251 73.1153 70.6963 73.1133L69.6953 73.1113V73.1943Z" stroke="#426587" stroke-width="2"/>
<mask id="path-2-inside-1_417_564" fill="white">
<path fill-rule="evenodd" clip-rule="evenodd" d="M71.1811 5C71.97 5.00551 72.725 5.32368 73.2797 5.88477C73.8345 6.44598 74.1437 7.205 74.14 7.99414L74.0541 23.4619L83.1137 16.8447C83.4271 16.595 83.788 16.4105 84.1742 16.3037C84.5604 16.1969 84.9646 16.1694 85.3617 16.2227C85.7589 16.2759 86.1413 16.4095 86.4857 16.6143C86.8301 16.819 87.1301 17.0907 87.3666 17.4141C87.6032 17.7375 87.7719 18.1058 87.8627 18.4961C87.9534 18.8863 87.9635 19.291 87.8939 19.6855C87.8244 20.0802 87.6762 20.4572 87.4574 20.793C87.2387 21.1286 86.9543 21.4166 86.6215 21.6396L74.0131 30.8467L73.8656 57.6865C73.8638 58.0768 73.7852 58.4633 73.6342 58.8232C73.4831 59.183 73.2629 59.5095 72.9857 59.7842C72.7084 60.059 72.3794 60.2771 72.018 60.4248C71.6566 60.5725 71.2696 60.6473 70.8793 60.6455C70.4889 60.6437 70.1026 60.5651 69.7426 60.4141C69.3826 60.263 69.0555 60.042 68.7807 59.7646C68.5061 59.4875 68.2887 59.159 68.141 58.7979C67.9933 58.4366 67.9186 58.0495 67.9203 57.6592L68.0648 31.2227L55.3637 22.0303C54.7928 21.5448 54.426 20.8613 54.3373 20.1172C54.2486 19.3731 54.4444 18.6227 54.8852 18.0166C55.3259 17.4107 55.9791 16.9936 56.7143 16.8486C57.4495 16.7037 58.2122 16.8419 58.85 17.2354L68.1059 23.9189L68.1937 7.95996C68.2114 7.17592 68.5331 6.42893 69.0902 5.87695C69.6473 5.32508 70.397 5.01045 71.1811 5Z"/>
</mask>
<path fill-rule="evenodd" clip-rule="evenodd" d="M71.1811 5C71.97 5.00551 72.725 5.32368 73.2797 5.88477C73.8345 6.44598 74.1437 7.205 74.14 7.99414L74.0541 23.4619L83.1137 16.8447C83.4271 16.595 83.788 16.4105 84.1742 16.3037C84.5604 16.1969 84.9646 16.1694 85.3617 16.2227C85.7589 16.2759 86.1413 16.4095 86.4857 16.6143C86.8301 16.819 87.1301 17.0907 87.3666 17.4141C87.6032 17.7375 87.7719 18.1058 87.8627 18.4961C87.9534 18.8863 87.9635 19.291 87.8939 19.6855C87.8244 20.0802 87.6762 20.4572 87.4574 20.793C87.2387 21.1286 86.9543 21.4166 86.6215 21.6396L74.0131 30.8467L73.8656 57.6865C73.8638 58.0768 73.7852 58.4633 73.6342 58.8232C73.4831 59.183 73.2629 59.5095 72.9857 59.7842C72.7084 60.059 72.3794 60.2771 72.018 60.4248C71.6566 60.5725 71.2696 60.6473 70.8793 60.6455C70.4889 60.6437 70.1026 60.5651 69.7426 60.4141C69.3826 60.263 69.0555 60.042 68.7807 59.7646C68.5061 59.4875 68.2887 59.159 68.141 58.7979C67.9933 58.4366 67.9186 58.0495 67.9203 57.6592L68.0648 31.2227L55.3637 22.0303C54.7928 21.5448 54.426 20.8613 54.3373 20.1172C54.2486 19.3731 54.4444 18.6227 54.8852 18.0166C55.3259 17.4107 55.9791 16.9936 56.7143 16.8486C57.4495 16.7037 58.2122 16.8419 58.85 17.2354L68.1059 23.9189L68.1937 7.95996C68.2114 7.17592 68.5331 6.42893 69.0902 5.87695C69.6473 5.32508 70.397 5.01045 71.1811 5Z" fill="white"/>
<path d="M71.1811 5L71.195 3.00005L71.1747 2.99991L71.1544 3.00018L71.1811 5ZM73.2797 5.88477L74.702 4.47871L74.7019 4.47864L73.2797 5.88477ZM74.14 7.99414L76.14 8.00525L76.14 8.00338L74.14 7.99414ZM74.0541 23.4619L72.0541 23.4508L72.0321 27.4155L75.2338 25.077L74.0541 23.4619ZM83.1137 16.8447L84.2933 18.4598L84.3272 18.4351L84.3599 18.409L83.1137 16.8447ZM84.1742 16.3037L83.6413 14.376L83.6413 14.376L84.1742 16.3037ZM85.3617 16.2227L85.6276 14.2404L85.6275 14.2404L85.3617 16.2227ZM86.4857 16.6143L87.5078 14.8951L87.5076 14.895L86.4857 16.6143ZM87.3666 17.4141L88.9809 16.2333L88.9808 16.2333L87.3666 17.4141ZM87.8627 18.4961L89.8107 18.0431L89.8107 18.043L87.8627 18.4961ZM87.8939 19.6855L89.8636 20.0328L89.8636 20.0326L87.8939 19.6855ZM87.4574 20.793L89.133 21.8849L89.1331 21.8848L87.4574 20.793ZM86.6215 21.6396L85.5082 19.9781L85.4746 20.0006L85.442 20.0245L86.6215 21.6396ZM74.0131 30.8467L72.8336 29.2315L72.0187 29.8266L72.0131 30.8357L74.0131 30.8467ZM73.8656 57.6865L71.8657 57.6755L71.8656 57.6771L73.8656 57.6865ZM73.6342 58.8232L75.4783 59.5974L75.4784 59.5971L73.6342 58.8232ZM72.9857 59.7842L74.3934 61.2049L74.3935 61.2048L72.9857 59.7842ZM72.018 60.4248L72.7746 62.2761L72.7748 62.2761L72.018 60.4248ZM70.8793 60.6455L70.8885 58.6455H70.8885L70.8793 60.6455ZM69.7426 60.4141L68.9687 62.2583L68.9687 62.2583L69.7426 60.4141ZM68.7807 59.7646L67.3597 61.1721L67.3599 61.1723L68.7807 59.7646ZM68.141 58.7979L66.2897 59.5547L66.2898 59.5549L68.141 58.7979ZM67.9203 57.6592L65.9203 57.6482L65.9203 57.6502L67.9203 57.6592ZM68.0648 31.2227L70.0648 31.2336L70.0704 30.2053L69.2374 29.6025L68.0648 31.2227ZM55.3637 22.0303L54.068 23.5539L54.1277 23.6046L54.1911 23.6505L55.3637 22.0303ZM54.3373 20.1172L52.3514 20.3539L52.3514 20.354L54.3373 20.1172ZM54.8852 18.0166L53.2678 16.8401L53.2676 16.8404L54.8852 18.0166ZM56.7143 16.8486L56.3274 14.8864L56.3273 14.8864L56.7143 16.8486ZM58.85 17.2354L60.0208 15.6139L59.9619 15.5713L59.9 15.5331L58.85 17.2354ZM68.1059 23.9189L66.935 25.5404L70.0844 27.8146L70.1058 23.93L68.1059 23.9189ZM68.1937 7.95996L66.1943 7.91489L66.1939 7.93192L66.1938 7.94895L68.1937 7.95996ZM69.0902 5.87695L67.6827 4.45612L67.6826 4.45624L69.0902 5.87695ZM71.1811 5L71.1671 6.99995C71.4268 7.00176 71.6752 7.10657 71.8574 7.29089L73.2797 5.88477L74.7019 4.47864C73.7747 3.54079 72.5133 3.00925 71.195 3.00005L71.1811 5ZM73.2797 5.88477L71.8574 7.29082C72.0391 7.47464 72.1413 7.72439 72.1401 7.9849L74.14 7.99414L76.14 8.00338C76.1461 6.68562 75.6299 5.41731 74.702 4.47871L73.2797 5.88477ZM74.14 7.99414L72.1401 7.98303L72.0541 23.4508L74.0541 23.4619L76.0541 23.473L76.14 8.00525L74.14 7.99414ZM74.0541 23.4619L75.2338 25.077L84.2933 18.4598L83.1137 16.8447L81.934 15.2297L72.8744 21.8469L74.0541 23.4619ZM83.1137 16.8447L84.3599 18.409C84.464 18.326 84.5826 18.2658 84.7072 18.2314L84.1742 16.3037L83.6413 14.376C82.9933 14.5552 82.3901 14.864 81.8674 15.2805L83.1137 16.8447ZM84.1742 16.3037L84.7071 18.2314C84.8333 18.1965 84.9657 18.1875 85.096 18.2049L85.3617 16.2227L85.6275 14.2404C84.9634 14.1514 84.2876 14.1973 83.6413 14.376L84.1742 16.3037ZM85.3617 16.2227L85.0959 18.2049C85.2241 18.2221 85.3496 18.2656 85.4639 18.3335L86.4857 16.6143L87.5076 14.895C86.933 14.5535 86.2937 14.3297 85.6276 14.2404L85.3617 16.2227ZM86.4857 16.6143L85.4637 18.3334C85.5785 18.4017 85.6764 18.491 85.7524 18.5948L87.3666 17.4141L88.9808 16.2333C88.5838 15.6904 88.0817 15.2363 87.5078 14.8951L86.4857 16.6143ZM87.3666 17.4141L85.7523 18.5948C85.8294 18.7002 85.8849 18.8209 85.9147 18.9492L87.8627 18.4961L89.8107 18.043C89.659 17.3907 89.3769 16.7748 88.9809 16.2333L87.3666 17.4141ZM87.8627 18.4961L85.9147 18.9491C85.9437 19.0738 85.9476 19.2062 85.9243 19.3385L87.8939 19.6855L89.8636 20.0326C89.9794 19.3757 89.9632 18.6989 89.8107 18.0431L87.8627 18.4961ZM87.8939 19.6855L85.9243 19.3383C85.9012 19.4696 85.8522 19.593 85.7818 19.7011L87.4574 20.793L89.1331 21.8848C89.5002 21.3214 89.7476 20.6908 89.8636 20.0328L87.8939 19.6855ZM87.4574 20.793L85.7818 19.701C85.7102 19.8108 85.6172 19.9051 85.5082 19.9781L86.6215 21.6396L87.7348 23.3011C88.2915 22.9281 88.7671 22.4464 89.133 21.8849L87.4574 20.793ZM86.6215 21.6396L85.442 20.0245L72.8336 29.2315L74.0131 30.8467L75.1925 32.4619L87.8009 23.2548L86.6215 21.6396ZM74.0131 30.8467L72.0131 30.8357L71.8657 57.6755L73.8656 57.6865L75.8656 57.6975L76.0131 30.8577L74.0131 30.8467ZM73.8656 57.6865L71.8656 57.6771C71.865 57.8054 71.8392 57.9321 71.79 58.0494L73.6342 58.8232L75.4784 59.5971C75.7312 58.9945 75.8625 58.3482 75.8656 57.696L73.8656 57.6865ZM73.6342 58.8232L71.7901 58.0491C71.7405 58.1671 71.6684 58.2739 71.5779 58.3636L72.9857 59.7842L74.3935 61.2048C74.8574 60.7451 75.2258 60.1989 75.4783 59.5974L73.6342 58.8232ZM72.9857 59.7842L71.5781 58.3635C71.4864 58.4543 71.3783 58.5256 71.2611 58.5735L72.018 60.4248L72.7748 62.2761C73.3804 62.0285 73.9304 61.6637 74.3934 61.2049L72.9857 59.7842ZM72.018 60.4248L71.2613 58.5735C71.1439 58.6214 71.0172 58.6461 70.8885 58.6455L70.8793 60.6455L70.8701 62.6455C71.522 62.6485 72.1694 62.5235 72.7746 62.2761L72.018 60.4248ZM70.8793 60.6455L70.8885 58.6455C70.7604 58.6449 70.6339 58.6191 70.5164 58.5698L69.7426 60.4141L68.9687 62.2583C69.5713 62.5111 70.2174 62.6425 70.8701 62.6455L70.8793 60.6455ZM69.7426 60.4141L70.5165 58.5699C70.3993 58.5207 70.2918 58.4482 70.2014 58.357L68.7807 59.7646L67.3599 61.1723C67.8191 61.6357 68.3658 62.0053 68.9687 62.2583L69.7426 60.4141ZM68.7807 59.7646L70.2017 58.3572C70.1115 58.2662 70.0404 58.1586 69.9922 58.0408L68.141 58.7979L66.2898 59.5549C66.537 60.1593 66.9008 60.7087 67.3597 61.1721L68.7807 59.7646ZM68.141 58.7979L69.9923 58.041C69.9445 57.9241 69.9197 57.7973 69.9203 57.6681L67.9203 57.6592L65.9203 57.6502C65.9174 58.3016 66.0422 58.9491 66.2897 59.5547L68.141 58.7979ZM67.9203 57.6592L69.9203 57.6701L70.0648 31.2336L68.0648 31.2227L66.0649 31.2117L65.9203 57.6482L67.9203 57.6592ZM68.0648 31.2227L69.2374 29.6025L56.5363 20.4101L55.3637 22.0303L54.1911 23.6505L66.8922 32.8428L68.0648 31.2227ZM55.3637 22.0303L56.6593 20.5067C56.4723 20.3477 56.3523 20.1238 56.3232 19.8804L54.3373 20.1172L52.3514 20.354C52.4998 21.5989 53.1132 22.7419 54.068 23.5539L55.3637 22.0303ZM54.3373 20.1172L56.3232 19.8804C56.2943 19.6373 56.3582 19.3915 56.5027 19.1928L54.8852 18.0166L53.2676 16.8404C52.5306 17.8539 52.2029 19.1088 52.3514 20.3539L54.3373 20.1172ZM54.8852 18.0166L56.5025 19.1931C56.6467 18.9948 56.8605 18.8583 57.1012 18.8109L56.7143 16.8486L56.3273 14.8864C55.0978 15.1289 54.0051 15.8265 53.2678 16.8401L54.8852 18.0166ZM56.7143 16.8486L57.1011 18.8109C57.3413 18.7635 57.5909 18.8086 57.8 18.9376L58.85 17.2354L59.9 15.5331C58.8335 14.8753 57.5576 14.6439 56.3274 14.8864L56.7143 16.8486ZM58.85 17.2354L57.6792 18.8568L66.935 25.5404L68.1059 23.9189L69.2767 22.2975L60.0208 15.6139L58.85 17.2354ZM68.1059 23.9189L70.1058 23.93L70.1937 7.97098L68.1937 7.95996L66.1938 7.94895L66.1059 23.9079L68.1059 23.9189ZM68.1937 7.95996L70.1932 8.00503C70.1992 7.7395 70.3084 7.48548 70.4979 7.29767L69.0902 5.87695L67.6826 4.45624C66.7579 5.37238 66.2236 6.61234 66.1943 7.91489L68.1937 7.95996ZM69.0902 5.87695L70.4978 7.29779C70.6873 7.11006 70.9421 7.00336 71.2077 6.99982L71.1811 5L71.1544 3.00018C69.8519 3.01753 68.6073 3.54011 67.6827 4.45612L69.0902 5.87695Z" fill="#426587" mask="url(#path-2-inside-1_417_564)"/>
<mask id="path-4-inside-2_417_564" fill="white">
<path fill-rule="evenodd" clip-rule="evenodd" d="M22.7148 35.5855C23.1036 35.5436 23.4969 35.5787 23.8721 35.689C24.2473 35.7994 24.5971 35.9833 24.9014 36.229C25.2055 36.4748 25.4587 36.7781 25.6455 37.1216C25.8322 37.4651 25.9494 37.8422 25.9902 38.231L27.6699 53.7984L50.8223 67.3384C51.3871 67.6675 51.8279 68.1741 52.0762 68.7788C52.3242 69.3835 52.3661 70.0532 52.1953 70.6841C52.0245 71.3151 51.6503 71.8721 51.1309 72.2691C50.6115 72.666 49.9759 72.8811 49.3223 72.8804C48.7942 72.882 48.2748 72.7398 47.8213 72.4693L24.9736 59.1118L10.7002 65.523C10.3132 65.6989 9.89191 65.7882 9.46679 65.7837C8.78675 65.7828 8.12796 65.5478 7.5996 65.1197C7.07121 64.6915 6.70532 64.0954 6.56347 63.4302C6.42168 62.7652 6.51179 62.0717 6.81933 61.4654C7.12707 60.8589 7.63431 60.3755 8.25488 60.0972L18.6738 55.4283L4.9248 47.3902C4.58763 47.1932 4.29283 46.9316 4.05663 46.6206C3.82036 46.3095 3.64708 45.9545 3.54784 45.5767C3.44869 45.199 3.42466 44.8054 3.47753 44.4185C3.53045 44.0314 3.65943 43.6582 3.85644 43.3208C4.05338 42.9837 4.31504 42.6889 4.62597 42.4527C4.93708 42.2164 5.29206 42.0431 5.66991 41.9439C6.04762 41.8447 6.44121 41.8207 6.82812 41.8736C7.21518 41.9265 7.58843 42.0555 7.92577 42.2525L21.2666 50.0542L20.0781 38.8687C20.0351 38.4799 20.0694 38.086 20.1787 37.7105C20.288 37.3351 20.4701 36.985 20.7148 36.6802C20.9597 36.3753 21.2624 36.1209 21.6055 35.9331C21.9486 35.7454 22.326 35.6274 22.7148 35.5855Z"/>
</mask>
<path fill-rule="evenodd" clip-rule="evenodd" d="M22.7148 35.5855C23.1036 35.5436 23.4969 35.5787 23.8721 35.689C24.2473 35.7994 24.5971 35.9833 24.9014 36.229C25.2055 36.4748 25.4587 36.7781 25.6455 37.1216C25.8322 37.4651 25.9494 37.8422 25.9902 38.231L27.6699 53.7984L50.8223 67.3384C51.3871 67.6675 51.8279 68.1741 52.0762 68.7788C52.3242 69.3835 52.3661 70.0532 52.1953 70.6841C52.0245 71.3151 51.6503 71.8721 51.1309 72.2691C50.6115 72.666 49.9759 72.8811 49.3223 72.8804C48.7942 72.882 48.2748 72.7398 47.8213 72.4693L24.9736 59.1118L10.7002 65.523C10.3132 65.6989 9.89191 65.7882 9.46679 65.7837C8.78675 65.7828 8.12796 65.5478 7.5996 65.1197C7.07121 64.6915 6.70532 64.0954 6.56347 63.4302C6.42168 62.7652 6.51179 62.0717 6.81933 61.4654C7.12707 60.8589 7.63431 60.3755 8.25488 60.0972L18.6738 55.4283L4.9248 47.3902C4.58763 47.1932 4.29283 46.9316 4.05663 46.6206C3.82036 46.3095 3.64708 45.9545 3.54784 45.5767C3.44869 45.199 3.42466 44.8054 3.47753 44.4185C3.53045 44.0314 3.65943 43.6582 3.85644 43.3208C4.05338 42.9837 4.31504 42.6889 4.62597 42.4527C4.93708 42.2164 5.29206 42.0431 5.66991 41.9439C6.04762 41.8447 6.44121 41.8207 6.82812 41.8736C7.21518 41.9265 7.58843 42.0555 7.92577 42.2525L21.2666 50.0542L20.0781 38.8687C20.0351 38.4799 20.0694 38.086 20.1787 37.7105C20.288 37.3351 20.4701 36.985 20.7148 36.6802C20.9597 36.3753 21.2624 36.1209 21.6055 35.9331C21.9486 35.7454 22.326 35.6274 22.7148 35.5855Z" fill="white"/>
<path d="M22.7148 35.5855L22.5008 33.597L22.5005 33.597L22.7148 35.5855ZM23.8721 35.689L24.4364 33.7703L24.4364 33.7703L23.8721 35.689ZM24.9014 36.229L26.1583 34.6733L26.1581 34.6732L24.9014 36.229ZM25.6455 37.1216L27.4027 36.1665L27.4026 36.1664L25.6455 37.1216ZM25.9902 38.231L24.0012 38.4398L24.0018 38.4455L25.9902 38.231ZM27.6699 53.7984L25.6815 54.0129L25.7896 55.0157L26.6603 55.5248L27.6699 53.7984ZM50.8223 67.3384L49.8126 69.0648L49.8154 69.0665L50.8223 67.3384ZM52.0762 68.7788L53.9265 68.0198L53.9264 68.0195L52.0762 68.7788ZM52.1953 70.6841L54.1258 71.2068L54.1258 71.2067L52.1953 70.6841ZM51.1309 72.2691L52.3454 73.8581L52.3454 73.8581L51.1309 72.2691ZM49.3223 72.8804L49.3245 70.8804L49.3162 70.8804L49.3223 72.8804ZM47.8213 72.4693L48.8458 70.7516L48.8383 70.7471L48.8307 70.7427L47.8213 72.4693ZM24.9736 59.1118L25.983 57.3853L25.0938 56.8654L24.1542 57.2874L24.9736 59.1118ZM10.7002 65.523L9.88072 63.6985L9.87238 63.7023L10.7002 65.523ZM9.46679 65.7837L9.48804 63.7838L9.47882 63.7837L9.46961 63.7837L9.46679 65.7837ZM7.5996 65.1197L6.34042 66.6735L6.34046 66.6735L7.5996 65.1197ZM6.56347 63.4302L4.60744 63.8473L4.60745 63.8473L6.56347 63.4302ZM6.81933 61.4654L5.03579 60.5604L5.03563 60.5607L6.81933 61.4654ZM8.25488 60.0972L7.437 58.2721L7.43647 58.2723L8.25488 60.0972ZM18.6738 55.4283L19.4917 57.2534L23.0392 55.6637L19.6832 53.7017L18.6738 55.4283ZM4.9248 47.3902L5.93421 45.6636L5.93353 45.6632L4.9248 47.3902ZM4.05663 46.6206L2.46389 47.8303L2.46404 47.8304L4.05663 46.6206ZM3.54784 45.5767L1.61339 46.0845L1.61344 46.0847L3.54784 45.5767ZM3.47753 44.4185L1.49597 44.1476L1.49595 44.1477L3.47753 44.4185ZM3.85644 43.3208L2.12947 42.3121L2.12938 42.3122L3.85644 43.3208ZM4.62597 42.4527L3.41635 40.8599L3.41618 40.8601L4.62597 42.4527ZM5.66991 41.9439L5.1621 40.0094L5.16189 40.0095L5.66991 41.9439ZM6.82812 41.8736L7.09903 39.892L7.09893 39.892L6.82812 41.8736ZM7.92577 42.2525L8.93541 40.526L8.93438 40.5254L7.92577 42.2525ZM21.2666 50.0542L20.257 51.7807L23.6736 53.7787L23.2554 49.8429L21.2666 50.0542ZM20.0781 38.8687L22.0669 38.6574L22.066 38.6488L20.0781 38.8687ZM20.1787 37.7105L18.2584 37.1514L18.2584 37.1516L20.1787 37.7105ZM20.7148 36.6802L19.1555 35.4279L19.1553 35.4281L20.7148 36.6802ZM21.6055 35.9331L20.6453 34.1787L20.6452 34.1787L21.6055 35.9331ZM22.7148 35.5855L22.9289 37.574C23.0569 37.5602 23.1857 37.5718 23.3077 37.6077L23.8721 35.689L24.4364 33.7703C23.8082 33.5855 23.1503 33.527 22.5008 33.597L22.7148 35.5855ZM23.8721 35.689L23.3077 37.6077C23.4289 37.6434 23.5437 37.7033 23.6446 37.7849L24.9014 36.229L26.1581 34.6732C25.6505 34.2632 25.0657 33.9554 24.4364 33.7703L23.8721 35.689ZM24.9014 36.229L23.6445 37.7847C23.7452 37.8661 23.8279 37.9657 23.8884 38.0768L25.6455 37.1216L27.4026 36.1664C27.0895 35.5904 26.6659 35.0835 26.1583 34.6733L24.9014 36.229ZM25.6455 37.1216L23.8883 38.0767C23.9495 38.1893 23.9878 38.3128 24.0012 38.4398L25.9902 38.231L27.9793 38.0221C27.911 37.3716 27.7149 36.7409 27.4027 36.1665L25.6455 37.1216ZM25.9902 38.231L24.0018 38.4455L25.6815 54.0129L27.6699 53.7984L29.6584 53.5838L27.9787 38.0164L25.9902 38.231ZM27.6699 53.7984L26.6603 55.5248L49.8126 69.0648L50.8223 67.3384L51.8319 65.612L28.6796 52.0719L27.6699 53.7984ZM50.8223 67.3384L49.8154 69.0665C50 69.1741 50.1446 69.34 50.2259 69.5382L52.0762 68.7788L53.9264 68.0195C53.5113 67.0081 52.7742 66.161 51.8291 65.6103L50.8223 67.3384ZM52.0762 68.7788L50.2258 69.5379C50.307 69.7358 50.3207 69.955 50.2648 70.1615L52.1953 70.6841L54.1258 71.2067C54.4115 70.1514 54.3415 69.0313 53.9265 68.0198L52.0762 68.7788ZM52.1953 70.6841L50.2648 70.1615C50.209 70.3675 50.0867 70.5498 49.9163 70.6801L51.1309 72.2691L52.3454 73.8581C53.2138 73.1943 53.8399 72.2628 54.1258 71.2068L52.1953 70.6841ZM51.1309 72.2691L49.9163 70.6801C49.7457 70.8105 49.5376 70.8806 49.3245 70.8804L49.3223 72.8804L49.32 74.8804C50.4143 74.8816 51.4773 74.5215 52.3454 73.8581L51.1309 72.2691ZM49.3223 72.8804L49.3162 70.8804C49.1507 70.8809 48.9876 70.8362 48.8458 70.7516L47.8213 72.4693L46.7967 74.1869C47.562 74.6434 48.4377 74.8831 49.3283 74.8804L49.3223 72.8804ZM47.8213 72.4693L48.8307 70.7427L25.983 57.3853L24.9736 59.1118L23.9642 60.8384L46.8119 74.1959L47.8213 72.4693ZM24.9736 59.1118L24.1542 57.2874L9.88073 63.6986L10.7002 65.523L11.5197 67.3474L25.7931 60.9363L24.9736 59.1118ZM10.7002 65.523L9.87238 63.7023C9.75083 63.7576 9.6193 63.7852 9.48804 63.7838L9.46679 65.7837L9.44554 67.7836C10.1645 67.7912 10.8755 67.6403 11.528 67.3436L10.7002 65.523ZM9.46679 65.7837L9.46961 63.7837C9.24909 63.7834 9.03327 63.7072 8.85875 63.5658L7.5996 65.1197L6.34046 66.6735C7.22264 67.3884 8.3244 67.7821 9.46397 67.7837L9.46679 65.7837ZM7.5996 65.1197L8.85879 63.5658C8.6852 63.4251 8.56574 63.23 8.51949 63.0131L6.56347 63.4302L4.60745 63.8473C4.8449 64.9608 5.45722 65.9578 6.34042 66.6735L7.5996 65.1197ZM6.56347 63.4302L8.5195 63.0131C8.47295 62.7948 8.50267 62.5679 8.60303 62.37L6.81933 61.4654L5.03563 60.5607C4.5209 61.5756 4.37041 62.7356 4.60744 63.8473L6.56347 63.4302ZM6.81933 61.4654L8.60287 62.3703C8.70351 62.172 8.87002 62.0132 9.07328 61.9221L8.25488 60.0972L7.43647 58.2723C6.39861 58.7378 5.55063 59.5457 5.03579 60.5604L6.81933 61.4654ZM8.25488 60.0972L9.07275 61.9223L19.4917 57.2534L18.6738 55.4283L17.8559 53.6031L7.437 58.2721L8.25488 60.0972ZM18.6738 55.4283L19.6832 53.7017L5.93421 45.6636L4.9248 47.3902L3.91539 49.1167L17.6644 57.1548L18.6738 55.4283ZM4.9248 47.3902L5.93353 45.6632C5.82425 45.5994 5.72748 45.5138 5.64923 45.4108L4.05663 46.6206L2.46404 47.8304C2.85818 48.3493 3.35101 48.7871 3.91607 49.1171L4.9248 47.3902ZM4.05663 46.6206L5.64938 45.411C5.57117 45.308 5.51444 45.1912 5.48225 45.0687L3.54784 45.5767L1.61344 46.0847C1.77972 46.7178 2.06955 47.311 2.46389 47.8303L4.05663 46.6206ZM3.54784 45.5767L5.4823 45.0689C5.44962 44.9444 5.44189 44.8154 5.45911 44.6893L3.47753 44.4185L1.49595 44.1477C1.40743 44.7954 1.44776 45.4536 1.61339 46.0845L3.54784 45.5767ZM3.47753 44.4185L5.4591 44.6894C5.47635 44.5632 5.51859 44.4406 5.58349 44.3294L3.85644 43.3208L2.12938 42.3122C1.80026 42.8758 1.58455 43.4996 1.49597 44.1476L3.47753 44.4185ZM3.85644 43.3208L5.58341 44.3296C5.64726 44.2203 5.73278 44.1235 5.83576 44.0453L4.62597 42.4527L3.41618 40.8601C2.89729 41.2542 2.4595 41.7471 2.12947 42.3121L3.85644 43.3208ZM4.62597 42.4527L5.83559 44.0454C5.93857 43.9672 6.05536 43.9105 6.17794 43.8783L5.66991 41.9439L5.16189 40.0095C4.52877 40.1758 3.9356 40.4656 3.41635 40.8599L4.62597 42.4527ZM5.66991 41.9439L6.17773 43.8783C6.30224 43.8457 6.43127 43.8379 6.55731 43.8551L6.82812 41.8736L7.09893 39.892C6.45115 39.8035 5.79301 39.8438 5.1621 40.0094L5.66991 41.9439ZM6.82812 41.8736L6.55721 43.8551C6.68338 43.8724 6.80604 43.9146 6.91717 43.9795L7.92577 42.2525L8.93438 40.5254C8.37081 40.1963 7.74698 39.9806 7.09903 39.892L6.82812 41.8736ZM7.92577 42.2525L6.91614 43.9789L20.257 51.7807L21.2666 50.0542L22.2762 48.3278L8.93541 40.526L7.92577 42.2525ZM21.2666 50.0542L23.2554 49.8429L22.0669 38.6574L20.0781 38.8687L18.0893 39.08L19.2778 50.2655L21.2666 50.0542ZM20.0781 38.8687L22.066 38.6488C22.052 38.5219 22.0631 38.3927 22.099 38.2694L20.1787 37.7105L18.2584 37.1516C18.0757 37.7794 18.0183 38.4379 18.0902 39.0886L20.0781 38.8687ZM20.1787 37.7105L22.099 38.2695C22.1348 38.1464 22.1945 38.0318 22.2744 37.9323L20.7148 36.6802L19.1553 35.4281C18.7457 35.9382 18.4411 36.5239 18.2584 37.1514L20.1787 37.7105ZM20.7148 36.6802L22.2742 37.9326C22.3556 37.8312 22.4552 37.748 22.5657 37.6875L21.6055 35.9331L20.6452 34.1787C20.0696 34.4938 19.5639 34.9194 19.1555 35.4279L20.7148 36.6802ZM21.6055 35.9331L22.5656 37.6876C22.6766 37.6268 22.8004 37.5878 22.9291 37.574L22.7148 35.5855L22.5005 33.597C21.8515 33.6669 21.2205 33.8639 20.6453 34.1787L21.6055 35.9331Z" fill="#426587" mask="url(#path-4-inside-2_417_564)"/>
<mask id="path-6-inside-3_417_564" fill="white">
<path fill-rule="evenodd" clip-rule="evenodd" d="M47.6507 92.1088C48.3354 91.7214 49.1462 91.6216 49.9046 91.8305C50.663 92.0395 51.3079 92.5407 51.6976 93.224C52.0871 93.9073 52.19 94.717 51.9837 95.476C51.7773 96.2352 51.2782 96.8818 50.596 97.2738L27.64 110.357L26.0306 125.956C25.9528 126.685 25.608 127.359 25.0628 127.848C24.5177 128.338 23.8111 128.609 23.0785 128.608H22.7699C21.9862 128.527 21.2669 128.137 20.7699 127.526C20.2728 126.914 20.0391 126.131 20.1195 125.347L21.2884 113.977L7.41147 121.887C6.97008 122.136 6.47307 122.271 5.96616 122.278C5.31109 122.275 4.67479 122.056 4.15659 121.656C3.63842 121.255 3.26666 120.694 3.09897 120.061C2.93129 119.428 2.97783 118.756 3.22983 118.152C3.48184 117.547 3.92576 117.042 4.4935 116.715L17.9212 109.058L7.65854 104.529C7.30148 104.371 6.97882 104.144 6.70932 103.862C6.43983 103.579 6.22815 103.246 6.08725 102.882C5.94635 102.518 5.87884 102.129 5.88803 101.739C5.89727 101.348 5.98315 100.964 6.14096 100.607C6.29883 100.25 6.52547 99.9271 6.80796 99.6576C7.09047 99.3881 7.4233 99.1765 7.78745 99.0356C8.15162 98.8947 8.54063 98.8272 8.931 98.8363C9.32121 98.8456 9.70585 98.9315 10.0628 99.0893L24.3421 105.397L47.6507 92.1088Z"/>
</mask>
<path fill-rule="evenodd" clip-rule="evenodd" d="M47.6507 92.1088C48.3354 91.7214 49.1462 91.6216 49.9046 91.8305C50.663 92.0395 51.3079 92.5407 51.6976 93.224C52.0871 93.9073 52.19 94.717 51.9837 95.476C51.7773 96.2352 51.2782 96.8818 50.596 97.2738L27.64 110.357L26.0306 125.956C25.9528 126.685 25.608 127.359 25.0628 127.848C24.5177 128.338 23.8111 128.609 23.0785 128.608H22.7699C21.9862 128.527 21.2669 128.137 20.7699 127.526C20.2728 126.914 20.0391 126.131 20.1195 125.347L21.2884 113.977L7.41147 121.887C6.97008 122.136 6.47307 122.271 5.96616 122.278C5.31109 122.275 4.67479 122.056 4.15659 121.656C3.63842 121.255 3.26666 120.694 3.09897 120.061C2.93129 119.428 2.97783 118.756 3.22983 118.152C3.48184 117.547 3.92576 117.042 4.4935 116.715L17.9212 109.058L7.65854 104.529C7.30148 104.371 6.97882 104.144 6.70932 103.862C6.43983 103.579 6.22815 103.246 6.08725 102.882C5.94635 102.518 5.87884 102.129 5.88803 101.739C5.89727 101.348 5.98315 100.964 6.14096 100.607C6.29883 100.25 6.52547 99.9271 6.80796 99.6576C7.09047 99.3881 7.4233 99.1765 7.78745 99.0356C8.15162 98.8947 8.54063 98.8272 8.931 98.8363C9.32121 98.8456 9.70585 98.9315 10.0628 99.0893L24.3421 105.397L47.6507 92.1088Z" fill="white"/>
<path d="M47.6507 92.1088L46.6658 90.3681L46.6602 90.3713L47.6507 92.1088ZM49.9046 91.8305L50.4359 89.9023L50.4357 89.9023L49.9046 91.8305ZM51.6976 93.224L53.4351 92.2335L53.4349 92.2332L51.6976 93.224ZM51.9837 95.476L53.9137 96.0007L53.9137 96.0005L51.9837 95.476ZM50.596 97.2738L51.5863 99.0115L51.5925 99.0079L50.596 97.2738ZM27.64 110.357L26.6497 108.619L25.7561 109.129L25.6505 110.152L27.64 110.357ZM26.0306 125.956L28.0193 126.169L28.0201 126.162L26.0306 125.956ZM25.0628 127.848L26.399 129.336L26.3991 129.336L25.0628 127.848ZM23.0785 128.608L23.0805 126.608H23.0785V128.608ZM22.7699 128.608L22.5636 130.597L22.6664 130.608H22.7699V128.608ZM20.7699 127.526L19.218 128.787L19.2181 128.788L20.7699 127.526ZM20.1195 125.347L18.13 125.143L18.1299 125.143L20.1195 125.347ZM21.2884 113.977L23.2779 114.182L23.6755 110.314L20.298 112.239L21.2884 113.977ZM7.41147 121.887L8.39521 123.628L8.40191 123.625L7.41147 121.887ZM5.96616 122.278L5.95683 124.278L5.97493 124.278L5.99302 124.278L5.96616 122.278ZM4.15659 121.656L2.93301 123.238L2.93306 123.238L4.15659 121.656ZM3.09897 120.061L1.1656 120.573L1.16561 120.573L3.09897 120.061ZM3.22983 118.152L1.38375 117.382L1.38371 117.382L3.22983 118.152ZM4.4935 116.715L3.50276 114.978L3.49577 114.982L4.4935 116.715ZM17.9212 109.058L18.912 110.795L22.3583 108.83L18.7288 107.228L17.9212 109.058ZM7.65854 104.529L6.8499 106.358L6.85102 106.358L7.65854 104.529ZM6.70932 103.862L5.26222 105.242L5.26234 105.242L6.70932 103.862ZM6.08725 102.882L4.22199 103.604L4.22204 103.604L6.08725 102.882ZM5.88803 101.739L3.88859 101.691L3.88859 101.692L5.88803 101.739ZM6.14096 100.607L4.31173 99.7982L4.31172 99.7982L6.14096 100.607ZM6.80796 99.6576L5.42742 98.2105L5.42735 98.2106L6.80796 99.6576ZM7.78745 99.0356L7.06578 97.1703L7.06573 97.1703L7.78745 99.0356ZM8.931 98.8363L8.97836 96.8369L8.97807 96.8369L8.931 98.8363ZM10.0628 99.0893L9.25424 100.919L9.25471 100.919L10.0628 99.0893ZM24.3421 105.397L23.534 107.226L24.4565 107.634L25.3327 107.134L24.3421 105.397ZM47.6507 92.1088L48.6357 93.8495C48.8589 93.7231 49.1244 93.6901 49.3736 93.7587L49.9046 91.8305L50.4357 89.9023C49.1679 89.5531 47.8119 89.7196 46.6658 90.3681L47.6507 92.1088ZM49.9046 91.8305L49.3733 93.7586C49.6215 93.827 49.8327 93.9911 49.9603 94.2148L51.6976 93.224L53.4349 92.2332C52.7831 91.0902 51.7046 90.2519 50.4359 89.9023L49.9046 91.8305ZM51.6976 93.224L49.9601 94.2146C50.0876 94.4381 50.1213 94.703 50.0537 94.9515L51.9837 95.476L53.9137 96.0005C54.2587 94.731 54.0867 93.3765 53.4351 92.2335L51.6976 93.224ZM51.9837 95.476L50.0538 94.9512C49.9862 95.1997 49.8228 95.4115 49.5996 95.5398L50.596 97.2738L51.5925 99.0079C52.7336 98.3522 53.5684 97.2707 53.9137 96.0007L51.9837 95.476ZM50.596 97.2738L49.6057 95.5362L26.6497 108.619L27.64 110.357L28.6303 112.094L51.5863 99.0115L50.596 97.2738ZM27.64 110.357L25.6505 110.152L24.0412 125.751L26.0306 125.956L28.0201 126.162L29.6294 110.562L27.64 110.357ZM26.0306 125.956L24.0419 125.744C24.0166 125.981 23.9045 126.2 23.7266 126.36L25.0628 127.848L26.3991 129.336C27.3114 128.517 27.8889 127.389 28.0193 126.169L26.0306 125.956ZM25.0628 127.848L23.7267 126.36C23.548 126.52 23.3177 126.608 23.0805 126.608L23.0785 128.608L23.0764 130.608C24.3045 130.609 25.4874 130.155 26.399 129.336L25.0628 127.848ZM23.0785 128.608V126.608H22.7699V128.608V130.608H23.0785V128.608ZM22.7699 128.608L22.9762 126.618C22.7204 126.592 22.4848 126.465 22.3217 126.264L20.7699 127.526L19.2181 128.788C20.049 129.809 21.2519 130.461 22.5636 130.597L22.7699 128.608ZM20.7699 127.526L22.3217 126.264C22.1594 126.064 22.0827 125.808 22.109 125.551L20.1195 125.347L18.1299 125.143C17.9955 126.454 18.3863 127.764 19.218 128.787L20.7699 127.526ZM20.1195 125.347L22.109 125.552L23.2779 114.182L21.2884 113.977L19.2989 113.772L18.13 125.143L20.1195 125.347ZM21.2884 113.977L20.298 112.239L6.42104 120.15L7.41147 121.887L8.40191 123.625L22.2789 115.715L21.2884 113.977ZM7.41147 121.887L6.42775 120.146C6.27809 120.23 6.11007 120.276 5.9393 120.278L5.96616 122.278L5.99302 124.278C6.83607 124.266 7.66207 124.043 8.3952 123.628L7.41147 121.887ZM5.96616 122.278L5.97549 120.278C5.75856 120.277 5.54931 120.204 5.38011 120.074L4.15659 121.656L2.93306 123.238C3.80026 123.908 4.86362 124.273 5.95683 124.278L5.96616 122.278ZM4.15659 121.656L5.38017 120.074C5.21003 119.942 5.08756 119.758 5.03233 119.549L3.09897 120.061L1.16561 120.573C1.44577 121.631 2.06681 122.568 2.93301 123.238L4.15659 121.656ZM3.09897 120.061L5.03235 119.549C4.97767 119.343 4.99238 119.122 5.07595 118.921L3.22983 118.152L1.38371 117.382C0.963282 118.391 0.884898 119.513 1.1656 120.573L3.09897 120.061ZM3.22983 118.152L5.07592 118.921C5.15914 118.721 5.30534 118.556 5.49124 118.449L4.4935 116.715L3.49577 114.982C2.54617 115.528 1.80454 116.373 1.38375 117.382L3.22983 118.152ZM4.4935 116.715L5.48424 118.453L18.912 110.795L17.9212 109.058L16.9305 107.321L3.50276 114.978L4.4935 116.715ZM17.9212 109.058L18.7288 107.228L8.46607 102.699L7.65854 104.529L6.85102 106.358L17.1137 110.888L17.9212 109.058ZM7.65854 104.529L8.46718 102.699C8.35021 102.648 8.24447 102.573 8.1563 102.481L6.70932 103.862L5.26234 105.242C5.71317 105.715 6.25276 106.094 6.8499 106.358L7.65854 104.529ZM6.70932 103.862L8.15643 102.481C8.0674 102.388 7.99818 102.279 7.95247 102.16L6.08725 102.882L4.22204 103.604C4.45812 104.214 4.81225 104.771 5.26222 105.242L6.70932 103.862ZM6.08725 102.882L7.95251 102.161C7.90687 102.043 7.88444 101.915 7.88748 101.786L5.88803 101.739L3.88859 101.692C3.87325 102.343 3.98584 102.994 4.22199 103.604L6.08725 102.882ZM5.88803 101.739L7.88747 101.786C7.89051 101.658 7.91869 101.532 7.97021 101.415L6.14096 100.607L4.31172 99.7982C4.04761 100.396 3.90404 101.039 3.88859 101.691L5.88803 101.739ZM6.14096 100.607L7.9702 101.415C8.02195 101.298 8.09621 101.193 8.18856 101.105L6.80796 99.6576L5.42735 98.2106C4.95473 98.6615 4.5757 99.2011 4.31173 99.7982L6.14096 100.607ZM6.80796 99.6576L8.1885 101.105C8.28187 101.016 8.39109 100.946 8.50917 100.901L7.78745 99.0356L7.06573 97.1703C6.45552 97.4064 5.89907 97.7606 5.42742 98.2105L6.80796 99.6576ZM7.78745 99.0356L8.50912 100.901C8.62708 100.855 8.75478 100.833 8.88393 100.836L8.931 98.8363L8.97807 96.8369C8.32648 96.8216 7.67616 96.9341 7.06578 97.1703L7.78745 99.0356ZM8.931 98.8363L8.88365 100.836C9.01176 100.839 9.1377 100.867 9.25424 100.919L10.0628 99.0893L10.8714 97.26C10.274 96.9959 9.63065 96.8524 8.97836 96.8369L8.931 98.8363ZM10.0628 99.0893L9.25471 100.919L23.534 107.226L24.3421 105.397L25.1503 103.567L10.871 97.2598L10.0628 99.0893ZM24.3421 105.397L25.3327 107.134L48.6413 93.8463L47.6507 92.1088L46.6602 90.3713L23.3516 103.659L24.3421 105.397Z" fill="#426587" mask="url(#path-6-inside-3_417_564)"/>
<mask id="path-8-inside-4_417_564" fill="white">
<path fill-rule="evenodd" clip-rule="evenodd" d="M70.5232 104.268C70.9135 104.27 71.3 104.349 71.6599 104.5C72.02 104.651 72.3471 104.872 72.6219 105.149C72.8966 105.426 73.1138 105.755 73.2615 106.117C73.4092 106.478 73.485 106.865 73.4832 107.255L73.3367 133.726L86.0398 142.904C86.6107 143.389 86.9765 144.073 87.0652 144.817C87.1539 145.561 86.959 146.311 86.5183 146.917C86.0776 147.524 85.4235 147.94 84.6883 148.085C83.9531 148.23 83.1903 148.093 82.5525 147.7L73.2967 141.003L73.2088 156.954C73.2052 157.74 72.89 158.493 72.3328 159.047C71.7757 159.602 71.0221 159.914 70.2361 159.914C69.4471 159.908 68.6922 159.59 68.1375 159.029C67.5827 158.468 67.2725 157.709 67.2762 156.919L67.3611 141.448L58.2889 148.076C57.7775 148.454 57.1571 148.656 56.5213 148.652C55.895 148.651 55.2848 148.452 54.7781 148.083C54.2715 147.715 53.8944 147.196 53.7 146.601C53.5056 146.006 53.5033 145.364 53.6951 144.768C53.8869 144.172 54.2623 143.651 54.7674 143.281L67.4021 134.058L67.5506 107.228C67.5542 106.442 67.8694 105.689 68.4265 105.134C68.9836 104.58 69.7373 104.268 70.5232 104.268Z"/>
</mask>
<path fill-rule="evenodd" clip-rule="evenodd" d="M70.5232 104.268C70.9135 104.27 71.3 104.349 71.6599 104.5C72.02 104.651 72.3471 104.872 72.6219 105.149C72.8966 105.426 73.1138 105.755 73.2615 106.117C73.4092 106.478 73.485 106.865 73.4832 107.255L73.3367 133.726L86.0398 142.904C86.6107 143.389 86.9765 144.073 87.0652 144.817C87.1539 145.561 86.959 146.311 86.5183 146.917C86.0776 147.524 85.4235 147.94 84.6883 148.085C83.9531 148.23 83.1903 148.093 82.5525 147.7L73.2967 141.003L73.2088 156.954C73.2052 157.74 72.89 158.493 72.3328 159.047C71.7757 159.602 71.0221 159.914 70.2361 159.914C69.4471 159.908 68.6922 159.59 68.1375 159.029C67.5827 158.468 67.2725 157.709 67.2762 156.919L67.3611 141.448L58.2889 148.076C57.7775 148.454 57.1571 148.656 56.5213 148.652C55.895 148.651 55.2848 148.452 54.7781 148.083C54.2715 147.715 53.8944 147.196 53.7 146.601C53.5056 146.006 53.5033 145.364 53.6951 144.768C53.8869 144.172 54.2623 143.651 54.7674 143.281L67.4021 134.058L67.5506 107.228C67.5542 106.442 67.8694 105.689 68.4265 105.134C68.9836 104.58 69.7373 104.268 70.5232 104.268Z" fill="white"/>
<path d="M70.5232 104.268L70.5324 102.268L70.523 102.268L70.5232 104.268ZM71.6599 104.5L72.4338 102.655L72.4336 102.655L71.6599 104.5ZM72.6219 105.149L74.0427 103.741L74.0426 103.741L72.6219 105.149ZM73.2615 106.117L75.1129 105.36L75.1128 105.36L73.2615 106.117ZM73.4832 107.255L75.4832 107.266L75.4832 107.265L73.4832 107.255ZM73.3367 133.726L71.3367 133.715L71.331 134.744L72.1654 135.347L73.3367 133.726ZM86.0398 142.904L87.3355 141.38L87.2752 141.329L87.2111 141.283L86.0398 142.904ZM87.0652 144.817L89.0511 144.58L89.0511 144.58L87.0652 144.817ZM86.5183 146.917L88.1359 148.094L88.136 148.094L86.5183 146.917ZM84.6883 148.085L85.0749 150.048L85.0752 150.048L84.6883 148.085ZM82.5525 147.7L81.3802 149.32L81.4399 149.363L81.5025 149.402L82.5525 147.7ZM73.2967 141.003L74.469 139.383L71.3181 137.103L71.2967 140.992L73.2967 141.003ZM73.2088 156.954L71.2088 156.943L71.2088 156.944L73.2088 156.954ZM72.3328 159.047L73.7436 160.465L73.7437 160.465L72.3328 159.047ZM70.2361 159.914L70.2223 161.914H70.2363L70.2361 159.914ZM68.1375 159.029L66.7152 160.435L66.7154 160.435L68.1375 159.029ZM67.2762 156.919L65.2762 156.908L65.2762 156.91L67.2762 156.919ZM67.3611 141.448L69.3611 141.459L69.3829 137.494L66.1813 139.833L67.3611 141.448ZM58.2889 148.076L57.109 146.461L57.1001 146.467L58.2889 148.076ZM56.5213 148.652L56.5353 146.652L56.5243 146.652L56.5213 148.652ZM54.7781 148.083L53.6024 149.701L53.6026 149.702L54.7781 148.083ZM53.7 146.601L51.7987 147.222L51.7988 147.222L53.7 146.601ZM53.6951 144.768L51.7912 144.156L51.7912 144.156L53.6951 144.768ZM54.7674 143.281L53.5882 141.665L53.5846 141.668L54.7674 143.281ZM67.4021 134.058L68.5813 135.674L69.3965 135.078L69.4021 134.069L67.4021 134.058ZM67.5506 107.228L69.5505 107.239L69.5505 107.237L67.5506 107.228ZM68.4265 105.134L67.0157 103.717L67.0156 103.717L68.4265 105.134ZM70.5232 104.268L70.514 106.268C70.6419 106.269 70.7686 106.294 70.8863 106.344L71.6599 104.5L72.4336 102.655C71.8314 102.403 71.1852 102.271 70.5324 102.268L70.5232 104.268ZM71.6599 104.5L70.8861 106.344C71.0032 106.393 71.1107 106.465 71.2011 106.557L72.6219 105.149L74.0426 103.741C73.5834 103.278 73.0367 102.908 72.4338 102.655L71.6599 104.5ZM72.6219 105.149L71.201 106.557C71.2899 106.646 71.3613 106.754 71.4102 106.874L73.2615 106.117L75.1128 105.36C74.8663 104.757 74.5033 104.206 74.0427 103.741L72.6219 105.149ZM73.2615 106.117L71.4102 106.873C71.4594 106.994 71.4838 107.121 71.4832 107.246L73.4832 107.255L75.4832 107.265C75.4862 106.609 75.3589 105.962 75.1129 105.36L73.2615 106.117ZM73.4832 107.255L71.4832 107.244L71.3367 133.715L73.3367 133.726L75.3367 133.737L75.4832 107.266L73.4832 107.255ZM73.3367 133.726L72.1654 135.347L84.8686 144.525L86.0398 142.904L87.2111 141.283L74.508 132.105L73.3367 133.726ZM86.0398 142.904L84.7442 144.427C84.9298 144.585 85.0501 144.809 85.0793 145.054L87.0652 144.817L89.0511 144.58C88.9029 143.337 88.2916 142.193 87.3355 141.38L86.0398 142.904ZM87.0652 144.817L85.0793 145.054C85.1085 145.299 85.0442 145.544 84.9007 145.741L86.5183 146.917L88.136 148.094C88.8739 147.079 89.1994 145.823 89.0511 144.58L87.0652 144.817ZM86.5183 146.917L84.9008 145.741C84.7574 145.938 84.5434 146.076 84.3013 146.123L84.6883 148.085L85.0752 150.048C86.3036 149.805 87.3978 149.109 88.1359 148.094L86.5183 146.917ZM84.6883 148.085L84.3016 146.123C84.0594 146.171 83.8099 146.125 83.6025 145.997L82.5525 147.7L81.5025 149.402C82.5707 150.061 83.8468 150.29 85.0749 150.048L84.6883 148.085ZM82.5525 147.7L83.7248 146.079L74.469 139.383L73.2967 141.003L72.1244 142.624L81.3802 149.32L82.5525 147.7ZM73.2967 141.003L71.2967 140.992L71.2088 156.943L73.2088 156.954L75.2087 156.965L75.2966 141.014L73.2967 141.003ZM73.2088 156.954L71.2088 156.944C71.2076 157.201 71.1045 157.448 70.9219 157.63L72.3328 159.047L73.7437 160.465C74.6754 159.537 75.2027 158.278 75.2088 156.963L73.2088 156.954ZM72.3328 159.047L70.922 157.63C70.739 157.812 70.4922 157.914 70.2359 157.914L70.2361 159.914L70.2363 161.914C71.5519 161.913 72.8125 161.392 73.7436 160.465L72.3328 159.047ZM70.2361 159.914L70.2499 157.914C69.9906 157.912 69.7421 157.807 69.5596 157.623L68.1375 159.029L66.7154 160.435C67.6424 161.373 68.9037 161.904 70.2223 161.914L70.2361 159.914ZM68.1375 159.029L69.5598 157.623C69.3769 157.438 69.2749 157.188 69.2761 156.929L67.2762 156.919L65.2762 156.91C65.2701 158.23 65.7885 159.497 66.7152 160.435L68.1375 159.029ZM67.2762 156.919L69.2761 156.93L69.3611 141.459L67.3611 141.448L65.3611 141.437L65.2762 156.908L67.2762 156.919ZM67.3611 141.448L66.1813 139.833L57.109 146.461L58.2889 148.076L59.4687 149.691L68.5409 143.063L67.3611 141.448ZM58.2889 148.076L57.1001 146.467C56.9355 146.589 56.737 146.653 56.5353 146.652L56.5213 148.652L56.5073 150.652C57.5773 150.659 58.6194 150.318 59.4776 149.684L58.2889 148.076ZM56.5213 148.652L56.5243 146.652C56.3204 146.652 56.1204 146.587 55.9537 146.465L54.7781 148.083L53.6026 149.702C54.4492 150.317 55.4695 150.65 56.5183 150.652L56.5213 148.652ZM54.7781 148.083L55.9538 146.466C55.7887 146.346 55.6651 146.176 55.6012 145.98L53.7 146.601L51.7988 147.222C52.1237 148.217 52.7543 149.085 53.6024 149.701L54.7781 148.083ZM53.7 146.601L55.6012 145.98C55.537 145.784 55.5369 145.574 55.599 145.38L53.6951 144.768L51.7912 144.156C51.4698 145.155 51.4742 146.228 51.7987 147.222L53.7 146.601ZM53.6951 144.768L55.599 145.381C55.6618 145.185 55.7848 145.015 55.9501 144.894L54.7674 143.281L53.5846 141.668C52.7398 142.287 52.112 143.158 51.7912 144.156L53.6951 144.768ZM54.7674 143.281L55.9465 144.896L68.5813 135.674L67.4021 134.058L66.223 132.443L53.5882 141.665L54.7674 143.281ZM67.4021 134.058L69.4021 134.069L69.5505 107.239L67.5506 107.228L65.5506 107.217L65.4022 134.047L67.4021 134.058ZM67.5506 107.228L69.5505 107.237C69.5517 106.98 69.6549 106.734 69.8375 106.552L68.4265 105.134L67.0156 103.717C66.0839 104.644 65.5567 105.903 65.5506 107.219L67.5506 107.228ZM68.4265 105.134L69.8374 106.552C70.0204 106.37 70.2672 106.268 70.5234 106.268L70.5232 104.268L70.523 102.268C69.2074 102.268 67.9468 102.79 67.0157 103.717L68.4265 105.134Z" fill="#426587" mask="url(#path-8-inside-4_417_564)"/>
<mask id="path-10-inside-5_417_564" fill="white">
<path fill-rule="evenodd" clip-rule="evenodd" d="M91.2837 92.0822C91.6693 91.9869 92.07 91.9702 92.4624 92.0324C92.8548 92.0946 93.2315 92.2345 93.5688 92.4445L116.392 105.786L130.718 99.3908C131.439 99.0684 132.257 99.045 132.995 99.3263C133.732 99.6077 134.327 100.17 134.65 100.891C134.972 101.611 134.995 102.43 134.714 103.167C134.433 103.905 133.87 104.501 133.15 104.823L122.722 109.486L136.472 117.524C137.037 117.853 137.478 118.36 137.726 118.965C137.974 119.57 138.016 120.241 137.844 120.872C137.673 121.504 137.297 122.061 136.777 122.457C136.256 122.854 135.62 123.068 134.965 123.066C134.44 123.066 133.924 122.926 133.471 122.661L120.138 114.865L121.346 126.025C121.429 126.808 121.198 127.593 120.704 128.206C120.209 128.82 119.493 129.213 118.709 129.299C118.602 129.303 118.494 129.301 118.387 129.292C117.655 129.293 116.948 129.023 116.403 128.533C115.858 128.044 115.513 127.369 115.435 126.641L113.755 111.133L90.5678 97.5754C90.2195 97.3844 89.9131 97.1251 89.6665 96.8136C89.4199 96.5022 89.2383 96.1447 89.1323 95.7619C89.0263 95.3789 88.998 94.9782 89.0493 94.5842C89.1006 94.1902 89.2306 93.8109 89.4311 93.4679C89.6317 93.1249 89.899 92.825 90.2173 92.5871C90.5354 92.3493 90.898 92.1775 91.2837 92.0822Z"/>
</mask>
<path fill-rule="evenodd" clip-rule="evenodd" d="M91.2837 92.0822C91.6693 91.9869 92.07 91.9702 92.4624 92.0324C92.8548 92.0946 93.2315 92.2345 93.5688 92.4445L116.392 105.786L130.718 99.3908C131.439 99.0684 132.257 99.045 132.995 99.3263C133.732 99.6077 134.327 100.17 134.65 100.891C134.972 101.611 134.995 102.43 134.714 103.167C134.433 103.905 133.87 104.501 133.15 104.823L122.722 109.486L136.472 117.524C137.037 117.853 137.478 118.36 137.726 118.965C137.974 119.57 138.016 120.241 137.844 120.872C137.673 121.504 137.297 122.061 136.777 122.457C136.256 122.854 135.62 123.068 134.965 123.066C134.44 123.066 133.924 122.926 133.471 122.661L120.138 114.865L121.346 126.025C121.429 126.808 121.198 127.593 120.704 128.206C120.209 128.82 119.493 129.213 118.709 129.299C118.602 129.303 118.494 129.301 118.387 129.292C117.655 129.293 116.948 129.023 116.403 128.533C115.858 128.044 115.513 127.369 115.435 126.641L113.755 111.133L90.5678 97.5754C90.2195 97.3844 89.9131 97.1251 89.6665 96.8136C89.4199 96.5022 89.2383 96.1447 89.1323 95.7619C89.0263 95.3789 88.998 94.9782 89.0493 94.5842C89.1006 94.1902 89.2306 93.8109 89.4311 93.4679C89.6317 93.1249 89.899 92.825 90.2173 92.5871C90.5354 92.3493 90.898 92.1775 91.2837 92.0822Z" fill="white"/>
<path d="M91.2837 92.0822L90.8037 90.1406L90.8036 90.1407L91.2837 92.0822ZM92.4624 92.0324L92.7756 90.0571L92.7754 90.057L92.4624 92.0324ZM93.5688 92.4445L92.5117 94.1423L92.5354 94.1571L92.5595 94.1711L93.5688 92.4445ZM116.392 105.786L115.383 107.513L116.269 108.031L117.207 107.613L116.392 105.786ZM130.718 99.3908L131.534 101.217L131.535 101.216L130.718 99.3908ZM132.995 99.3263L133.708 97.4577L133.708 97.4577L132.995 99.3263ZM134.65 100.891L136.475 100.074L136.475 100.074L134.65 100.891ZM134.714 103.167L136.583 103.88L136.583 103.88L134.714 103.167ZM133.15 104.823L133.966 106.649L133.967 106.649L133.15 104.823ZM122.722 109.486L121.906 107.66L118.353 109.248L121.713 111.212L122.722 109.486ZM136.472 117.524L135.463 119.25L135.465 119.252L136.472 117.524ZM137.726 118.965L139.577 118.207L139.577 118.207L137.726 118.965ZM137.844 120.872L139.774 121.397L139.774 121.397L137.844 120.872ZM136.777 122.457L137.989 124.048L137.989 124.048L136.777 122.457ZM134.965 123.066L134.972 121.066L134.964 121.066L134.965 123.066ZM133.471 122.661L134.481 120.935L134.481 120.935L133.471 122.661ZM120.138 114.865L121.148 113.139L117.723 111.136L118.15 115.081L120.138 114.865ZM121.346 126.025L123.335 125.815L123.335 125.809L121.346 126.025ZM120.704 128.206L122.261 129.461L122.261 129.461L120.704 128.206ZM118.709 129.299L118.792 131.297L118.86 131.294L118.928 131.287L118.709 129.299ZM118.387 129.292L118.554 127.299L118.47 127.292L118.385 127.292L118.387 129.292ZM116.403 128.533L115.067 130.022L115.067 130.022L116.403 128.533ZM115.435 126.641L117.424 126.428L117.423 126.425L115.435 126.641ZM113.755 111.133L115.744 110.918L115.635 109.915L114.765 109.406L113.755 111.133ZM90.5678 97.5754L91.5773 95.8488L91.5535 95.8349L91.5293 95.8216L90.5678 97.5754ZM89.6665 96.8136L88.0985 98.0551L88.0985 98.0552L89.6665 96.8136ZM89.1323 95.7619L87.2048 96.2956L87.2049 96.2958L89.1323 95.7619ZM89.0493 94.5842L87.0661 94.3257L87.066 94.3258L89.0493 94.5842ZM89.4311 93.4679L87.7047 92.4583L87.7046 92.4584L89.4311 93.4679ZM90.2173 92.5871L89.0199 90.9851L89.0196 90.9853L90.2173 92.5871ZM91.2837 92.0822L91.7636 94.0237C91.8884 93.9929 92.0195 93.9872 92.1494 94.0077L92.4624 92.0324L92.7754 90.057C92.1206 89.9533 91.4502 89.9808 90.8037 90.1406L91.2837 92.0822ZM92.4624 92.0324L92.1492 94.0077C92.2797 94.0284 92.4031 94.0747 92.5117 94.1423L93.5688 92.4445L94.6259 90.7467C94.0599 90.3943 93.43 90.1608 92.7756 90.0571L92.4624 92.0324ZM93.5688 92.4445L92.5595 94.1711L115.383 107.513L116.392 105.786L117.401 104.06L94.5782 90.7179L93.5688 92.4445ZM116.392 105.786L117.207 107.613L131.534 101.217L130.718 99.3908L129.903 97.5645L115.577 103.96L116.392 105.786ZM130.718 99.3908L131.535 101.216C131.772 101.11 132.04 101.103 132.282 101.195L132.995 99.3263L133.708 97.4577C132.474 96.9871 131.105 97.0265 129.901 97.5653L130.718 99.3908ZM132.995 99.3263L132.282 101.195C132.523 101.287 132.719 101.472 132.824 101.708L134.65 100.891L136.475 100.074C135.936 98.8692 134.941 97.9282 133.708 97.4577L132.995 99.3263ZM134.65 100.891L132.824 101.708C132.93 101.944 132.938 102.213 132.846 102.455L134.714 103.167L136.583 103.88C137.053 102.647 137.014 101.278 136.475 100.074L134.65 100.891ZM134.714 103.167L132.846 102.454C132.753 102.697 132.568 102.893 132.333 102.998L133.15 104.823L133.967 106.649C135.173 106.109 136.113 105.112 136.583 103.88L134.714 103.167ZM133.15 104.823L132.334 102.998L121.906 107.66L122.722 109.486L123.538 111.311L133.966 106.649L133.15 104.823ZM122.722 109.486L121.713 111.212L135.463 119.25L136.472 117.524L137.481 115.797L123.731 107.759L122.722 109.486ZM136.472 117.524L135.465 119.252C135.65 119.359 135.794 119.525 135.875 119.724L137.726 118.965L139.577 118.207C139.162 117.195 138.425 116.347 137.479 115.796L136.472 117.524ZM137.726 118.965L135.875 119.723C135.957 119.922 135.97 120.142 135.914 120.348L137.844 120.872L139.774 121.397C140.061 120.34 139.991 119.219 139.577 118.207L137.726 118.965ZM137.844 120.872L135.914 120.347C135.858 120.554 135.735 120.736 135.565 120.866L136.777 122.457L137.989 124.048C138.859 123.385 139.487 122.453 139.774 121.397L137.844 120.872ZM136.777 122.457L135.565 120.866C135.394 120.997 135.185 121.066 134.972 121.066L134.965 123.066L134.958 125.066C136.054 125.069 137.119 124.711 137.989 124.048L136.777 122.457ZM134.965 123.066L134.964 121.066C134.794 121.066 134.627 121.02 134.481 120.935L133.471 122.661L132.461 124.388C133.221 124.832 134.087 125.066 134.967 125.066L134.965 123.066ZM133.471 122.661L134.481 120.935L121.148 113.139L120.138 114.865L119.129 116.592L132.462 124.388L133.471 122.661ZM120.138 114.865L118.15 115.081L119.358 126.24L121.346 126.025L123.335 125.809L122.127 114.65L120.138 114.865ZM121.346 126.025L119.357 126.234C119.384 126.492 119.308 126.75 119.146 126.952L120.704 128.206L122.261 129.461C123.087 128.435 123.473 127.124 123.335 125.815L121.346 126.025ZM120.704 128.206L119.146 126.952C118.983 127.154 118.748 127.283 118.49 127.311L118.709 129.299L118.928 131.287C120.237 131.143 121.435 130.486 122.261 129.461L120.704 128.206ZM118.709 129.299L118.627 127.301C118.603 127.302 118.578 127.301 118.554 127.299L118.387 129.292L118.22 131.285C118.41 131.301 118.601 131.305 118.792 131.297L118.709 129.299ZM118.387 129.292L118.385 127.292C118.146 127.292 117.916 127.204 117.739 127.045L116.403 128.533L115.067 130.022C115.979 130.841 117.163 131.293 118.389 131.292L118.387 129.292ZM116.403 128.533L117.739 127.045C117.562 126.886 117.449 126.666 117.424 126.428L115.435 126.641L113.446 126.853C113.577 128.073 114.154 129.202 115.067 130.022L116.403 128.533ZM115.435 126.641L117.423 126.425L115.744 110.918L113.755 111.133L111.767 111.348L113.447 126.856L115.435 126.641ZM113.755 111.133L114.765 109.406L91.5773 95.8488L90.5678 97.5754L89.5583 99.3019L112.746 112.86L113.755 111.133ZM90.5678 97.5754L91.5293 95.8216C91.4165 95.7598 91.316 95.6751 91.2344 95.5721L89.6665 96.8136L88.0985 98.0552C88.5102 98.5751 89.0224 99.0089 89.6064 99.3291L90.5678 97.5754ZM89.6665 96.8136L91.2345 95.5722C91.1539 95.4703 91.0944 95.3533 91.0597 95.228L89.1323 95.7619L87.2049 96.2958C87.3822 96.936 87.686 97.5342 88.0985 98.0551L89.6665 96.8136ZM89.1323 95.7619L91.0598 95.2282C91.025 95.1026 91.0158 94.9711 91.0325 94.8425L89.0493 94.5842L87.066 94.3258C86.9802 94.9852 87.0275 95.6553 87.2048 96.2956L89.1323 95.7619ZM89.0493 94.5842L91.0325 94.8426C91.0492 94.7147 91.0915 94.5906 91.1576 94.4775L89.4311 93.4679L87.7046 92.4584C87.3697 93.0311 87.1521 93.6658 87.0661 94.3257L89.0493 94.5842ZM89.4311 93.4679L91.1576 94.4775C91.2239 94.3641 91.3118 94.2659 91.4149 94.1889L90.2173 92.5871L89.0196 90.9853C88.4862 91.3841 88.0395 91.8857 87.7047 92.4583L89.4311 93.4679ZM90.2173 92.5871L91.4147 94.189C91.5189 94.1111 91.6377 94.0549 91.7637 94.0237L91.2837 92.0822L90.8036 90.1407C90.1584 90.3002 89.5519 90.5874 89.0199 90.9851L90.2173 92.5871Z" fill="#426587" mask="url(#path-10-inside-5_417_564)"/>
<mask id="path-12-inside-6_417_564" fill="white">
<path fill-rule="evenodd" clip-rule="evenodd" d="M118.622 36.3162C119.407 36.397 120.128 36.787 120.626 37.3992C121.124 38.0113 121.359 38.796 121.278 39.5808L120.099 50.9167L133.937 43.0261C134.623 42.6357 135.436 42.5342 136.197 42.7429C136.958 42.9517 137.605 43.4537 137.995 44.1394C138.386 44.8251 138.488 45.6381 138.28 46.3992C138.071 47.1603 137.568 47.8074 136.882 48.198L123.449 55.8562L133.724 60.3923C134.345 60.6704 134.853 61.1523 135.161 61.7585C135.47 62.3649 135.562 63.0594 135.422 63.7253C135.282 64.3911 134.919 64.9892 134.392 65.4197C133.865 65.8502 133.206 66.0871 132.526 66.0915L132.533 66.0984C132.12 66.0982 131.711 66.0115 131.333 65.8445L117.024 59.5193L93.7249 72.8044C93.2773 73.0636 92.7695 73.2008 92.2523 73.2019C91.5972 73.1988 90.9609 72.9806 90.4427 72.5798C89.9246 72.179 89.5528 71.6183 89.3851 70.9851C89.2174 70.3518 89.264 69.6806 89.516 69.0759C89.768 68.4713 90.2119 67.9662 90.7796 67.6394L113.759 54.5329L115.359 38.9714C115.44 38.1866 115.829 37.4653 116.441 36.9675C117.053 36.4698 117.838 36.2354 118.622 36.3162Z"/>
</mask>
<path fill-rule="evenodd" clip-rule="evenodd" d="M118.622 36.3162C119.407 36.397 120.128 36.787 120.626 37.3992C121.124 38.0113 121.359 38.796 121.278 39.5808L120.099 50.9167L133.937 43.0261C134.623 42.6357 135.436 42.5342 136.197 42.7429C136.958 42.9517 137.605 43.4537 137.995 44.1394C138.386 44.8251 138.488 45.6381 138.28 46.3992C138.071 47.1603 137.568 47.8074 136.882 48.198L123.449 55.8562L133.724 60.3923C134.345 60.6704 134.853 61.1523 135.161 61.7585C135.47 62.3649 135.562 63.0594 135.422 63.7253C135.282 64.3911 134.919 64.9892 134.392 65.4197C133.865 65.8502 133.206 66.0871 132.526 66.0915L132.533 66.0984C132.12 66.0982 131.711 66.0115 131.333 65.8445L117.024 59.5193L93.7249 72.8044C93.2773 73.0636 92.7695 73.2008 92.2523 73.2019C91.5972 73.1988 90.9609 72.9806 90.4427 72.5798C89.9246 72.179 89.5528 71.6183 89.3851 70.9851C89.2174 70.3518 89.264 69.6806 89.516 69.0759C89.768 68.4713 90.2119 67.9662 90.7796 67.6394L113.759 54.5329L115.359 38.9714C115.44 38.1866 115.829 37.4653 116.441 36.9675C117.053 36.4698 117.838 36.2354 118.622 36.3162Z" fill="white"/>
<path d="M118.622 36.3162L118.827 34.3267L118.827 34.3266L118.622 36.3162ZM120.626 37.3992L122.178 36.1375L122.178 36.1373L120.626 37.3992ZM121.278 39.5808L123.267 39.7876L123.267 39.7857L121.278 39.5808ZM120.099 50.9167L118.11 50.7099L117.707 54.583L121.09 52.6541L120.099 50.9167ZM133.937 43.0261L132.947 41.2881L132.946 41.2887L133.937 43.0261ZM136.197 42.7429L136.726 40.8142L136.726 40.8141L136.197 42.7429ZM137.995 44.1394L139.733 43.1496L139.733 43.1495L137.995 44.1394ZM138.28 46.3992L140.208 46.9281L140.208 46.9278L138.28 46.3992ZM136.882 48.198L135.892 46.4601L135.892 46.4605L136.882 48.198ZM123.449 55.8562L122.458 54.1187L119.011 56.0836L122.641 57.6858L123.449 55.8562ZM133.724 60.3923L134.541 58.567L134.532 58.5627L133.724 60.3923ZM135.161 61.7585L136.943 60.8506L136.943 60.8504L135.161 61.7585ZM135.422 63.7253L137.379 64.1372L137.379 64.137L135.422 63.7253ZM134.392 65.4197L135.657 66.9686L135.657 66.9685L134.392 65.4197ZM132.526 66.0915L132.513 64.0916L127.728 64.1225L131.112 67.5058L132.526 66.0915ZM132.533 66.0984L132.532 68.0984L137.363 68.0999L133.947 64.6842L132.533 66.0984ZM131.333 65.8445L132.142 64.0154L132.142 64.0152L131.333 65.8445ZM117.024 59.5193L117.832 57.69L116.91 57.2821L116.033 57.7819L117.024 59.5193ZM93.7249 72.8044L92.7342 71.067L92.7229 71.0736L93.7249 72.8044ZM92.2523 73.2019L92.243 75.2019L92.2567 75.2019L92.2523 73.2019ZM90.4427 72.5798L89.2191 74.1618L89.2192 74.1619L90.4427 72.5798ZM89.3851 70.9851L87.4517 71.497L87.4517 71.497L89.3851 70.9851ZM89.516 69.0759L87.6699 68.3064L87.6698 68.3066L89.516 69.0759ZM90.7796 67.6394L89.7888 65.9021L89.7819 65.906L90.7796 67.6394ZM113.759 54.5329L114.75 56.2702L115.643 55.7606L115.749 54.7375L113.759 54.5329ZM115.359 38.9714L113.369 38.7665L113.369 38.7669L115.359 38.9714ZM116.441 36.9675L115.179 35.4158L115.179 35.4158L116.441 36.9675ZM118.622 36.3162L118.417 38.3056C118.674 38.3321 118.911 38.46 119.075 38.661L120.626 37.3992L122.178 36.1373C121.346 35.1141 120.14 34.4619 118.827 34.3267L118.622 36.3162ZM120.626 37.3992L119.075 38.6609C119.238 38.8619 119.315 39.1193 119.288 39.3759L121.278 39.5808L123.267 39.7857C123.402 38.4728 123.01 37.1606 122.178 36.1375L120.626 37.3992ZM121.278 39.5808L119.288 39.374L118.11 50.7099L120.099 50.9167L122.088 51.1236L123.267 39.7876L121.278 39.5808ZM120.099 50.9167L121.09 52.6541L134.928 44.7635L133.937 43.0261L132.946 41.2887L119.108 49.1793L120.099 50.9167ZM133.937 43.0261L134.926 44.7641C135.15 44.6367 135.417 44.6029 135.668 44.6717L136.197 42.7429L136.726 40.8141C135.454 40.4654 134.095 40.6346 132.947 41.2881L133.937 43.0261ZM136.197 42.7429L135.668 44.6717C135.918 44.7404 136.13 44.9053 136.258 45.1293L137.995 44.1394L139.733 43.1495C139.08 42.0021 137.997 41.163 136.726 40.8142L136.197 42.7429ZM137.995 44.1394L136.258 45.1292C136.386 45.3541 136.419 45.6209 136.351 45.8705L138.28 46.3992L140.208 46.9278C140.557 45.6553 140.386 44.2961 139.733 43.1496L137.995 44.1394ZM138.28 46.3992L136.351 45.8702C136.283 46.1193 136.118 46.3318 135.892 46.4601L136.882 48.198L137.872 49.9358C139.018 49.283 139.859 48.2013 140.208 46.9281L138.28 46.3992ZM136.882 48.198L135.892 46.4605L122.458 54.1187L123.449 55.8562L124.439 57.5937L137.873 49.9355L136.882 48.198ZM123.449 55.8562L122.641 57.6858L132.916 62.222L133.724 60.3923L134.532 58.5627L124.256 54.0265L123.449 55.8562ZM133.724 60.3923L132.907 62.2177C133.112 62.3096 133.278 62.4684 133.38 62.6667L135.161 61.7585L136.943 60.8504C136.427 59.8363 135.578 59.0313 134.541 58.567L133.724 60.3923ZM135.161 61.7585L133.379 62.6665C133.481 62.8653 133.511 63.0941 133.465 63.3137L135.422 63.7253L137.379 64.137C137.613 63.0247 137.46 61.8645 136.943 60.8506L135.161 61.7585ZM135.422 63.7253L133.465 63.3134C133.419 63.5336 133.299 63.73 133.127 63.8708L134.392 65.4197L135.657 66.9685C136.539 66.2484 137.145 65.2487 137.379 64.1372L135.422 63.7253ZM134.392 65.4197L133.127 63.8708C132.954 64.012 132.737 64.0901 132.513 64.0916L132.526 66.0915L132.539 68.0915C133.675 68.0842 134.776 67.6883 135.657 66.9686L134.392 65.4197ZM132.526 66.0915L131.112 67.5058L131.118 67.5126L132.533 66.0984L133.947 64.6842L133.94 64.6773L132.526 66.0915ZM132.533 66.0984L132.533 64.0984C132.4 64.0983 132.266 64.0702 132.142 64.0154L131.333 65.8445L130.524 67.6736C131.156 67.9527 131.839 68.0982 132.532 68.0984L132.533 66.0984ZM131.333 65.8445L132.142 64.0152L117.832 57.69L117.024 59.5193L116.215 61.3485L130.525 67.6737L131.333 65.8445ZM117.024 59.5193L116.033 57.7819L92.7343 71.067L93.7249 72.8044L94.7156 74.5418L118.014 61.2567L117.024 59.5193ZM93.7249 72.8044L92.7229 71.0736C92.578 71.1574 92.4142 71.2015 92.2479 71.2019L92.2523 73.2019L92.2567 75.2019C93.1248 75.2 93.9766 74.9697 94.727 74.5353L93.7249 72.8044ZM92.2523 73.2019L92.2616 71.2019C92.0447 71.2009 91.8354 71.1286 91.6662 70.9977L90.4427 72.5798L89.2192 74.1619C90.0864 74.8326 91.1497 75.1968 92.243 75.2019L92.2523 73.2019ZM90.4427 72.5798L91.6663 70.9978C91.4961 70.8661 91.3737 70.6816 91.3185 70.4732L89.3851 70.9851L87.4517 71.497C87.7319 72.5551 88.353 73.4919 89.2191 74.1618L90.4427 72.5798ZM89.3851 70.9851L91.3185 70.4732C91.2638 70.2667 91.2785 70.0457 91.3621 69.8452L89.516 69.0759L87.6698 68.3066C87.2494 69.3155 87.171 70.4369 87.4517 71.497L89.3851 70.9851ZM89.516 69.0759L91.362 69.8454C91.4453 69.6456 91.5916 69.4797 91.7774 69.3727L90.7796 67.6394L89.7819 65.906C88.8323 66.4526 88.0907 67.297 87.6699 68.3064L89.516 69.0759ZM90.7796 67.6394L91.7705 69.3767L114.75 56.2702L113.759 54.5329L112.768 52.7957L89.7888 65.9021L90.7796 67.6394ZM113.759 54.5329L115.749 54.7375L117.348 39.1759L115.359 38.9714L113.369 38.7669L111.77 54.3284L113.759 54.5329ZM115.359 38.9714L117.348 39.1764C117.375 38.9181 117.503 38.6817 117.703 38.5192L116.441 36.9675L115.179 35.4158C114.154 36.249 113.504 37.455 113.369 38.7665L115.359 38.9714ZM116.441 36.9675L117.703 38.5192C117.903 38.3561 118.161 38.2792 118.418 38.3057L118.622 36.3162L118.827 34.3266C117.515 34.1917 116.202 34.5836 115.179 35.4158L116.441 36.9675Z" fill="#426587" mask="url(#path-12-inside-6_417_564)"/>
<path d="M95.3564 36.5698C95.7452 36.5389 96.1341 36.6248 96.4746 36.8149C96.8152 37.0052 97.092 37.2918 97.2695 37.6392C97.4249 37.9431 97.4988 38.2812 97.4844 38.6206L97.4727 38.7661L94.0469 68.1675L93.959 68.9263L94.668 69.2114L121.85 80.1313C122.209 80.2771 122.517 80.5253 122.736 80.8452C122.955 81.1657 123.075 81.5439 123.08 81.9321C123.085 82.3204 122.976 82.7015 122.766 83.0278C122.582 83.3134 122.327 83.5458 122.028 83.7036L121.897 83.7671L94.7461 95.5278L94.0459 95.8306L94.1533 96.5854L98.2627 125.586V125.587C98.3163 125.973 98.2556 126.366 98.0869 126.717C97.9182 127.068 97.6492 127.362 97.3145 127.561C96.9797 127.76 96.5932 127.857 96.2041 127.837C95.8637 127.821 95.5341 127.716 95.2471 127.536L95.127 127.454L71.3662 109.816L70.7529 109.361L70.1523 109.832L47.1084 127.917L47.1064 127.918C46.7649 128.188 46.3448 128.337 45.9102 128.346C45.6347 128.344 45.3626 128.285 45.1113 128.172C44.8572 128.058 44.6299 127.892 44.4443 127.684C44.2587 127.476 44.119 127.231 44.0342 126.965C43.9499 126.702 43.9215 126.423 43.9512 126.148L47.376 96.7456L47.4648 95.9868L46.7549 95.7017L19.541 84.7837H19.542C19.182 84.638 18.8726 84.3894 18.6533 84.0688C18.434 83.7483 18.3139 83.3702 18.3086 82.9819C18.3033 82.5937 18.4128 82.2126 18.623 81.8862C18.8334 81.5599 19.1355 81.3025 19.4912 81.147L19.4902 81.146L46.6504 69.3794L47.3496 69.0767L47.2432 68.3218L43.1328 39.3169V39.3159C43.0779 38.9307 43.1379 38.5381 43.3057 38.187C43.4735 37.8359 43.7418 37.5425 44.0762 37.3433C44.4105 37.1441 44.7959 37.0474 45.1846 37.0669C45.573 37.0864 45.9472 37.2203 46.2598 37.4517L70.0303 55.0913L70.6426 55.5464L71.2432 55.0747L94.2881 36.9897L94.29 36.9888C94.5962 36.747 94.9676 36.6008 95.3564 36.5698ZM91.0879 44.4868L71.8652 59.5571V59.5581C71.5247 59.8256 71.1048 59.9733 70.6719 59.979C70.2391 59.9847 69.8161 59.8476 69.4688 59.5894L49.6025 44.8472L47.6807 43.4214L48.0166 45.7905L51.4414 69.9858V69.9878C51.5026 70.415 51.4218 70.8505 51.2109 71.2271C51 71.6037 50.6708 71.9007 50.2744 72.0718L50.2725 72.0728L27.5977 81.9302L25.4053 82.8833L27.624 83.7749L50.2979 92.8862L50.3018 92.8872C50.703 93.047 51.0402 93.3349 51.2617 93.7056C51.4556 94.0302 51.5514 94.4031 51.5391 94.7788L51.5273 94.9399L48.6914 119.519L48.417 121.899L50.3018 120.42L69.5234 105.35L69.5244 105.349C69.8649 105.082 70.2839 104.934 70.7168 104.928C71.1498 104.922 71.5724 105.06 71.9199 105.318H71.9209L91.7871 120.06L93.7109 121.488L93.373 119.116L89.9199 94.8999C89.859 94.4722 89.9408 94.0363 90.1523 93.6597C90.3641 93.2829 90.6946 92.9863 91.0918 92.8159L91.0957 92.814L113.79 82.9771L115.988 82.0239L113.766 81.1313L91.0908 72.0278C90.6903 71.8652 90.3545 71.5753 90.1338 71.2036C89.9127 70.8312 89.8196 70.3965 89.8691 69.9663L92.6982 45.3882L92.9717 43.0093L91.0879 44.4868Z" fill="white" stroke="#426587" stroke-width="2"/>
<path d="M50.4946 168.056C54.7084 161.421 70.6084 150.491 97.8493 139.106C132.964 124.43 144.274 99.8777 181.523 93.6704C220.5 87.175 249.433 99.6748 250.95 130.26C252.555 162.627 257.972 186.149 211.621 212.486C160.707 241.415 55.9205 247.709 44.6838 206.496C42.6104 195.975 40.6624 180.721 50.4946 168.056Z" fill="white"/>
<path d="M50.4946 168.056C54.7084 161.421 70.6084 150.491 97.8493 139.106C132.964 124.43 144.274 99.8777 181.523 93.6704C220.5 87.175 249.433 99.6748 250.95 130.26M50.4946 168.056C40.6624 180.721 42.6104 195.975 44.6838 206.496C55.9205 247.709 160.707 241.415 211.621 212.486C257.972 186.149 252.555 162.627 250.95 130.26M50.4946 168.056C42.2677 185.345 40.9835 217.431 120.925 208.264C220.851 196.804 250.95 152.977 250.95 130.26M200.786 173.685C186.571 174.122 173.29 177.371 160.707 181.525M61.932 193.107C64.0426 194.733 66.7555 196.308 70.1588 197.81C98.3515 210.25 127.029 192.644 160.707 181.525M61.932 193.107C58.989 188.509 57.1162 178.188 73.1687 173.685C93.2342 168.056 124.44 183.938 160.707 181.525M61.932 193.107C52.0847 185.523 55.3489 176.848 62.7772 169.463M62.7772 169.463C70.2055 162.078 75.9835 159.281 82.3988 156.194L106.678 144.936C142.997 125.435 156.647 99.4564 200.786 101.109C231.5 102.259 240.315 123.223 234.496 139.106C214.631 178.912 164.096 173.167 133.365 159.612C103.468 146.425 75.3759 160.215 62.7772 169.463Z" stroke="#426587" stroke-width="2" stroke-linecap="round"/>
<path d="M190.5 121.175C194.327 121.175 197.749 122.246 200.186 123.927C202.627 125.61 204 127.836 204 130.175C204 132.514 202.627 134.739 200.186 136.423C197.749 138.103 194.327 139.175 190.5 139.175C186.673 139.175 183.251 138.103 180.814 136.423C178.373 134.739 177 132.514 177 130.175C177 127.836 178.373 125.61 180.814 123.927C183.251 122.246 186.673 121.175 190.5 121.175Z" fill="white" stroke="#426587" stroke-width="2"/>
</g>
<defs>
<clipPath id="clip0_417_564">
<rect width="266" height="266" fill="white"/>
</clipPath>
</defs>
</svg>
