<svg width="1840" height="211" viewBox="0 0 1840 211" fill="none" xmlns="http://www.w3.org/2000/svg">
<g opacity="0.12">
<g clip-path="url(#clip0_137_1164)">
<path d="M34.6873 33L0.609375 42.4667C13.3886 82.0164 55.631 95.41 75.1548 97.1631V59.2963C53.8561 58.4549 39.302 41.4148 34.6873 33Z" fill="#AFC3CE"/>
<path d="M33.6209 175L-0.457031 165.533C12.3222 125.984 54.5646 112.59 74.0884 110.837V148.704C52.7897 149.545 38.2356 166.585 33.6209 175Z" fill="#AFC3CE"/>
<path d="M129.465 33L163.543 42.4667C150.764 82.0164 108.521 95.41 88.9975 97.1631V59.2963C110.296 58.4549 124.85 41.4148 129.465 33Z" fill="#AFC3CE"/>
<path d="M128.399 175L162.477 165.533C149.697 125.984 107.455 112.59 87.9311 110.837V148.704C109.23 149.545 123.784 166.585 128.399 175Z" fill="#AFC3CE"/>
<path d="M205.084 33L171.006 42.4667C183.786 82.0164 226.028 95.41 245.552 97.1631V59.2963C224.253 58.4549 209.699 41.4148 205.084 33Z" fill="#AFC3CE"/>
<path d="M204.018 175L169.94 165.533C182.719 125.984 224.962 112.59 244.485 110.837V148.704C223.187 149.545 208.633 166.585 204.018 175Z" fill="#AFC3CE"/>
<path d="M299.862 33L333.94 42.4667C321.161 82.0164 278.918 95.41 259.394 97.1631V59.2963C280.693 58.4549 295.247 41.4148 299.862 33Z" fill="#AFC3CE"/>
<path d="M298.796 175L332.874 165.533C320.094 125.984 277.852 112.59 258.328 110.837V148.704C279.627 149.545 294.181 166.585 298.796 175Z" fill="#AFC3CE"/>
<path d="M375.481 33L341.403 42.4667C354.183 82.0163 396.425 95.4099 415.949 97.163V59.2963C394.65 58.4548 380.096 41.4148 375.481 33Z" fill="#AFC3CE"/>
<path d="M374.415 175L340.337 165.533C353.116 125.984 395.358 112.59 414.882 110.837V148.704C393.584 149.545 379.029 166.585 374.415 175Z" fill="#AFC3CE"/>
<path d="M470.259 33L504.337 42.4667C491.558 82.0163 449.315 95.4099 429.792 97.163V59.2963C451.09 58.4548 465.644 41.4148 470.259 33Z" fill="#AFC3CE"/>
<path d="M469.193 175L503.271 165.533C490.491 125.984 448.249 112.59 428.725 110.837V148.704C450.024 149.545 464.578 166.585 469.193 175Z" fill="#AFC3CE"/>
<path d="M545.879 33L511.801 42.4667C524.58 82.0163 566.822 95.4099 586.346 97.163V59.2963C565.047 58.4548 550.493 41.4148 545.879 33Z" fill="#AFC3CE"/>
<path d="M544.812 175L510.734 165.533C523.514 125.984 565.756 112.59 585.28 110.837V148.704C563.981 149.545 549.427 166.585 544.812 175Z" fill="#AFC3CE"/>
</g>
<g clip-path="url(#clip1_137_1164)">
<path d="M1105.85 107.039C1105.85 126.352 1097.1 143.629 1083.35 155.147L1079 149.165L1075.53 144.423L1067.62 133.576C1074.77 126.973 1079.22 117.515 1079.22 107.064C1079.22 104.681 1079 102.348 1078.53 100.113L1091.31 95.968L1096.9 94.1558L1103.94 91.8721C1105.16 96.7375 1105.8 101.801 1105.8 107.039H1105.85Z" fill="white"/>
<path d="M1101.27 83.5307L1094.2 85.8145L1088.61 87.6266L1075.83 91.7722C1070.64 80.6512 1059.96 72.6084 1047.27 71.0941V44.4585C1071.8 46.1465 1092.45 61.835 1101.25 83.5556L1101.27 83.5307Z" fill="white"/>
<path d="M1071.92 154.328C1063.47 159.492 1053.55 162.47 1042.92 162.47C1012.24 162.47 987.362 137.647 987.362 107.039C987.362 76.432 1009.89 54.0412 1038.52 51.7822V71.0453C1020.52 73.2049 1006.57 88.4714 1006.57 107.015C1006.57 127.022 1022.84 143.257 1042.92 143.257C1049.32 143.257 1055.33 141.594 1060.57 138.689L1068.44 149.512L1071.92 154.279V154.328Z" fill="white"/>
<path d="M730.863 137.349L737.217 107.585L730.863 78.0453V54.8353H754.129V160.335H731.926L730.863 137.324V137.349ZM723.668 132.831C729.874 126.426 732.989 118.036 732.989 107.61C732.989 97.1843 729.874 88.7939 723.668 82.3895C717.462 75.985 709.277 72.7827 699.115 72.7827C688.953 72.7827 680.769 75.985 674.563 82.3895C668.357 88.7939 665.242 97.1843 665.242 107.61C665.242 118.036 668.332 126.426 674.563 132.831C680.769 139.235 688.953 142.438 699.115 142.438C709.277 142.438 717.437 139.235 723.668 132.831ZM719.736 60.5696C726.585 65.3605 731.728 71.7898 735.19 79.8823C738.651 87.9748 740.382 97.2091 740.382 107.635C740.382 118.061 738.651 127.395 735.19 135.71C731.728 144.026 726.585 150.555 719.736 155.346C712.887 160.137 704.407 162.52 694.245 162.52C684.082 162.52 675.033 160.236 667.071 155.669C659.11 151.101 652.929 144.672 648.552 136.356C644.176 128.04 642 118.483 642 107.66C642 96.8367 644.176 87.2549 648.552 78.9638C652.929 70.6727 659.085 64.2435 667.071 59.6511C675.033 55.0836 684.107 52.7998 694.245 52.7998C704.407 53.2218 712.887 55.8283 719.736 60.6192V60.5696Z" fill="white"/>
<path d="M859.063 132.831C865.269 126.426 868.384 118.036 868.384 107.61C868.384 97.1841 865.269 88.7938 859.063 82.3893C852.857 75.9848 844.673 72.7826 834.51 72.7826C824.348 72.7826 816.164 75.9848 809.958 82.3893C803.752 88.7938 800.637 97.1841 800.637 107.61C800.637 118.036 803.727 126.426 809.958 132.831C816.164 139.235 824.348 142.437 834.51 142.437C844.673 142.437 852.832 139.235 859.063 132.831ZM889.499 54.86V160.36C889.499 176.247 884.777 188.659 875.332 197.595C865.887 206.532 852.758 211 835.994 211C819.23 211 805.705 207.376 796.335 200.127C786.939 192.879 781.994 182.428 781.425 168.8H805.112C806.101 175.825 809.266 181.286 814.631 185.159C819.997 189.031 827.118 190.967 835.994 190.967C845.439 190.967 852.832 188.262 858.197 182.85C863.563 177.439 866.233 169.942 866.233 160.385V137.373L872.587 107.61L866.233 78.07L867.296 54.86H889.524H889.499ZM802.565 155.619C794.53 151.051 788.324 144.622 783.947 136.306C779.571 128.015 777.395 118.433 777.395 107.61C777.395 96.7869 779.571 87.2051 783.947 78.914C788.324 70.6229 794.53 64.1936 802.565 59.6013C810.601 55.0338 819.848 52.75 830.282 52.75C840.716 52.75 848.901 55.1579 855.675 59.924C862.45 64.7149 867.494 71.2187 870.807 79.4353C874.12 87.6519 875.777 97.06 875.777 107.61C875.777 118.16 874.12 127.543 870.807 135.785C867.494 144.001 862.45 150.53 855.675 155.296C848.901 160.087 840.444 162.47 830.282 162.47C820.12 162.47 810.601 160.186 802.565 155.619Z" fill="white"/>
<path d="M936.995 78.9144C939.888 71.0453 944.19 65.0628 949.902 60.9669C955.613 56.8959 962.981 54.8604 972.006 54.8604H980.462V74.8929H972.006C960.014 74.8929 951.385 77.4994 946.094 82.6875C940.803 87.9005 938.157 96.5391 938.157 108.653H931.803C932.371 96.688 934.102 86.7834 936.97 78.8895L936.995 78.9144ZM914.891 54.8604H938.157V160.36H914.891V54.8604Z" fill="white"/>
<path d="M1182.94 57.1933C1189.42 60.1473 1194.54 64.2184 1198.27 69.4313C1202 74.6443 1203.96 80.5523 1204.08 87.1553H1181.23C1180.54 82.2403 1178.19 78.4423 1174.26 75.7613C1170.31 73.1052 1165.73 71.7399 1160.51 71.7399C1155.3 71.7399 1151.32 72.9066 1148.15 75.2152C1144.99 77.5486 1143.38 80.5275 1143.38 84.1765C1143.38 87.4036 1144.44 89.9604 1146.54 91.7725C1148.67 93.6095 1152.11 94.9996 1156.9 95.9925L1172.78 99.1451C1184.62 101.553 1193.23 105.128 1198.59 109.919C1203.96 114.709 1206.63 121.164 1206.63 129.331C1206.63 135.934 1204.75 141.742 1201.01 146.732C1197.28 151.721 1192.09 155.594 1185.46 158.324C1178.84 161.08 1171.07 162.445 1162.2 162.445C1148.37 162.445 1137.54 159.392 1129.73 153.26C1121.89 147.154 1117.64 138.739 1116.92 128.04H1139.57C1140.41 132.955 1142.91 136.753 1147.09 139.434C1151.24 142.115 1156.51 143.455 1162.84 143.455C1169.17 143.455 1173.82 142.264 1177.55 139.856C1181.28 137.473 1183.16 134.37 1183.16 130.572C1183.16 127.196 1181.9 124.515 1179.35 122.554C1176.81 120.593 1172.65 119.029 1166.87 117.912L1151.22 114.958C1140.21 112.848 1132.25 109.397 1127.31 104.631C1122.36 99.865 1119.89 93.2371 1119.89 84.7971C1119.89 75.24 1123.62 67.4951 1131.09 61.5871C1138.56 55.6791 1148.45 52.7251 1160.71 52.7251C1169.04 52.7251 1176.44 54.1897 1182.92 57.1685L1182.94 57.1933Z" fill="white"/>
<path d="M1311.34 137.349L1317.69 107.585L1311.34 78.0453V54.8353H1334.6V160.335H1312.4L1311.34 137.324V137.349ZM1304.14 132.831C1310.35 126.426 1313.46 118.036 1313.46 107.61C1313.46 97.1843 1310.35 88.7939 1304.14 82.3895C1297.93 75.985 1289.75 72.7827 1279.59 72.7827C1269.43 72.7827 1261.24 75.985 1255.04 82.3895C1248.83 88.7939 1245.72 97.1843 1245.72 107.61C1245.72 118.036 1248.81 126.426 1255.04 132.831C1261.24 139.235 1269.43 142.438 1279.59 142.438C1289.75 142.438 1297.91 139.235 1304.14 132.831ZM1300.23 60.5696C1307.08 65.3605 1312.23 71.7898 1315.69 79.8823C1319.15 87.9748 1320.88 97.2091 1320.88 107.635C1320.88 118.061 1319.15 127.395 1315.69 135.71C1312.23 144.026 1307.08 150.555 1300.23 155.346C1293.39 160.137 1284.9 162.52 1274.74 162.52C1264.58 162.52 1255.53 160.236 1247.57 155.669C1239.61 151.101 1233.43 144.672 1229.05 136.356C1224.67 128.04 1222.5 118.483 1222.5 107.66C1222.5 96.8367 1224.67 87.2549 1229.05 78.9638C1233.43 70.6727 1239.58 64.2435 1247.57 59.6511C1255.53 55.0836 1264.61 52.7998 1274.74 52.7998C1284.9 53.2218 1293.39 55.8283 1300.23 60.6192V60.5696Z" fill="white"/>
<path d="M1388.55 0H1365.06V160.36H1388.55V0Z" fill="white"/>
<path d="M1507.85 99.3686L1499.17 106.543C1499.45 99.9395 1498.26 94.0564 1495.59 88.9179C1492.92 83.7794 1489.14 79.8077 1484.27 77.0026C1479.39 74.1975 1473.86 72.7826 1467.65 72.7826C1461.86 72.7826 1456.62 74.1479 1451.9 76.9033C1447.18 79.6587 1443.39 83.5064 1440.58 88.4959C1437.76 93.4854 1436.27 99.2197 1436.12 105.699V109.72C1436.27 116.323 1437.73 122.107 1440.58 127.022C1443.39 131.937 1447.18 135.735 1451.9 138.416C1456.62 141.097 1461.89 142.437 1467.65 142.437C1474 142.437 1479.49 141.147 1484.17 138.54C1488.81 135.934 1492.42 132.309 1494.95 127.667H1519.5C1515.84 138.515 1509.51 147.005 1500.56 153.186C1491.61 159.367 1480.63 162.47 1467.65 162.47C1457.07 162.47 1447.57 160.186 1439.19 155.619C1430.78 151.051 1424.28 144.622 1419.63 136.306C1414.98 128.015 1412.66 118.433 1412.66 107.61C1412.66 96.7869 1414.98 87.2051 1419.63 78.914C1424.28 70.6229 1430.81 64.1936 1439.19 59.6013C1447.57 55.0338 1457.07 52.75 1467.65 52.75C1478.23 52.75 1487.73 55.0338 1496.11 59.6013C1504.49 64.1688 1511.02 70.6229 1515.67 78.914C1520.31 87.2051 1522.64 96.7869 1522.64 107.61V112.897H1429.35V99.6168L1507.83 99.3934L1507.85 99.3686Z" fill="white"/>
<path d="M1533.77 40.0403C1532.73 40.8098 1531.47 41.207 1529.96 41.207C1528.72 41.207 1527.63 40.9587 1526.69 40.4623C1525.73 39.9658 1525.01 39.2459 1524.49 38.3523C1523.97 37.4586 1523.73 36.3912 1523.73 35.1997C1523.73 34.0081 1523.97 32.9656 1524.49 32.0471C1525.01 31.1534 1525.75 30.4336 1526.69 29.9371C1527.66 29.4406 1528.75 29.1924 1529.96 29.1924C1531.47 29.1924 1532.75 29.5896 1533.77 30.3591C1534.8 31.1286 1535.47 32.1712 1535.77 33.462H1533.64C1533.37 32.6925 1532.9 32.0967 1532.26 31.6499C1531.61 31.2031 1530.85 31.0045 1529.93 31.0045C1528.67 31.0045 1527.68 31.3769 1526.92 32.1712C1526.15 32.9407 1525.78 33.9585 1525.78 35.2245C1525.78 36.4905 1526.15 37.5083 1526.92 38.2778C1527.68 39.0473 1528.7 39.4445 1529.93 39.4445C1530.85 39.4445 1531.61 39.2211 1532.28 38.7991C1532.95 38.3771 1533.39 37.7565 1533.64 36.987H1535.77C1535.47 38.3026 1534.78 39.3204 1533.77 40.0899V40.0403Z" fill="white"/>
<path d="M1529.74 24.8982C1524.05 24.8982 1519.4 29.5154 1519.4 35.2C1519.4 40.8846 1524.02 45.5018 1529.74 45.5018C1535.45 45.5018 1540.07 40.8846 1540.07 35.2C1540.07 29.5154 1535.45 24.8982 1529.74 24.8982ZM1529.74 47.4132C1522.99 47.4132 1517.47 41.9272 1517.47 35.2C1517.47 28.4728 1522.99 22.9868 1529.74 22.9868C1536.49 22.9868 1542 28.4728 1542 35.2C1542 41.9272 1536.49 47.4132 1529.74 47.4132Z" fill="white"/>
</g>
<g clip-path="url(#clip2_137_1164)">
<path d="M1805.25 33L1839.33 42.4667C1826.55 82.0163 1784.31 95.4099 1764.79 97.163V59.2963C1786.08 58.4548 1800.64 41.4148 1805.25 33Z" fill="#AFC3CE"/>
<path d="M1806.32 175L1840.4 165.533C1827.62 125.984 1785.38 112.59 1765.85 110.837V148.704C1787.15 149.545 1801.7 166.585 1806.32 175Z" fill="#AFC3CE"/>
<path d="M1710.48 33L1676.4 42.4667C1689.18 82.0163 1731.42 95.4099 1750.94 97.163V59.2963C1729.64 58.4548 1715.09 41.4148 1710.48 33Z" fill="#AFC3CE"/>
<path d="M1711.54 175L1677.46 165.533C1690.24 125.984 1732.49 112.59 1752.01 110.837V148.704C1730.71 149.545 1716.16 166.585 1711.54 175Z" fill="#AFC3CE"/>
<path d="M1634.86 33L1668.93 42.4667C1656.15 82.0163 1613.91 95.4099 1594.39 97.163V59.2963C1615.69 58.4548 1630.24 41.4148 1634.86 33Z" fill="#AFC3CE"/>
<path d="M1635.92 175L1670 165.533C1657.22 125.984 1614.98 112.59 1595.45 110.837V148.704C1616.75 149.545 1631.31 166.585 1635.92 175Z" fill="#AFC3CE"/>
</g>
</g>
<defs>
<clipPath id="clip0_137_1164">
<rect width="596" height="145" fill="white" transform="translate(0 33)"/>
</clipPath>
<clipPath id="clip1_137_1164">
<rect width="900" height="211" fill="white" transform="translate(642)"/>
</clipPath>
<clipPath id="clip2_137_1164">
<rect width="252" height="145" fill="white" transform="matrix(-1 0 0 1 1840 33)"/>
</clipPath>
</defs>
</svg>
