<svg width="402" height="52" viewBox="0 0 402 52" fill="none" xmlns="http://www.w3.org/2000/svg">
<g clip-path="url(#clip0_322_773)">
<path d="M30.2826 6L20.3086 8.66665C24.0489 19.8073 36.4125 23.5801 42.1268 24.074V13.4074C35.893 13.1703 31.6333 8.37035 30.2826 6Z" fill="#395872"/>
<path d="M29.974 46L20 43.3334C23.7403 32.1927 36.1039 28.4199 41.8182 27.926V38.5926C35.5844 38.8297 31.3247 43.6296 29.974 46Z" fill="#395872"/>
<path d="M58.026 6L68 8.66665C64.2597 19.8073 51.8961 23.5801 46.1818 24.074V13.4074C52.4156 13.1703 56.6753 8.37035 58.026 6Z" fill="#395872"/>
<path d="M57.7174 46L67.6914 43.3334C63.9511 32.1927 51.5875 28.4199 45.8732 27.926V38.5926C52.107 38.8297 56.3667 43.6296 57.7174 46Z" fill="#395872"/>
<path d="M83.2826 6L73.3086 8.66665C77.0489 19.8073 89.4125 23.5801 95.1268 24.074V13.4074C88.893 13.1703 84.6333 8.37035 83.2826 6Z" fill="#395872"/>
<path d="M82.974 46L73 43.3334C76.7403 32.1927 89.1039 28.4199 94.8182 27.926V38.5926C88.5844 38.8297 84.3247 43.6296 82.974 46Z" fill="#395872"/>
<path d="M111.026 6L121 8.66665C117.26 19.8073 104.896 23.5801 99.1818 24.074V13.4074C105.416 13.1703 109.675 8.37035 111.026 6Z" fill="#395872"/>
<path d="M110.717 46L120.691 43.3334C116.951 32.1927 104.588 28.4199 98.8732 27.926V38.5926C105.107 38.8297 109.367 43.6296 110.717 46Z" fill="#395872"/>
<path d="M136.283 6L126.309 8.66665C130.049 19.8073 142.412 23.5801 148.127 24.074V13.4074C141.893 13.1703 137.633 8.37035 136.283 6Z" fill="#395872"/>
<path d="M135.974 46L126 43.3334C129.74 32.1927 142.104 28.4199 147.818 27.926V38.5926C141.584 38.8297 137.325 43.6296 135.974 46Z" fill="#395872"/>
</g>
<path d="M274.31 26.379C274.31 31.1385 272.153 35.3964 268.765 38.235L267.693 36.7606L266.84 35.5922L264.89 32.9188C266.651 31.2915 267.747 28.9606 267.747 26.3851C267.747 25.7978 267.693 25.2228 267.577 24.6722L270.727 23.6505L272.104 23.2039L273.841 22.6411C274.139 23.8402 274.298 25.0882 274.298 26.379H274.31Z" fill="#395872"/>
<path d="M273.182 20.5857L271.439 21.1485L270.062 21.5951L266.912 22.6168C265.632 19.8761 263 17.894 259.874 17.5208V10.9565C265.919 11.3725 271.007 15.2389 273.176 20.5918L273.182 20.5857Z" fill="#395872"/>
<path d="M265.952 38.0327C263.868 39.3052 261.424 40.0393 258.804 40.0393C251.242 40.0393 245.112 33.9217 245.112 26.3786C245.112 18.8356 250.663 13.3174 257.72 12.7607V17.508C253.284 18.0403 249.847 21.8026 249.847 26.3725C249.847 31.3033 253.856 35.3043 258.804 35.3043C260.382 35.3043 261.863 34.8944 263.155 34.1786L265.093 36.8459L265.952 38.0205V38.0327Z" fill="#395872"/>
<path d="M181.9 33.8489L183.466 26.5139L181.9 19.2339V13.5139H187.634V39.5139H182.162L181.9 33.8428V33.8489ZM180.127 32.7355C181.656 31.1572 182.424 29.0894 182.424 26.52C182.424 23.9506 181.656 21.8828 180.127 20.3044C178.597 18.7261 176.58 17.9369 174.076 17.9369C171.571 17.9369 169.555 18.7261 168.025 20.3044C166.496 21.8828 165.728 23.9506 165.728 26.52C165.728 29.0894 166.49 31.1572 168.025 32.7355C169.555 34.3139 171.571 35.103 174.076 35.103C176.58 35.103 178.591 34.3139 180.127 32.7355ZM179.158 14.927C180.846 16.1077 182.113 17.6922 182.966 19.6866C183.819 21.6809 184.246 23.9567 184.246 26.5261C184.246 29.0955 183.819 31.3957 182.966 33.4452C182.113 35.4946 180.846 37.1035 179.158 38.2842C177.47 39.4649 175.38 40.0522 172.875 40.0522C170.371 40.0522 168.141 39.4894 166.179 38.3637C164.217 37.2381 162.693 35.6536 161.615 33.6042C160.536 31.5548 160 29.1995 160 26.5322C160 23.8649 160.536 21.5035 161.615 19.4602C162.693 17.4169 164.211 15.8324 166.179 14.7007C168.141 13.575 170.377 13.0122 172.875 13.0122C175.38 13.1162 177.47 13.7586 179.158 14.9393V14.927Z" fill="#395872"/>
<path d="M213.491 32.7355C215.02 31.1572 215.788 29.0894 215.788 26.52C215.788 23.9506 215.02 21.8828 213.491 20.3045C211.961 18.7261 209.944 17.9369 207.44 17.9369C204.936 17.9369 202.919 18.7261 201.389 20.3045C199.86 21.8828 199.092 23.9506 199.092 26.52C199.092 29.0894 199.854 31.1572 201.389 32.7355C202.919 34.3139 204.936 35.1031 207.44 35.1031C209.944 35.1031 211.955 34.3139 213.491 32.7355ZM220.992 13.52V39.52C220.992 43.4353 219.828 46.4941 217.5 48.6965C215.173 50.8988 211.937 52 207.806 52C203.674 52 200.341 51.1068 198.032 49.3205C195.716 47.5341 194.498 44.9586 194.357 41.6H200.195C200.439 43.3313 201.219 44.6772 202.541 45.6315C203.863 46.5859 205.618 47.0631 207.806 47.0631C210.133 47.0631 211.955 46.3962 213.278 45.0626C214.6 43.7289 215.258 41.8814 215.258 39.5261V33.8551L216.824 26.52L215.258 19.24L215.52 13.52H220.998H220.992ZM199.567 38.3515C197.587 37.2259 196.058 35.6414 194.979 33.592C193.9 31.5487 193.364 29.1873 193.364 26.52C193.364 23.8527 193.9 21.4913 194.979 19.448C196.058 17.4047 197.587 15.8202 199.567 14.6885C201.548 13.5628 203.827 13 206.398 13C208.97 13 210.986 13.5934 212.656 14.768C214.326 15.9487 215.569 17.5515 216.385 19.5765C217.202 21.6014 217.61 23.92 217.61 26.52C217.61 29.12 217.202 31.4325 216.385 33.4635C215.569 35.4885 214.326 37.0974 212.656 38.272C210.986 39.4527 208.903 40.04 206.398 40.04C203.894 40.04 201.548 39.4772 199.567 38.3515Z" fill="#395872"/>
<path d="M232.7 19.448C233.413 17.5087 234.474 16.0344 235.881 15.025C237.289 14.0217 239.105 13.52 241.329 13.52H243.413V18.457H241.329C238.373 18.457 236.247 19.0993 234.943 20.3779C233.639 21.6626 232.987 23.7915 232.987 26.777H231.421C231.561 23.8283 231.988 21.3873 232.694 19.4419L232.7 19.448ZM227.253 13.52H232.987V39.52H227.253V13.52Z" fill="#395872"/>
<path d="M293.31 14.0948C294.906 14.8228 296.167 15.8261 297.087 17.1108C298.008 18.3955 298.489 19.8515 298.519 21.4788H292.889C292.718 20.2675 292.14 19.3315 291.171 18.6708C290.196 18.0162 289.068 17.6798 287.783 17.6798C286.497 17.6798 285.516 17.9673 284.736 18.5362C283.956 19.1113 283.56 19.8454 283.56 20.7447C283.56 21.54 283.822 22.1701 284.34 22.6167C284.864 23.0694 285.711 23.412 286.893 23.6567L290.805 24.4337C293.724 25.0271 295.844 25.908 297.167 27.0887C298.489 28.2694 299.147 29.86 299.147 31.8727C299.147 33.5 298.684 34.9315 297.764 36.1612C296.844 37.3908 295.564 38.3452 293.931 39.0181C292.298 39.6972 290.385 40.0337 288.197 40.0337C284.791 40.0337 282.122 39.2812 280.196 37.7701C278.265 36.2652 277.217 34.1913 277.04 31.5546H282.622C282.829 32.7659 283.444 33.7019 284.474 34.3626C285.498 35.0233 286.796 35.3537 288.356 35.3537C289.915 35.3537 291.061 35.06 291.981 34.4666C292.901 33.8793 293.364 33.1146 293.364 32.1786C293.364 31.3466 293.054 30.6859 292.426 30.2026C291.798 29.7193 290.775 29.3339 289.349 29.0586L285.492 28.3306C282.78 27.8106 280.818 26.9602 279.599 25.7857C278.381 24.6111 277.771 22.9777 277.771 20.8977C277.771 18.5424 278.691 16.6337 280.532 15.1777C282.372 13.7217 284.809 12.9937 287.832 12.9937C289.885 12.9937 291.707 13.3546 293.303 14.0887L293.31 14.0948Z" fill="#395872"/>
<path d="M324.952 33.8489L326.518 26.5139L324.952 19.2339V13.5139H330.686V39.5139H325.214L324.952 33.8428V33.8489ZM323.179 32.7355C324.709 31.1572 325.476 29.0894 325.476 26.52C325.476 23.9506 324.709 21.8828 323.179 20.3044C321.65 18.7261 319.633 17.9369 317.128 17.9369C314.624 17.9369 312.607 18.7261 311.078 20.3044C309.548 21.8828 308.78 23.9506 308.78 26.52C308.78 29.0894 309.542 31.1572 311.078 32.7355C312.607 34.3139 314.624 35.103 317.128 35.103C319.633 35.103 321.644 34.3139 323.179 32.7355ZM322.216 14.927C323.904 16.1077 325.172 17.6922 326.025 19.6866C326.878 21.6809 327.304 23.9567 327.304 26.5261C327.304 29.0955 326.878 31.3957 326.025 33.4452C325.172 35.4946 323.904 37.1035 322.216 38.2842C320.528 39.4649 318.438 40.0522 315.934 40.0522C313.43 40.0522 311.199 39.4894 309.237 38.3637C307.275 37.2381 305.752 35.6536 304.673 33.6042C303.595 31.5548 303.059 29.1995 303.059 26.5322C303.059 23.8649 303.595 21.5035 304.673 19.4602C305.752 17.4169 307.269 15.8324 309.237 14.7007C311.199 13.575 313.436 13.0122 315.934 13.0122C318.438 13.1162 320.528 13.7586 322.216 14.9393V14.927Z" fill="#395872"/>
<path d="M343.984 0H338.195V39.52H343.984V0Z" fill="#395872"/>
<path d="M373.385 24.4889L371.246 26.2569C371.313 24.6296 371.02 23.1798 370.362 21.9134C369.704 20.6471 368.772 19.6682 367.571 18.9769C366.371 18.2856 365.006 17.9369 363.477 17.9369C362.051 17.9369 360.759 18.2734 359.595 18.9525C358.431 19.6315 357.499 20.5798 356.804 21.8094C356.11 23.0391 355.744 24.4522 355.707 26.0489V27.04C355.744 28.6673 356.104 30.0927 356.804 31.304C357.499 32.5153 358.431 33.4513 359.595 34.112C360.759 34.7727 362.057 35.1031 363.477 35.1031C365.043 35.1031 366.395 34.7849 367.547 34.1426C368.693 33.5002 369.582 32.6071 370.204 31.4631H376.255C375.353 34.1365 373.793 36.2287 371.587 37.752C369.381 39.2753 366.676 40.04 363.477 40.04C360.869 40.04 358.529 39.4772 356.463 38.3515C354.391 37.2259 352.789 35.6414 351.643 33.592C350.498 31.5487 349.925 29.1873 349.925 26.52C349.925 23.8527 350.498 21.4913 351.643 19.448C352.789 17.4047 354.397 15.8202 356.463 14.6885C358.529 13.5628 360.869 13 363.477 13C366.085 13 368.424 13.5628 370.49 14.6885C372.556 15.8141 374.164 17.4047 375.31 19.448C376.456 21.4913 377.028 23.8527 377.028 26.52V27.8231H354.038V24.5501L373.378 24.4951L373.385 24.4889Z" fill="#395872"/>
<path d="M379.769 9.86775C379.513 10.0574 379.202 10.1553 378.83 10.1553C378.526 10.1553 378.258 10.0941 378.026 9.97175C377.788 9.84939 377.612 9.67198 377.484 9.45175C377.356 9.23151 377.295 8.96845 377.295 8.67481C377.295 8.38116 377.356 8.12422 377.484 7.89787C377.612 7.67763 377.795 7.50022 378.026 7.37787C378.264 7.25551 378.532 7.19434 378.83 7.19434C379.202 7.19434 379.519 7.29222 379.769 7.48186C380.025 7.67151 380.189 7.92845 380.262 8.24657H379.738C379.671 8.05692 379.556 7.9101 379.397 7.79998C379.239 7.68987 379.05 7.64092 378.824 7.64092C378.514 7.64092 378.27 7.73269 378.081 7.92845C377.892 8.1181 377.801 8.36892 377.801 8.68092C377.801 8.99292 377.892 9.24375 378.081 9.43339C378.27 9.62304 378.52 9.72092 378.824 9.72092C379.05 9.72092 379.239 9.66587 379.403 9.56187C379.568 9.45787 379.677 9.30492 379.738 9.11528H380.262C380.189 9.43951 380.019 9.69034 379.769 9.87998V9.86775Z" fill="#395872"/>
<path d="M378.777 6.13561C377.376 6.13561 376.23 7.27349 376.23 8.67443C376.23 10.0754 377.37 11.2133 378.777 11.2133C380.185 11.2133 381.324 10.0754 381.324 8.67443C381.324 7.27349 380.185 6.13561 378.777 6.13561ZM378.777 11.6843C377.114 11.6843 375.755 10.3323 375.755 8.67443C375.755 7.01655 377.114 5.66455 378.777 5.66455C380.441 5.66455 381.8 7.01655 381.8 8.67443C381.8 10.3323 380.441 11.6843 378.777 11.6843Z" fill="#395872"/>
<defs>
<clipPath id="clip0_322_773">
<rect width="128" height="40" fill="white" transform="translate(20 6)"/>
</clipPath>
</defs>
</svg>
