<svg width="222" height="222" viewBox="0 0 222 222" fill="none" xmlns="http://www.w3.org/2000/svg">
<g clip-path="url(#clip0_314_428)">
<path d="M33 128.71V195.311L115.76 220.859M33 128.71L112.048 106L133.557 112.41M33 128.71L55.2226 135.042M115.76 220.859V152.293M115.76 220.859L188.257 192.69V128.71M115.76 152.293L188.257 128.71M115.76 152.293L83.6604 143.146M188.257 128.71L155.065 118.819M83.6604 143.146V166.487L58.9853 158.189V136.115L133.557 112.41M83.6604 143.146L155.065 118.819M155.065 118.819L133.557 112.41M81.04 182.209L103.968 188.353M81.6951 188.978L103.968 194.946M86.7175 197.276L103.968 201.898" stroke="#426587" stroke-width="2" stroke-linecap="round"/>
<path d="M141.746 151.42L122.094 157.971V172.383L141.746 165.177V151.42Z" stroke="#426587" stroke-width="2" stroke-linecap="round"/>
<circle cx="183" cy="28" r="7" stroke="#426587" stroke-width="2"/>
<circle cx="38" cy="49" r="7" stroke="#426587" stroke-width="2"/>
<circle cx="114" cy="37" r="7" stroke="#426587" stroke-width="2"/>
<path d="M110 102C108.5 88.3804 113.457 79.3364 45 52" stroke="#426587" stroke-width="2" stroke-linecap="round"/>
<path d="M114 102V44" stroke="#426587" stroke-width="2" stroke-linecap="round"/>
<path d="M118 102C119.512 82.6044 115.782 68.8533 177.434 32.5" stroke="#426587" stroke-width="2" stroke-linecap="round"/>
<path d="M-28.3489 21.299C-30.0905 19.0286 -29.3149 15.4942 -28.7094 14.0108C-29.1243 13.2712 -30.6114 9.5361 -33.2414 0.512539C-36.5288 -10.7669 -33.4911 -7.93159 -29.8805 -11.765C-26.2699 -15.5985 -31.1963 -14.6055 -31.1393 -17.2724C-31.0822 -19.9394 -30.6614 -19.4962 -26.0446 -22.0883C-21.4278 -24.6803 -24.0669 -22.0054 -21.0036 -28.4151C-17.9404 -34.8248 -20.048 -32.8627 -21.8198 -38.5465C-23.5917 -44.2303 -16.1365 -46.7418 -13.6684 -41.416C-11.2003 -36.0902 -8.48862 -38.1425 -6.71011 -40.815C-4.93161 -43.4875 -1.59974 -42.3417 0.396969 -43.1478C2.39368 -43.9539 7.76041 -45.3926 7.44707 -42.8138C7.13373 -40.2349 -1.25166 -42.5205 1.30813 -37.4614C3.86792 -32.4023 3.70991 -41.1132 8.41521 -39.7942C13.1205 -38.4752 11.6712 -35.0928 14.3641 -36.2567C16.5184 -37.1878 17.8606 -34.7562 18.2624 -33.424C25.9516 -30.7807 17.9681 -31.7341 26.3692 -26.1595C34.7703 -20.5848 22.0624 -21.9683 33.7955 -15.2483C40.3052 -11.5199 43.022 -7.47781 43.9348 -4.56911C44.5443 -2.62678 44.9049 -0.517882 45.0036 1.51545C45.2567 6.73197 37.6746 4.69754 35.9941 6.70174C34.0512 9.01892 37.2566 8.03126 42.8574 11.7477C48.4581 15.4641 43.3195 6.23486 50.7144 10.5681C58.1093 14.9013 49.8662 18.0377 53.5462 19.0043C57.2263 19.9709 55.1601 15.977 60.03 17.6511C64.8998 19.3252 60.2103 21.2952 65.52 22.5234C70.8296 23.7517 70.3486 30.1533 74.2122 30.586C78.0758 31.0186 78.0312 41.1526 70.7786 42.2415C63.5259 43.3304 66.0477 50.1675 62.991 48.2212C59.9343 46.2749 59.95 49.5639 58.0451 50.103C56.1402 50.6422 59.5417 56.5877 56.757 58.0185C55.4031 58.7142 54.5073 60.5818 53.9646 62.3923C53.3648 64.3932 52.7972 66.4487 51.59 68.1535C46.681 75.0858 48.6475 66.0443 42.4634 70.4184C35.6473 75.2395 25.8159 72.1582 27.9738 75.8851C30.1318 79.6121 30.3826 84.0437 26.5 84.5C22.6174 84.9563 25.851 92.7564 22.5 92.5C19.149 92.2436 21.5 88.3637 20.5 87C19.9146 86.2017 16.5947 84.8093 16.4078 89.5212C16.221 94.2331 10.0473 97.1855 6.75335 94.262C4.11817 91.9233 2.48265 91.4009 1.99429 91.432C-0.572068 94.7289 10.3036 97.2736 5.81332 101.999C3.26217 104.683 -0.736862 104.571 -3.8372 103.796C-5.58494 103.359 -7.36005 104.369 -8.70927 105.563C-9.98027 106.688 -11.3567 106.149 -12.3373 105.61C-13.7834 104.814 -15.2675 105.797 -13.3848 110.324C-11.5022 114.852 -16.9417 115.669 -18.7929 117.719C-20.6441 119.769 -18.3373 120.562 -15.9578 121.977C-13.5783 123.392 -15.2459 124.909 -16.9673 124.914C-18.3444 124.918 -18.9588 126.816 -19.0938 127.765C-22.7581 130.087 -20.7077 130.792 -20.3249 133.013C-19.942 135.235 -22.3943 133.198 -22.0115 135.419C-21.7053 137.196 -20.0043 136.805 -19.1921 136.388C-16.6291 137.269 -18.7176 138.342 -15.1135 142.865C-11.5095 147.387 -14.5852 146.33 -18.4298 145.008C-22.2744 143.687 -20.3124 140.48 -21.594 140.04C-22.8755 139.599 -23.9925 139.514 -24.3563 136.404C-24.7201 133.294 -29.628 133.397 -28.821 131.884C-28.0141 130.37 -30.134 124.865 -32.6053 123.717C-35.0766 122.569 -31.8331 119.803 -34.0481 118.744C-36.2631 117.684 -38.6774 113.869 -34.4847 115.011C-30.292 116.154 -30.8393 113.578 -30.8931 112.067C-30.9468 110.556 -30.9278 109.667 -29.8266 106.463C-28.7253 103.26 -31.3074 103.268 -32.8452 102.739C-34.0755 102.316 -33.2459 100.014 -32.6774 98.916C-32.3608 92.1592 -33.443 94.4737 -31.114 90.1997C-28.7849 85.9257 -29.152 86.9935 -29.6803 83.5283C-30.2087 80.0631 -25.4811 76.3151 -26.9809 74.0085C-27.8028 72.7445 -27.3423 70.9316 -26.676 69.5044C-26.1556 68.3898 -25.7514 67.2063 -25.6122 65.9841C-24.6624 57.6473 -18.4222 52.8257 -19.3067 49.1837C-20.2559 45.2753 -17.2497 41.5326 -17.0091 38.3317C-16.7685 35.1308 -26.5239 28.4936 -26.9257 27.1614C-27.3276 25.8292 -26.172 24.1369 -28.3489 21.299Z" stroke="#426587" stroke-width="2" stroke-linecap="round"/>
<path d="M226 76C212.939 74.9743 216.957 65.4191 213.5 62C210.043 58.5809 217.016 53.0955 214.374 53.0955C211.731 53.0955 213.845 50.4563 210.675 49.1367C207.504 47.8171 206.711 48.345 207.24 43.5944C207.768 38.8439 187.159 41.4831 182.139 41.2191C178.123 41.008 179.233 43.5944 180.29 44.914C175.534 49.1367 179.233 48.345 180.29 53.0955C181.347 57.846 176.326 53.6233 170.778 53.0955C165.229 52.5677 170.249 48.345 162.323 49.1367C154.396 49.9285 158.36 45.1779 150.169 39.6356C143.616 35.2018 139.865 40.4274 138.808 43.5944C134.156 43.1722 134.227 46.5855 134.844 48.345C135.901 62.3327 134.58 61.0131 129.298 57.0543C126.694 55.1026 125.128 55.6833 124.063 56.9106C122.767 58.4035 122.613 60.5415 122.735 62.5149C123.007 66.9328 122.63 67.113 119.523 68C115.826 69.0557 119.52 78.1678 114.5 78.9596C109.48 79.7514 110.01 68.6667 105.252 67.0832C100.494 65.4997 96.5329 56.7904 92.0413 55.4708C87.5496 54.1512 88.8707 52.8316 89.1349 48.345C89.3991 43.8583 84.3809 41.2191 84.0237 37.7882C83.6666 34.3572 87.4164 38.0521 90.0948 35.4129C92.7732 32.7737 93.3089 35.6768 95.6308 35.4129C97.7284 35.1745 98.0149 31.3746 100.022 30.7213C102.425 29.9394 104.024 28.7716 104.024 26.7036C104.024 23.5366 99.0228 21.4252 99.0228 18.786C99.0228 16.1468 97.5943 17.7303 97.2372 13.5076C96.8801 9.28492 98.4871 10.8684 99.0228 7.43749C99.5585 4.00654 95.9879 3.21478 95.6308 0.575592C95.3451 -1.53576 105.165 -3.82306 107.896 -4.70279C107.05 -8.50323 110.714 -11.7406 112.652 -12.8843C110.01 -16.5792 109.746 -18.9544 110.01 -21.0658C110.274 -23.1771 112.916 -21.8575 116.351 -27.1359C119.099 -31.3586 126.127 -31.1827 129.298 -30.5669C126.55 -33.945 128.153 -35.1415 129.298 -35.3174C142.192 -33.6283 144.887 -34.6136 144.622 -35.3174C146.228 -40.0288 149.128 -43.8557 152.175 -46.7644C156.7 -51.0852 162.873 -48.2332 161.519 -42.1244C160.43 -37.2128 158.439 -32.4535 157.567 -30.5669C155.982 -27.1359 159.681 -26.0802 162.323 -29.2473C164.965 -32.4143 165.758 -27.3998 168.136 -24.7606C170.514 -22.1215 172.892 -28.9834 178.704 -29.2473C184.517 -29.5112 182.139 -27.9277 185.574 -26.0802C189.009 -24.2328 190.33 -26.0802 196.143 -26.872C201.955 -27.6638 202.22 -25.5524 207.504 -22.3854C212.788 -19.2183 211.996 -20.8019 215.166 -24.2328C218.337 -27.6638 222.036 -18.4266 225.207 -14.2039C228.377 -9.98117 226.263 -16.5792 226.792 -20.8019C227.32 -25.0246 231.812 -25.8163 233.661 -30.039C235.141 -33.4172 238.329 -33.9098 239.738 -33.7339L240.5 82.5C239.86 79.9926 236.449 76.8206 226 76ZM226 76C225.108 74.6667 222.06 74.1 217 82.5C210.675 93 209.76 83 208.5 88.5C207.24 94 213.5 89 213.5 94.5C213.5 100 219 95.5 219 99C219 102.5 216 104.5 219 108C222 111.5 222 111 225 111.5" stroke="#426587" stroke-width="2" stroke-linecap="round"/>
</g>
<defs>
<clipPath id="clip0_314_428">
<rect width="222" height="222" fill="white"/>
</clipPath>
</defs>
</svg>
