<svg width="192" height="192" viewBox="0 0 192 192" fill="none" xmlns="http://www.w3.org/2000/svg">
<g clip-path="url(#clip0_321_80)">
<path d="M93.7357 31.5409C128.954 30.7723 158.132 58.692 158.915 93.9103C159.697 129.129 131.79 158.317 96.5716 159.114C61.3333 159.912 32.1242 131.985 31.3408 96.7462C30.5575 61.5076 58.4967 32.3098 93.7357 31.5409Z" fill="#FDFCFD"/>
<path d="M46.2427 60.9932L46.3872 61.2229C46.0646 61.8152 45.6445 62.3587 45.7329 62.9552L45.9593 63.1378C46.3346 62.8883 46.5791 62.287 46.8054 61.8589C46.9625 62.0481 46.955 62.0321 46.9899 62.2755C40.3804 73.2603 37.6624 82.1502 37.247 95.0282L37.3864 95.0782C40.34 96.1565 45.0492 99.7277 46.2946 94.3926C47.5205 89.1417 48.8774 84.237 50.7718 79.1783L50.6876 80.4593C50.9378 80.3692 50.9586 80.0401 51.2304 79.6844C50.9852 81.6759 50.9239 83.3898 50.804 85.3836C50.2527 87.1039 50.9137 87.8389 52.5883 88.2745C55.0391 88.912 57.7386 88.5823 60.185 89.2603C62.156 89.8171 63.9869 91.4177 65.6161 92.3688C68.9501 94.3152 76.1981 94.3644 79.9751 93.8092C79.8134 92.0585 81.4137 91.3253 82.2733 90.1808C82.5359 89.8314 82.1435 88.8009 82.6535 88.0625C83.0113 87.823 83.3645 87.9233 83.8207 87.9633C84.6379 87.5695 83.8268 87.172 84.347 86.4349C85.7123 86.4357 90.6233 85.2359 92.1858 84.8834L92.3502 85.0455C92.4569 85.7716 91.862 86.5809 91.4826 87.1915C94.4617 87.3949 93.881 88.1936 96.278 89.5389C96.5423 89.6871 96.6838 89.5494 96.8907 89.437C97.1723 88.93 97.0888 88.359 97.0804 87.7535C97.9365 87.8971 102.333 89.0521 102.794 88.9094C103.035 88.2313 102.976 88.2521 103.63 88.2665C104.233 87.8491 103.803 86.5625 103.951 85.9354C104.008 85.697 104.376 85.0352 104.51 84.7917C102.954 85.5055 99.6853 86.0606 100.02 83.0525C100.109 82.262 101.192 81.8579 101.905 81.5273C104.363 82.1569 104.544 82.6293 107.1 81.9726L106.614 80.0525C105.336 80.0428 105.254 80.0164 104.165 79.3385C103.445 79.3564 102.824 79.4736 102.273 79.0547C101.978 78.4645 102.065 78.5779 102.155 77.8234C101.663 77.7148 100.774 78.2596 100.279 78.5093C99.9941 79.1776 99.7236 79.812 99.4713 80.4932C99.617 81.103 99.5803 80.9306 100.05 81.4295L99.977 81.5846C99.3011 81.9008 98.4363 82.0101 97.6811 82.1689C97.7937 82.7202 98.2138 84.2273 97.7964 84.5829C96.834 83.8407 94.7532 79.3528 92.8882 79.4767C92.6365 79.7927 92.7285 79.7339 92.7866 80.2918L92.4718 80.4637C92.2753 80.4019 92.2624 80.3887 92.0658 80.4602C90.9017 80.8838 89.6825 80.977 88.4523 81.0109C87.8037 82.3234 86.9722 84.4843 86.0769 85.4496C85.3445 85.6715 83.7189 85.9218 82.9958 85.6196C82.1788 84.6894 82.9473 83.1331 82.3997 81.1772L82.3485 80.9982C83.7687 80.9842 84.6162 80.93 86.0274 80.7572C85.6448 79.0132 85.4013 78.6366 84.4535 77.1812C86.7989 76.269 87.7784 74.932 89.2846 73.0231C89.9367 74.2865 94.8721 72.3926 96.0772 71.9782C96.3783 71.5087 96.3901 70.8045 96.4542 70.2198C103.833 72.9383 112.135 78.807 117.876 84.1289C119.597 85.7239 121.659 88.0087 123.292 89.7578C123.878 90.3861 127.003 93.5821 127.307 94.0491L127.541 93.913C127.742 94.1049 128.657 95.0546 128.758 95.1321C129.821 94.3517 131.271 93.5503 132.424 92.913C132.828 93.489 134.817 96.268 135.001 96.7029C137.901 93.5956 138.821 92.1121 139.381 88.057C139.718 89.0173 139.954 90.3267 141.128 90.3927C141.954 89.9933 141.86 89.1412 142.392 88.3993L142.595 88.4083C142.697 88.75 142.811 89.0885 142.933 89.4234C143.189 90.1021 143.837 91.3227 144.7 90.9333C145.687 89.3859 143.98 84.2794 143.602 82.1162C141.989 81.7509 138.599 81.7123 136.841 81.6543C139.306 79.434 139.711 78.4527 142.816 76.766C142.641 76.3486 142.115 74.9214 142.064 74.5489C141.877 73.1745 139.328 67.0565 139.511 66.2247C142.143 72.0184 144.307 78.014 145.98 84.1536C146.853 87.326 147.219 90.8973 148.588 93.8638C149.606 96.0666 151.978 96.1911 154.008 95.8447C152.098 96.8784 151.473 97.0449 149.201 96.9013C147.763 95.9921 147.628 95.6323 147.26 93.9848C147.211 93.7626 147.164 93.5396 147.12 93.3161C145.84 94.0808 142.469 95.5227 140.844 96.3134C139.72 96.7964 138.509 97.5001 137.665 98.3988C136.247 99.7275 134.69 100.938 133.363 102.192C133.395 103.275 133.621 106.093 133.354 106.987C132.136 111.061 126.307 111.439 123.318 109.405C123.311 111.002 123.211 111.708 122.666 113.207C121.476 116.485 117.509 118.353 114.183 117.16C114.176 117.517 114.187 118.246 114.122 118.586C113.409 122.292 109.451 124.102 106.029 123.183C105.325 123.81 104.192 124.784 103.37 125.23C100.354 126.541 99.5481 125.846 97.0669 124.043C96.6948 124.245 96.3302 124.498 95.9746 124.732C95.8066 124.819 95.6376 124.904 95.468 124.988C90.6159 127.377 88.1315 125.454 86.0277 121.09C84.224 121.456 82.9197 121.422 81.1321 121.174C79.5713 120.017 79.1867 118.67 78.7792 116.837C75.3204 116.9 73.3814 116.898 71.0158 114.055C70.1036 112.748 70.1416 110.39 70.1296 108.838C67.5175 109.301 63.502 109.515 61.4184 107.514C60.1644 106.31 60.2215 104.821 60.2172 103.214C60.0597 103.738 60.1622 104.094 59.908 104.854C59.434 104.697 58.277 103.013 57.6271 102.777C56.5018 103.206 53.789 102.269 52.5553 101.998C51.7096 102.546 51.0519 103.365 50.3759 104.119C48.9782 103.435 48.7727 103.516 47.2348 103.531C47.1002 102.655 47.162 101.981 47.1197 101.179C47.0123 99.1501 45.7146 99.9802 44.6487 99.1827C44.3305 98.9447 44.3854 98.3795 44.3655 97.9585C40.9054 98.9271 40.3759 97.4845 37.2279 96.7603L35.7098 96.823C35.397 84.0735 39.08 71.5453 46.2427 60.9932Z" fill="#232222"/>
<path d="M96.4553 70.2197C103.835 72.9382 112.136 78.8069 117.877 84.1288C119.598 85.7238 121.66 88.0086 123.293 89.7577C123.879 90.386 127.004 93.582 127.308 94.0491C127.555 94.3394 128.459 95.3299 128.576 95.5611C126.917 96.9442 128.21 100.814 124.989 101.308L124.616 100.989C124.429 101.016 124.241 101.033 124.052 101.041C121.519 101.145 121.146 100.753 121.142 98.2716L117.62 98.2829C117.01 97.3259 116.375 96.3844 115.716 95.4594C114.808 94.3122 114.202 93.3179 113.446 92.0685L112.793 91.0031C111.303 88.9771 111.665 86.7384 110.768 85.0142L110.655 85.0227C110.235 85.9388 111.007 90.4116 111.45 91.5369C112.223 93.4993 113.546 95.1466 114.381 97.0039C116.004 99.7067 117.661 102.394 119.27 105.106C120.66 107.449 121.792 109.168 121.364 111.992C118.449 115.539 113.233 111.719 110.601 109.506C109.925 108.946 109.278 108.351 108.664 107.723C107.209 106.062 106.316 104.409 105.815 102.241C105.759 103.16 105.638 104.546 105.644 105.428C106.486 106.51 107.56 107.878 108.275 109.023C106.275 110.333 108.457 114.617 108.208 116.188C108.055 117.148 106.315 118.323 105.909 119.63C104.787 119.034 99.8155 112.443 99.2585 111.163C99.2911 110.802 99.3944 110.216 99.256 109.914C99.229 109.949 98.7347 111.547 98.7519 111.612C99.2688 113.568 103.968 117.57 101.748 119.546C99.8564 121.229 98.9314 117.054 98.7027 116.128C98.5226 118.676 97.933 121.384 96.2728 123.412C95.2719 122.215 94.9 120.695 94.3995 119.254C93.9394 117.928 94.5854 116.446 93.4363 115.636C93.623 115.31 94.4163 114.237 94.6991 113.782C96.2461 111.292 96.4285 109.839 96.8172 107.057C95.8922 108.62 95.3033 110.295 94.6926 111.999L94.2165 111.724C93.8936 111.259 93.907 110.776 93.8442 110.197C93.4741 109.849 92.9999 109.478 92.6026 109.15C92.3315 107.803 92.3174 106.46 92.2662 105.091C90.4699 104.988 90.2631 105.098 88.782 104.062C91.5468 101.273 93.2376 101.002 96.719 102.531C94.4546 100.372 93.1311 100.124 90.0201 101.027C89.7113 99.0706 88.8575 96.1173 87.2972 94.8446C85.1781 93.1162 82.4477 93.5688 79.9762 93.8092C79.8145 92.0584 81.4149 91.3252 82.2744 90.1808C82.537 89.8313 82.1446 88.8008 82.6547 88.0624C83.0124 87.8229 83.3656 87.9233 83.8218 87.9633C84.639 87.5694 83.828 87.1719 84.3481 86.4349C85.7135 86.4357 90.6244 85.2359 92.187 84.8833L92.3514 85.0454C92.4581 85.7715 91.8632 86.5809 91.4837 87.1914C94.4629 87.3948 93.8822 88.1936 96.2792 89.5389C96.5435 89.6871 96.6849 89.5493 96.8918 89.437C97.1734 88.9299 97.09 88.359 97.0816 87.7535C97.9377 87.897 102.335 89.052 102.795 88.9093C103.036 88.2312 102.977 88.252 103.631 88.2664C104.234 87.849 103.804 86.5624 103.952 85.9354C104.009 85.697 104.377 85.0351 104.511 84.7916C102.955 85.5055 99.6865 86.0605 100.022 83.0525C100.11 82.2619 101.193 81.8578 101.906 81.5272C104.364 82.1569 104.545 82.6293 107.101 81.9725L106.615 80.0524C105.337 80.0428 105.255 80.0164 104.167 79.3384C103.446 79.3563 102.825 79.4736 102.274 79.0547C101.979 78.4644 102.066 78.5779 102.156 77.8233C101.664 77.7147 100.775 78.2596 100.28 78.5093C99.9953 79.1776 99.7247 79.8119 99.4724 80.4932C99.6182 81.1029 99.5815 80.9305 100.051 81.4294L99.9781 81.5845C99.3022 81.9007 98.4375 82.01 97.6823 82.1688C97.7949 82.7201 98.215 84.2273 97.7976 84.5828C96.8352 83.8407 94.7544 79.3527 92.8894 79.4766C92.6376 79.7927 92.7296 79.7338 92.7878 80.2918L92.4729 80.4636C92.2765 80.4019 92.2635 80.3887 92.0669 80.4602C90.9029 80.8838 89.6836 80.977 88.4534 81.0108C87.8049 82.3234 86.9734 84.4842 86.0781 85.4495C85.3457 85.6714 83.7201 85.9218 82.9969 85.6196C82.18 84.6893 82.9485 83.133 82.4009 81.1772L82.3496 80.9982C83.7699 80.9841 84.6173 80.93 86.0286 80.7571C85.646 79.0131 85.4025 78.6366 84.4547 77.1812C86.8 76.2689 87.7796 74.9319 89.2858 73.0231C89.9378 74.2864 94.8733 72.3925 96.0784 71.9782C96.3794 71.5086 96.3913 70.8045 96.4553 70.2197Z" fill="#E3E3E3"/>
<path d="M109.498 101.814C108.249 100.353 107.697 98.5558 106.721 96.9479C106.169 96.0955 105.407 95.3781 104.864 94.5196C104.503 93.8345 104.321 93.026 104.074 92.2789C103.826 91.5315 102.974 90.2607 103.128 89.5521L103.353 89.5029C104.131 90.3104 104.813 91.2585 105.701 92.001C105.949 92.2081 105.697 92.7828 105.728 93.0264C105.909 94.4206 107.433 95.5345 108.308 96.5767C108.424 98.1689 108.854 98.6671 109.79 99.8799C111.647 98.9836 113.199 97.4511 114.382 97.0038C116.005 99.7067 117.663 102.394 119.271 105.106C120.661 107.449 121.793 109.168 121.365 111.992C118.45 115.539 113.234 111.719 110.603 109.506C109.926 108.946 109.28 108.351 108.666 107.723C111.332 104.51 111.767 104.268 112.884 100.279C111.166 100.673 110.924 100.709 109.498 101.814Z" fill="#FDFCFD"/>
<path d="M112.793 91.0034L113.023 90.597C114.893 90.3224 116.167 92.0823 120.023 90.7379C120.278 91.2608 121.22 93.4676 121.57 93.6554C121.854 93.5993 122.139 93.5496 122.426 93.5063C123.074 94.0741 124.44 99.4306 124.766 100.725C124.709 100.851 124.706 100.911 124.615 100.99C124.428 101.016 124.24 101.033 124.052 101.041C121.519 101.145 121.145 100.753 121.142 98.272L117.62 98.2832C117.009 97.3262 116.374 96.3847 115.716 95.4597C114.808 94.3125 114.202 93.3182 113.446 92.0688L112.793 91.0034Z" fill="#FDFCFD"/>
<path d="M113.445 92.0686C115.769 91.7443 117.57 93.1561 115.716 95.4595C114.808 94.3124 114.202 93.3181 113.445 92.0686Z" fill="#E3E3E3"/>
<path d="M44.3672 97.9584C46.1754 96.884 46.6177 95.656 47.3772 93.6987C48.5575 90.6569 51.3565 93.0608 53.1009 94.0543C55.5427 95.6188 59.1856 97.608 60.7106 100.186C60.4927 101.265 60.3579 102.122 60.2189 103.214C60.0614 103.738 60.164 104.094 59.9097 104.854C59.4357 104.697 58.2788 103.013 57.6289 102.776C56.5035 103.206 53.7907 102.269 52.557 101.998C51.7114 102.546 51.0536 103.365 50.3776 104.119C48.98 103.435 48.7744 103.516 47.2365 103.531C47.1019 102.655 47.1638 101.98 47.1214 101.179C47.014 99.15 45.7163 99.9801 44.6504 99.1826C44.3323 98.9446 44.3871 98.3794 44.3672 97.9584Z" fill="#FDFCFD"/>
<path d="M128.758 95.1322C129.821 94.3519 131.271 93.5505 132.424 92.9131C132.828 93.4891 134.817 96.2681 135.001 96.703C133.562 98.0442 132.814 98.7892 130.746 98.7247C132.497 103.754 134.744 112.032 125.176 108.06C124.203 107.656 122.965 106.482 122.384 105.593C122.384 105.008 122.37 104.373 122.388 103.793C122.924 102.88 123.895 101.554 124.988 101.308C128.209 100.814 126.916 96.9444 128.574 95.5613C128.457 95.3301 127.554 94.3396 127.307 94.0493L127.54 93.9132C127.742 94.1051 128.657 95.0547 128.758 95.1322Z" fill="#FDFCFD"/>
<path d="M127.542 93.9131C127.744 94.105 128.658 95.0546 128.76 95.1322C129.055 95.5907 129.424 96.0489 129.491 96.5683C129.099 96.3688 128.848 95.9325 128.576 95.5613C128.459 95.33 127.555 94.3396 127.309 94.0492L127.542 93.9131Z" fill="#B4B4B5"/>
<path d="M88.7833 104.062C90.2645 105.098 90.4712 104.987 92.2675 105.091C92.3188 106.46 92.3328 107.803 92.6039 109.15C93.0013 109.478 93.4754 109.849 93.8455 110.197C93.9084 110.776 93.8949 111.259 94.2179 111.724L94.694 111.999C92.813 116.873 90.0455 118.483 84.9222 118.249C83.1909 118.17 80.5116 116.953 80.6581 114.926C81.5701 113.607 84.8976 115.637 86.1157 114.746C87.0124 114.09 89.9964 111.205 90.2786 110.2L90.1161 109.942C89.2655 109.378 88.196 109.38 87.1865 109.307C87.135 108.739 87.1143 108.169 87.1242 107.6C87.1495 105.937 87.6437 105.17 88.7833 104.062Z" fill="#FDFCFD"/>
<path d="M105.91 119.629C106.316 118.323 108.057 117.147 108.209 116.188C108.458 114.617 106.277 110.333 108.276 109.022C109.64 110.854 111.849 113.358 112.305 115.515C112.007 116.063 111.555 115.935 111.174 116.251C110.239 117.026 109.995 119.431 109.913 120.542C108.223 120.736 107.411 120.352 105.91 119.629Z" fill="#FDFCFD"/>
<path d="M93.4373 115.637C94.5864 116.447 93.9404 117.929 94.4005 119.254C94.901 120.696 95.2729 122.216 96.2738 123.413C93.6863 125.868 92.1027 124.933 89.7656 122.955C92.3073 122.722 92.8472 122.305 95.1836 121.463C90.8486 121.171 91.4781 118.267 93.4373 115.637Z" fill="#FDFCFD"/>
<path d="M112.302 115.516C112.551 117.717 112.542 119.961 109.91 120.543C109.992 119.432 110.236 117.027 111.171 116.252C111.552 115.936 112.004 116.064 112.302 115.516Z" fill="#E3E3E3"/>
<path d="M78.4789 99.0073C80.2698 97.8777 85.409 95.6586 86.8679 98.1688C87.8 99.7728 86.9641 103.813 86.3468 105.443C84.3797 110.003 74.6152 115.614 77.7107 108.46C77.2869 108.328 76.7503 108.206 76.3377 108.091C73.7842 107.38 72.8657 105.248 73.6344 102.788C74.1799 101.042 76.953 99.8386 78.4789 99.0073Z" fill="#FDFCFD"/>
<path d="M78.4805 99.0073C80.2714 97.8777 85.4105 95.6586 86.8694 98.1688C87.8016 99.7728 86.9656 103.813 86.3483 105.443C85.7295 104.942 84.1394 105.318 83.1907 105.051C81.5545 104.592 79.1931 100.517 78.4805 99.0073Z" fill="#E3E3E3"/>
<path d="M65.5478 97.3596C72.6802 97.1012 71.8945 106.802 69.5174 106.814C68.9399 106.499 68.7739 106.231 68.4209 105.69L68.1828 105.793C67.4463 106.015 65.2413 106.36 64.5131 106.014C63.2343 105.406 64.1039 103.646 63.7122 102.487C62.2106 102.077 62.6412 102.846 61.2969 101.34C61.4032 100.477 61.4894 100.064 61.7184 99.2233C62.9888 97.8755 63.7737 97.7661 65.5478 97.3596Z" fill="#FDFCFD"/>
<path d="M111.196 59.1133C117.764 61.3734 124.578 64.0387 130.558 67.589C130.642 66.4351 130.721 65.8707 131.698 65.0965C133.323 63.8084 135.556 63.1065 137.172 61.7582C137.634 63.1001 139.475 65.2279 139.511 66.2244C139.328 67.0562 141.877 73.1742 142.064 74.5486C142.115 74.921 142.64 76.3483 142.816 76.7657C139.71 78.4524 139.306 79.4337 136.84 81.654C138.598 81.712 141.988 81.7506 143.601 82.1159C143.979 84.2791 145.686 89.3856 144.699 90.933C143.836 91.3223 143.188 90.1017 142.933 89.4231C142.81 89.0882 142.696 88.7497 142.594 88.4079L142.391 88.399C141.859 89.1409 141.954 89.993 141.127 90.3924C139.953 90.3264 139.717 89.017 139.38 88.0567C138.821 92.1118 137.9 93.5952 135.001 96.7025C134.816 96.2677 132.827 93.4887 132.424 92.9126C131.271 93.55 129.821 94.3514 128.757 95.1318C128.656 95.0542 127.741 94.1046 127.54 93.9127L127.306 94.0488C127.002 93.5818 123.877 90.3858 123.291 89.7575C121.658 88.0084 119.596 85.7235 117.875 84.1286C112.135 78.8067 103.833 72.938 96.4534 70.2195C96.3894 70.8042 96.3775 71.5084 96.0765 71.9779C94.8714 72.3923 89.936 74.2861 89.2839 73.0228C87.7777 74.9316 86.7981 76.2687 84.4528 77.1809C83.6328 77.3647 82.5303 77.697 81.6992 77.9237C82.7821 77.3115 83.7605 76.8035 84.7246 76.0135C85.5223 75.3044 85.9377 74.8096 86.6179 74.0073C88.8894 71.0485 89.2782 68.1208 88.9168 64.5347L89.1968 63.9534C89.4127 64.4848 89.8339 65.4386 89.9369 65.9576L90.2078 66.1659C91.8851 66.0311 92.4346 61.3609 94.5231 60.2312C95.8261 59.3845 97.8451 59.2032 99.3293 59.5877C100.459 59.8805 103.254 60.8016 103.884 61.8077C103.926 62.8617 102.661 62.7872 101.863 62.8628C101.886 63.4186 101.86 64.3153 102.197 64.7194C102.629 64.6702 102.536 64.2914 103.12 63.8826C104.038 63.2409 105.671 62.89 105.385 61.5939C105.322 61.3067 105.37 60.6779 105.471 60.3689C105.827 60.2158 105.675 60.238 106.136 60.4132C106.371 60.9156 106.313 61.7802 106.312 62.3644C106.775 61.8534 107.299 61.1624 107.739 60.6143C109.574 60.2253 109.714 60.6561 111.678 59.6249L111.629 59.4724C111.452 59.4175 111.434 59.3848 111.313 59.2479L111.196 59.1133Z" fill="#E3E3E3"/>
<path d="M96.059 61.8252C96.3224 63.8769 96.6238 65.7485 97.1217 67.7549L97.2591 68.5497L97.3527 69.8153C99.0232 70.4241 101.197 71.6 102.845 72.4315C106.347 74.178 109.807 76.0066 113.223 77.9159C116.118 79.5334 120.971 82.8052 123.978 83.5415C125.153 83.8291 130.481 82.5549 131.97 82.1526C130.005 83.6769 128.293 85.1311 125.901 85.9325C124.878 86.2753 122.963 86.1625 122.374 86.7671C122.381 88.1322 126.436 92.6061 127.54 93.9134L127.306 94.0495C127.002 93.5825 123.877 90.3865 123.291 89.7582C121.658 88.0091 119.596 85.7242 117.875 84.1293C112.135 78.8074 103.833 72.9387 96.4534 70.2202C96.3894 70.8049 96.3775 71.5091 96.0765 71.9786C94.8714 72.393 89.936 74.2868 89.2839 73.0235C87.7777 74.9323 86.7981 76.2694 84.4528 77.1816C83.6328 77.3654 82.5303 77.6977 81.6992 77.9244C82.7821 77.3122 83.7605 76.8042 84.7246 76.0142C85.5223 75.3051 85.9377 74.8103 86.6179 74.008C88.8894 71.0492 89.2782 68.1215 88.9168 64.5354L89.1968 63.9542C89.4127 64.4855 89.8339 65.4393 89.9369 65.9583C90.1005 66.6179 89.9828 66.5514 90.4099 66.9737C91.4043 67.2622 92.0771 66.9596 92.9623 66.5302C94.7749 65.6507 95.4622 63.6756 96.059 61.8252Z" fill="#232222"/>
<path d="M90.6839 68.7293L90.8682 68.4462C91.6176 68.2975 94.1926 69.4114 95.028 69.7496C95.4714 69.9129 95.9997 70.1323 96.4547 70.2196C96.3907 70.8044 96.3788 71.5086 96.0777 71.9781C94.8727 72.3924 89.9372 74.2863 89.2852 73.023L89.8816 71.6566C89.9198 71.4108 90.0305 71.0789 90.1039 70.8303C90.2048 70.2155 90.4956 69.3504 90.6839 68.7293Z" fill="#FDFCFD"/>
<path d="M90.6836 68.7293L90.8678 68.4462C91.6173 68.2975 94.1922 69.4114 95.0277 69.7496C94.3467 70.5783 93.917 71.6834 92.9723 72.0749C92.1957 71.7076 92.6025 69.6811 90.6836 68.7293Z" fill="#E3E3E3"/>
<path d="M89.8828 71.6573C89.921 71.4115 90.0317 71.0796 90.1051 70.8311C90.6597 71.2786 91.2409 70.8777 91.7416 71.7173C91.6472 72.1348 91.7096 71.9858 91.3569 72.3142C90.8662 72.3265 90.3389 71.9263 89.8828 71.6573Z" fill="#E3E3E3"/>
<path d="M97.125 67.7549C97.8982 67.4331 99.9627 67.6848 100.871 67.7691C99.8359 68.0346 98.3199 68.407 97.2624 68.5497L97.125 67.7549Z" fill="#FDFCFD"/>
<path d="M37.2305 96.7607C40.3785 97.4849 40.9079 98.9275 44.368 97.9589C44.3879 98.3799 44.3331 98.9451 44.6512 99.1831C45.7172 99.9806 47.0149 99.1505 47.1222 101.18C47.1646 101.981 47.1027 102.655 47.2373 103.532C48.7752 103.516 48.9808 103.436 50.3784 104.12C51.0545 103.365 51.7122 102.547 52.5579 101.999C53.7915 102.27 56.5044 103.207 57.6297 102.777C58.2796 103.013 59.4365 104.697 59.9106 104.855C60.1648 104.094 60.0622 103.739 60.2198 103.214C60.224 104.822 60.167 106.311 61.421 107.515C63.5046 109.515 67.5201 109.302 70.1322 108.839C70.1441 110.391 70.1062 112.748 71.0184 114.055C70.1712 115.337 69.5549 115.978 69.0246 117.48C68.524 118.899 68.8288 121.203 68.1363 122.328C67.7749 122.916 65.7925 124.061 65.117 124.589C64.3853 126.751 63.3396 128.512 62.5327 130.809C61.5607 130.197 61.1196 129.782 60.276 129.02L60.0625 129.085C59.9327 130.11 61.6903 131.179 61.2429 132.182C60.7693 133.243 57.7868 134.563 57.5483 135.527C57.8736 135.776 58.0269 135.866 58.2715 136.188C58.2397 136.951 57.713 137.628 57.2777 138.246C57.8897 139.172 58.4472 139.746 57.5601 140.704C56.0674 139.438 54.7692 138.067 53.4455 136.63C45.6925 127.421 40.8841 119.44 38.5825 107.259C38.1952 105.21 37.7403 102.883 37.6748 100.807C37.4543 99.8807 37.2818 97.7312 37.2305 96.7607Z" fill="#E3E3E3"/>
<path d="M37.6719 100.807C37.7079 100.184 37.6165 99.9775 37.9224 99.5161C38.5581 99.3523 39.5733 100.013 40.6292 100.176C43.6422 100.641 44.9601 101.494 46.5401 104.233C46.7926 104.671 49.3835 103.878 49.2129 105.104C49.645 107.888 47.7193 109.928 48.1818 112.802C48.8133 116.726 53.1409 119.25 53.8115 122.9C54.2118 125.079 53.3769 128.587 53.6606 131.025C53.8412 132.579 53.852 134.878 53.6112 136.407C53.5966 136.467 53.4901 136.578 53.4425 136.631C45.6896 127.421 40.8812 119.44 38.5796 107.259C38.1923 105.21 37.7373 102.883 37.6719 100.807Z" fill="#FDFCFD"/>
<path d="M60.2955 49.5127C62.0201 49.097 65.0292 48.2601 66.7069 48.7948C66.8294 48.8338 67.1008 48.8671 67.242 48.8889L67.386 48.7381C67.0676 48.0247 66.9838 47.8534 67.708 47.2926C68.3653 47.0429 68.6958 47.3411 69.4026 47.2611C71.3713 47.0381 73.0675 46.701 75.0307 47.2904C75.7046 47.4928 76.3361 47.8053 77.0095 47.9974C76.8164 48.5722 76.5686 49.1121 76.6243 49.6986L76.7944 49.89C77.6055 49.7447 78.2028 49.329 78.9589 49.1744C79.853 48.9915 80.6857 49.1275 81.6227 48.9314C80.3485 50.3045 77.6675 51.0218 77.8985 53.3444C78.2599 56.9787 78.6901 56.3331 75.98 58.7667C76.4288 59.1295 76.7636 59.3252 76.9742 59.8538C76.8412 61.2456 73.6981 61.8256 72.4853 62.0309C72.1449 62.4547 71.8046 62.8907 71.3948 63.2523C70.5307 64.0147 69.1209 64.3962 68.6726 65.4361C66.6902 65.3569 64.2536 65.4826 62.5509 64.4542C62.8191 64.2481 64.2593 60.6969 64.5688 60.0299C64.0449 59.6654 63.5281 59.2909 63.0188 58.9067C62.7317 56.4314 62.6855 55.5161 60.6783 53.7238C59.7239 52.8713 57.9916 52.2289 57.5056 51.7693L57.4883 51.6171C58.0269 51.3297 58.5268 51.6365 58.6653 51.5669C59.1703 51.3131 59.7276 50.1431 60.2955 49.5127Z" fill="#E3E3E3"/>
<path d="M51.231 79.6848C51.4294 79.367 51.8353 78.1619 51.9758 77.7556C52.9042 75.0723 53.8932 72.6378 55.1954 70.1113C55.8739 71.0477 55.8254 71.8772 56.665 72.2326C57.7078 71.5285 57.0491 70.3886 58.1757 70.3743C59.6822 71.6294 59.8597 74.9976 60.3569 75.384L60.7675 75.2014C61.2127 75.4386 61.6077 75.6235 61.9081 76.0261L61.8104 76.232C61.1679 76.3452 60.7007 76.3221 60.339 76.7865C60.9152 77.3312 61.9381 77.1316 62.508 78.6258L62.4311 78.9203C61.9505 79.1155 60.1425 78.9152 59.5932 78.8397L59.4331 78.6201C59.5372 78.2392 59.5626 78.1796 59.7469 77.8286C59.3061 77.4941 56.7376 77.0796 56.0829 77.1669C55.7454 77.212 55.1665 77.6821 55.0036 78.0174L55.0792 78.2201C55.9811 78.274 56.0037 77.4793 56.5393 77.9485C56.9868 79.5281 57.0678 79.5174 58.0407 80.8379C57.6347 81.1899 57.4509 81.2553 56.9769 81.4724C56.1508 81.3653 56.0697 80.3575 54.7879 81.3382C53.6766 82.1886 52.0988 84.9413 50.8047 85.384C50.9246 83.3902 50.9859 81.6763 51.231 79.6848Z" fill="#E3E3E3"/>
<path d="M147.355 118.481C149.354 116.558 149.259 113.475 153.385 114.421C152.259 117.579 148.965 125.565 146.831 128.045C146.19 127.461 144.748 127.578 143.846 127.548C143.82 127.3 143.796 127.051 143.777 126.802C143.685 125.631 143.329 120.11 144.118 118.959C144.363 118.601 146.675 118.53 147.355 118.481Z" fill="#E3E3E3"/>
<path d="M93.818 55.7441L94.1886 55.7951L94.3249 56.2612C93.3729 56.3997 92.5 56.5865 91.5646 56.8149C87.5848 57.7868 82.5824 57.8312 79.5469 60.998C79.1134 65.3673 79.1197 66.598 83.1816 63.5461C83.3778 66.5092 83.4424 67.545 84.3789 70.3847L84.0268 70.4381C81.906 67.6838 80.8306 68.6925 78.879 70.895C78.8266 71.722 78.7802 72.5492 78.7404 73.3769C78.6432 73.2003 78.5616 73.0387 78.5185 72.8411L78.647 72.585L78.4812 72.7447L78.7122 72.6863L78.502 72.4988L78.4427 72.5885C78.7396 73.0871 78.7034 73.3781 78.4622 73.897L78.1789 73.9516L78.0356 73.3286C77.9941 73.7459 77.979 74.128 77.9612 74.5452C77.6201 73.2472 77.7057 70.0086 77.6508 68.4753C75.7486 65.7341 71.6321 66.3092 68.6706 66.3716C66.8892 66.0385 66.4532 66.5303 63.8462 65.7168C63.2914 65.4679 61.6951 64.5509 61.4062 64.0269C61.8366 64.0301 62.1566 64.2516 62.5509 64.454C64.2537 65.4824 66.6902 65.3567 68.6726 65.4359C70.7079 65.6659 74.4664 65.7027 76.4968 65.4657C77.9536 58.8569 82.3249 57.6364 88.1995 56.8692C89.9142 56.6452 91.9985 56.0285 93.818 55.7441Z" fill="#1E1D1D"/>
<path d="M107.379 57.416C109.445 57.8437 112.512 58.7238 114.559 59.3737C116.107 60.0233 117.728 60.2543 119.22 60.8179C122.598 62.0935 126.365 63.5356 129.587 65.1194C131.585 63.3983 132.929 62.931 135.399 62.1745C135.745 62.0688 136.763 61.8232 137.022 61.6632L137.173 61.759C135.557 63.1073 133.324 63.8092 131.699 65.0973C130.722 65.8715 130.643 66.4359 130.559 67.5898C124.579 64.0395 117.765 61.3742 111.197 59.1141C110.843 58.9275 107.963 57.9897 107.39 57.8059L107.379 57.416Z" fill="#171313"/>
<path d="M133.687 54.2005C132.366 53.0137 132.075 52.801 130.488 53.7351C129.704 53.6377 129.105 52.0843 128.928 51.375C129.416 51.8313 129.924 53.0694 130.212 53.7058C132.096 52.4879 132.327 52.7936 134.034 54.1485L132.467 55.754C134.473 55.3579 135.644 55.0811 137.687 55.1125C136.817 56.4046 135.371 58.1948 135.659 59.869C135.741 60.3451 136.557 61.4521 137.021 61.6625C136.763 61.8225 135.744 62.068 135.399 62.1738C132.929 62.9302 131.584 63.3975 129.587 65.1187C126.365 63.5349 122.598 62.0928 119.22 60.8172C117.727 60.2535 116.107 60.0225 114.559 59.3729C114.899 58.515 115.543 55.2232 117.065 55.7147C117.785 57.2434 116.705 59.7708 118.566 60.2882C122.139 61.2815 126.134 63.6559 129.589 64.6647C130.598 63.8331 130.904 63.4681 132.196 63.0128C132.863 62.778 133.571 62.299 134.285 62.1263C134.599 61.9238 136.279 61.8719 136.243 61.4446C136.194 60.853 134.878 59.2818 135.291 58.7155C135.909 57.8668 136.477 56.2383 137.18 55.5316L137.192 55.317C135.94 54.9936 132.381 56.3065 131.374 56.2394L131.364 56.0797C132.363 55.3193 132.802 55.1156 133.687 54.2005Z" fill="#E3E3E3"/>
<path d="M95.9766 124.732C96.3321 124.498 96.6967 124.246 97.0689 124.043C99.5501 125.846 100.356 126.541 103.372 125.23C103.427 126.482 102.475 127.773 101.625 128.616C95.8523 129.559 98.3112 127.733 95.9766 124.732Z" fill="#E3E3E3"/>
<path d="M50.7718 79.1788C51.2198 77.2453 55.8895 65.869 57.383 65.4307C57.511 66.0077 55.5839 69.3418 55.1947 70.1113C53.8924 72.6378 52.9035 75.0724 51.975 77.7557C51.8345 78.1619 51.4287 79.367 51.2303 79.6849C50.9585 80.0405 50.9377 80.3697 50.6875 80.4597L50.7718 79.1788Z" fill="#171313"/>
<path d="M137.664 98.3989C138.508 97.5003 139.72 96.7965 140.843 96.3135C140.858 96.9509 141.746 98.2346 142.067 99.1854C141.202 99.6504 140.112 100.45 139.377 100.795C138.845 98.0934 138.605 99.5735 137.664 98.3989Z" fill="#E3E3E3"/>
<path d="M63.8477 65.7168C66.4546 66.5303 66.8906 66.0385 68.672 66.3716C68.07 67.7021 67.8005 68.0241 66.7403 69.0393C66.0543 68.7881 65.6758 68.5883 65.0265 68.2425C64.3029 67.2891 63.9763 66.8953 63.8477 65.7168Z" fill="#E3E3E3"/>
<path d="M84.382 70.3848L84.436 70.4897C85.277 72.1509 84.7556 72.0287 86.1805 73.5549L86.6208 74.0076C85.9406 74.8099 85.5251 75.3047 84.7275 76.0138C84.6542 75.7409 84.5879 75.4663 84.5286 75.1901C84.6719 74.6505 85.1409 74.224 85.4744 73.7248C84.8902 73.1786 83.9142 72.3615 83.722 71.5627C83.5885 71.0077 83.7602 70.9035 84.0299 70.4382L84.382 70.3848Z" fill="#E3E3E3"/>
<path d="M93.6166 82.0459C94.1612 82.4453 94.3368 81.8647 94.4767 82.666C94.5987 83.3633 94.6145 84.6752 94.1089 85.1991L93.8195 85.191C93.0437 84.3085 94.2838 83.9026 93.293 82.6169L93.6166 82.0459Z" fill="#E3E3E3"/>
<path d="M77.9648 74.5455C77.9826 74.1282 77.9977 73.7461 78.0392 73.3289L78.1825 73.9518L78.4658 73.8972C78.707 73.3784 78.7431 73.0873 78.4463 72.5888L78.5056 72.499L78.7158 72.6865L78.4848 72.745L78.6506 72.5852L78.5221 72.8414C78.5652 73.0389 78.6468 73.2006 78.744 73.3771C78.8666 75.1675 79.2517 75.7562 79.6709 77.4031C79.0694 76.6689 77.9826 75.4793 77.9648 74.5455Z" fill="#171313"/>
<path d="M93.8203 55.7443C94.4686 55.5686 98.2799 55.657 99.032 55.7648L98.981 55.9082C98.5539 55.9712 97.8303 56.0513 97.4037 55.9574C96.3931 56.0744 95.3401 56.2167 94.3272 56.2614L94.191 55.7953L93.8203 55.7443Z" fill="#E3E3E3"/>
<path d="M94.1914 55.7949C95.1945 55.8023 96.4393 55.7655 97.4042 55.957C96.3935 56.074 95.3405 56.2163 94.3276 56.261L94.1914 55.7949Z" fill="#232222"/>
<path d="M92.7875 80.292C93.2266 80.9083 93.3513 81.3332 93.6165 82.0458L93.2929 82.6167C92.8587 81.9562 92.6236 81.2314 92.4727 80.4638L92.7875 80.292Z" fill="#E3E3E3"/>
<path d="M107.39 57.8052C106.703 57.6247 104.763 57.157 104.316 56.7324C105.198 56.8058 106.489 57.1857 107.378 57.4153L107.39 57.8052Z" fill="#3E3D3E"/>
<path d="M88.9184 64.5352C88.7375 63.8986 88.4801 63.1968 88.5348 62.5566C88.8422 62.8014 89.0479 63.5449 89.1985 63.9539L88.9184 64.5352Z" fill="#757879"/>
<path d="M145.143 101.533C145.785 101.77 146.534 102.072 146.724 102.782C147.144 104.353 146.11 106.305 145.436 107.677L143.169 107.672L143.041 107.491C142.993 107.038 143.295 106.584 143.511 106.148C142.979 105.981 142.455 105.896 142.124 105.486C142.109 105.234 142.08 105.017 142.285 104.832C143.528 103.711 144.212 102.931 145.143 101.533Z" fill="#E3E3E3"/>
<path d="M137.629 101.716C137.814 101.896 138.751 102.523 138.772 102.604C139.129 103.976 139.505 105.053 140.044 106.349C140.01 106.722 139.841 106.863 139.59 107.158C138.646 108.276 139.457 108.621 139.538 109.345C138.907 108.918 138.854 108.8 138.473 108.138C137.426 106.337 136.511 105.107 135.414 103.45L135.508 103.236C136.365 103.316 137.003 104.385 137.954 104.32C138.288 103.626 137.844 102.517 137.629 101.716Z" fill="#E3E3E3"/>
<path d="M140.497 109.737C140.869 109.714 141.689 109.677 142.023 109.727C142.674 109.823 145.244 110.63 145.591 111.079L145.391 111.144C143.732 110.936 141.991 110.102 140.515 110.26L140.312 110.074L140.497 109.737Z" fill="#E3E3E3"/>
<path d="M113.951 52.9395L114.033 53.0171L114.013 53.2159C113.234 53.8728 110.77 55.0888 109.773 55.6135C109.545 55.2315 109.583 55.4354 109.689 54.9766C110.209 54.3814 112.908 53.4576 113.951 52.9395Z" fill="#E3E3E3"/>
<path d="M128.271 49.7451L128.51 49.8244L128.549 50.0991C128.315 50.6208 128.252 50.7287 127.903 51.1814C127.614 50.9621 127.617 50.9731 127.414 50.6758C127.534 50.2071 127.822 50.1133 128.271 49.7451Z" fill="#E3E3E3"/>
<path d="M106.611 19.8105C107.253 20.1635 107.377 20.2949 107.557 20.9966L107.504 21.1112L107.202 21.9743C106.16 22.8787 105.739 22.0381 105.598 21.053C105.989 20.6613 106.42 20.3118 106.611 19.8105Z" fill="#171313"/>
<path d="M103.401 14.3427C105.221 14.2163 104.997 15.6695 104.5 16.9345C104.114 17.2432 104.119 17.1445 103.542 17.1479C101.31 16.9304 101.345 14.6066 103.401 14.3427Z" fill="#FDFCFD"/>
<path d="M123.923 19.4076C127.145 18.9755 127.38 20.2776 127.327 22.9563C126.697 22.7476 126.045 22.5034 125.417 22.2794C123.932 21.7009 122.393 21.0203 120.934 20.3769C121.93 19.9556 122.862 19.6306 123.923 19.4076Z" fill="#FDFCFD"/>
<path d="M154.47 35.7285L154.715 35.8263C154.381 36.8137 154.287 37.7962 153.545 38.5141C153.123 38.5168 153.143 38.4008 152.757 38.0405L151.641 37.0999C152.569 36.6138 153.521 36.1753 154.47 35.7285Z" fill="#FDFCFD"/>
<path d="M56.9071 161.783C57.0418 161.842 58.3177 162.733 58.6045 162.913C58.1972 166.088 57.7462 169.26 57.4719 172.449C57.4214 173.038 57.3312 173.623 57.2364 174.205C59.226 171.717 61.1896 167.965 63.3014 165.244C63.8994 165.521 64.4437 165.88 65.0037 166.229L64.9465 172.026C66.196 170.582 67.6852 169.166 69.0928 167.877L70.8324 168.539C70.4043 171.329 69.0782 175.591 68.4498 178.753C67.8017 178.448 67.1156 178.187 66.4483 177.921C66.1244 177.874 66.2577 177.946 66.0416 177.687C65.9275 176.621 66.7902 174.139 67.1451 172.977C66.0518 174.077 64.9221 175.287 63.7434 176.302C63.3125 176.673 63.0485 176.627 62.6546 176.313C62.1285 175.257 62.3394 172.265 62.3837 170.977C61.7789 171.891 60.5585 174.525 59.8175 174.979C57.9822 174.26 56.42 173.41 54.7297 172.414C54.8271 171.773 54.8678 170.978 54.9185 170.32C52.9162 169.22 52.4093 167.952 50.7477 170.131C49.9681 169.797 48.7504 169.022 47.9883 168.558C49.1566 167.907 50.4432 166.785 51.5183 165.948L56.9071 161.783Z" fill="#426587"/>
<path d="M55.2773 166.158L55.5728 166.334C55.6642 166.923 55.7433 167.68 55.0553 167.842C54.6773 167.611 54.6247 167.589 54.3281 167.269C54.3617 166.87 54.9046 166.509 55.2773 166.158Z" fill="#DAF8FA"/>
<path d="M80.0593 171.142C81.4776 171.489 82.9863 171.489 84.6917 171.94C85.8615 172.976 85.9953 173.354 86.3907 174.854C86.0077 176.405 85.7285 177.452 84.0573 177.898C84.7369 179.3 85.3779 180.719 85.9792 182.156C87.2086 179.402 89.385 175.05 90.9261 172.497L92.7933 172.587C93.1243 174.246 94.282 177.216 94.8888 178.905C96.1023 182.321 97.5322 183.36 93.256 182.983C93.1443 182.358 92.9995 181.724 92.865 181.101C91.5856 180.909 90.7594 180.845 89.4649 180.786L88.7071 182.556C86.9433 182.648 84.3185 182.553 82.8076 181.614C82.5286 180.81 81.7 179.219 81.2952 178.397C81.2239 179.48 81.1112 180.447 80.9794 181.523C80.1874 181.505 79.3062 181.383 78.5117 181.293C78.7767 179.682 78.9097 177.997 79.1765 176.395C79.4708 174.624 79.7973 172.928 80.0593 171.142Z" fill="#426587"/>
<path d="M82.3107 173.997C83.0972 174.082 83.3446 174.056 83.6447 174.785C83.5776 175.269 83.5406 175.317 83.2086 175.68C82.6665 175.846 82.4456 175.985 82.0251 175.581C81.9479 175.014 82.1446 174.557 82.3107 173.997Z" fill="#FDFCFD"/>
<path d="M91.3322 176.989C91.9028 177.36 92.0262 178 91.7484 178.598C91.3248 178.539 91.2336 178.561 90.9404 178.284C90.8942 177.745 91.0906 177.541 91.3322 176.989Z" fill="#DAF8FA"/>
<path d="M163.349 134.1C166.041 133.458 168.738 135.134 169.357 137.83C169.975 140.528 168.276 143.212 165.573 143.806C162.905 144.393 160.261 142.719 159.65 140.055C159.04 137.392 160.691 134.734 163.349 134.1Z" fill="#3E3D3E"/>
<path d="M163.754 135.85C165.445 135.44 167.15 136.468 167.577 138.152C168.005 139.839 166.996 141.555 165.316 142.001C164.212 142.293 163.036 141.97 162.236 141.155C161.436 140.341 161.136 139.159 161.451 138.06C161.765 136.963 162.644 136.119 163.754 135.85Z" fill="#FDFCFD"/>
<path d="M18.3521 64.283C21.0101 63.6589 23.6734 65.2975 24.3149 67.9512C24.9564 70.6051 23.3355 73.2792 20.6859 73.938C18.0115 74.603 15.3072 72.9636 14.6598 70.285C14.0122 67.6065 15.6693 64.9129 18.3521 64.283Z" fill="#3E3D3E"/>
<path d="M18.4163 66.1982C20.0569 65.6144 21.8603 66.4693 22.4472 68.1088C23.034 69.7482 22.1827 71.5534 20.5444 72.1433C18.9016 72.735 17.0904 71.8809 16.502 70.2368C15.9135 68.5929 16.7712 66.7835 18.4163 66.1982Z" fill="#FDFCFD"/>
<path d="M97.1428 19.6776C98.2559 20.0226 102.197 20.5683 102.902 19.5083C102.675 18.343 100.336 19.3234 99.2141 17.8636C98.7588 17.3178 98.3587 16.511 98.4239 15.759C98.7558 11.9277 102.358 12.4919 104.89 12.5695C104.902 14.1287 104.844 15.7588 104.812 17.3233C104.47 17.6894 104.401 17.7459 104.28 18.2265C104.4 19.0583 104.8 18.968 104.77 19.6564L104.946 19.8104C105.588 20.1633 105.712 20.2947 105.891 20.9965L105.838 21.111L105.537 21.9741C104.495 22.8785 104.073 22.0379 103.932 21.0528C103.586 21.2333 103.105 21.6672 102.747 21.8333C101.646 22.3452 99.8085 22.1695 98.6674 22.0123C97.0721 21.7526 96.0472 21.2335 95.0159 19.9122C93.7796 18.3286 93.7648 15.4389 95.3463 14.0592C95.5976 13.8401 95.9238 13.9264 96.2263 13.9996C97.083 14.7835 96.5769 15.3695 96.0041 16.0672C95.932 16.689 95.9095 17.2878 95.8798 17.9124C96.2957 18.6941 96.5656 18.9914 97.1428 19.6776Z" fill="#232222"/>
<path d="M102.229 13.6972C104.049 13.5708 103.826 15.024 103.328 16.289C102.943 16.5977 102.947 16.499 102.37 16.5024C100.138 16.2849 100.174 13.9611 102.229 13.6972Z" fill="#FDFCFD"/>
<path d="M72.6089 168.992C75.0171 170.239 75.4934 169.226 77.9251 171.793C78.0003 173.591 77.9499 173.491 77.1574 175.039C77.0143 175.319 78.0133 177.082 77.7041 177.864C77.3121 178.855 76.773 179.471 75.9096 179.963C73.9191 180.516 71.8934 179.601 69.8828 178.99C70.6754 177.041 72.0012 171.298 72.6089 168.992Z" fill="#426587"/>
<path d="M73.4365 175.904C74.2115 176.014 74.6357 175.959 75.0817 176.64C75.0978 177.131 75.0816 177.187 74.8607 177.626C74.281 177.731 73.8365 177.902 73.3519 177.517C73.1721 177.032 73.3452 176.445 73.4365 175.904Z" fill="#FDFCFD"/>
<path d="M74.5123 172.018C74.9681 172.207 75.0111 172.203 75.2571 172.605C75.3254 173.156 75.1553 173.368 74.9064 173.872C74.5188 173.867 74.6924 173.918 74.3645 173.721C74.1864 173.157 74.3812 172.62 74.5123 172.018Z" fill="#FDFCFD"/>
<path d="M114.239 170.548C114.693 170.839 116.146 179.593 116.304 180.561C115.271 180.719 114.654 180.866 113.664 181.174C113.455 179.633 113.248 178.479 112.916 176.96C111.884 177.136 111.051 177.336 110.041 177.587C110.341 178.881 110.478 180.267 110.641 181.591L108.504 181.989C108.452 182.013 108.199 182.072 108.134 182.088C108.002 181.835 106.31 172.808 106.117 171.892C106.944 171.836 107.945 171.689 108.781 171.589C108.964 172.771 109.309 174.098 109.588 175.277C110.696 174.682 111.306 174.63 112.511 174.388C112.293 173.2 112.06 172.015 111.812 170.832L114.239 170.548Z" fill="#426587"/>
<path d="M118.095 15.958C118.625 16.123 119.303 16.3549 119.828 16.4838C119.507 17.2732 119.177 18.0593 118.84 18.8422C120.61 17.8625 122.638 16.9601 124.671 17.6026C127.638 18.5404 127.63 20.8202 127.379 23.4133L127.262 23.5367C126.725 24.1102 126.639 24.298 126.299 25.0038L126.123 25.1133C124.002 24.4525 121.866 23.3826 119.752 22.6623C118.53 22.246 117.28 21.486 116.004 21.2956L116.067 20.174C116.245 19.9364 116.24 19.9711 116.483 19.7883C117.065 18.7707 117.734 17.0742 118.095 15.958Z" fill="#232222"/>
<path d="M122.681 18.7709C125.903 18.3388 126.138 19.6409 126.085 22.3195C125.455 22.1108 124.803 21.8667 124.175 21.6427C122.69 21.0642 121.15 20.3836 119.691 19.7402C120.688 19.3189 121.619 18.9939 122.681 18.7709Z" fill="#FDFCFD"/>
<path d="M133.366 162.462C134.207 162.877 141.775 168.602 142.388 169.25L139.824 170.644C139.391 170.26 138.691 169.542 138.122 169.468C137.852 169.434 137.788 169.585 137.51 169.813C136.771 170.257 136.294 170.527 135.516 170.887C135.57 171.598 135.655 172.343 135.724 173.054C134.626 173.924 134.444 174.059 133.108 174.544C133.046 171.484 132.36 166.614 131.844 163.686C132.412 163.316 132.856 162.906 133.366 162.462Z" fill="#426587"/>
<path d="M134.849 166.833C135.557 166.986 136.008 167.483 135.948 168.205C135.406 168.222 135.413 168.3 134.957 168.068C134.724 167.648 134.81 167.325 134.849 166.833Z" fill="#FDFCFD"/>
<path d="M119.209 168.964C119.456 168.954 119.772 168.91 119.973 169.094C120.9 169.937 121.727 170.887 122.573 171.81L127.322 176.957C126.357 177.451 125.614 177.68 124.591 178.024C124.158 177.598 123.386 176.558 123.1 176.45C122.716 176.726 120.709 177.345 120.05 177.58L120.032 179.646C119.164 180.015 118.272 180.334 117.387 180.661C117.552 178.927 117.672 177.189 117.748 175.45C117.798 174.165 117.813 170.497 118.146 169.456C118.448 169.129 118.77 169.092 119.209 168.964Z" fill="#426587"/>
<path d="M120.243 173.157C120.791 173.405 121.356 174.121 121.232 174.731C120.717 174.846 120.567 174.964 120.156 174.626C120.018 174.144 120.157 173.666 120.243 173.157Z" fill="#DAF8FA"/>
<path d="M98.7466 172.573C100.813 172.338 101.449 172.577 103.076 173.805C102.426 174.567 102.189 174.968 101.682 175.818C100.975 175.24 100.585 174.716 99.77 174.791C99.3904 175.101 99.3543 175.112 99.1504 175.545L99.2406 175.776C100.686 176.949 104.859 176.926 102.992 181.287C102.509 182.417 101.458 182.829 100.329 183.158C100.039 183.166 99.7498 183.166 99.4604 183.157C97.8414 183.091 97.0276 182.16 96.0312 181.057C96.6978 180.393 97.2917 179.791 97.924 179.088C98.1781 179.696 98.3657 180.3 99.0407 180.557C99.789 180.843 100.309 180.675 100.595 179.901C100.473 178.206 97.4354 178.624 96.8628 177.308C95.8258 174.925 96.8159 173.608 98.7466 172.573Z" fill="#426587"/>
<path d="M64.9333 13.2021C65.1198 13.2247 65.1783 13.2674 65.3578 13.3383C65.7198 13.8449 66.0773 15.1229 66.3553 15.8094C67.5337 18.7193 70.2766 22.3573 68.9891 25.5828C68.5985 26.6373 67.0319 27.9218 65.9434 28.1597C61.6494 29.098 58.9631 24.9922 60.7302 21.2372C61.2758 20.4257 61.7432 19.48 62.8164 19.6308C63.2412 19.9195 63.3357 20.319 63.5396 20.811C62.4084 21.8374 62.3087 21.9931 61.7787 23.4291C62.7709 27.5337 66.2819 27.6746 67.7569 23.721C67.1414 21.3701 63.7407 15.0052 63.8664 13.62C64.1423 13.3276 64.5211 13.2993 64.9333 13.2021Z" fill="#232222"/>
<path d="M157.166 141.958C158.293 143.147 163.141 147.429 164.392 148.105L163.263 149.143C160.494 149.242 157.657 149.276 154.881 149.34C156.403 150.769 158.156 152.043 159.756 153.582C159.487 153.94 159.08 154.336 158.762 154.664C158.527 154.668 158.245 154.714 158.058 154.548C155.883 152.62 153.609 150.647 151.473 148.684C151.789 148.398 152.156 147.985 152.456 147.669C155.126 147.6 157.797 147.545 160.468 147.504C159.268 146.096 157.402 144.797 155.997 143.397C156.583 142.816 156.712 142.65 157.166 141.958Z" fill="#3E3D3E"/>
<path d="M178.763 77.7289C178.999 77.6647 178.906 77.6824 179.17 77.744C179.868 79.2771 179.783 81.8798 179.154 83.4347C178.244 83.8116 177.861 83.9176 176.896 84.1349L176.781 84.0958C175.635 83.6919 175.583 83.6313 174.619 82.8634C173.912 82.9822 171.784 85.5082 171.316 86.1688C171.246 85.4408 171.073 84.7509 170.914 84.0383C171.183 83.5154 173.574 81.189 174.199 80.515C172.988 80.7702 171.459 80.9071 170.228 81.0204C170.234 80.454 170.149 79.8481 170.086 79.2818C172.976 78.8836 175.874 78.223 178.763 77.7289Z" fill="#3E3D3E"/>
<path d="M177.033 79.9261C177.669 79.8908 177.697 79.785 178.186 80.0742C178.699 81.2297 177.92 81.9812 176.916 82.4096C176.011 81.9507 175.164 81.4287 175.641 80.3309C176.036 79.9584 176.468 79.9878 177.033 79.9261Z" fill="#FDFCFD"/>
<path d="M27.0127 129.346C28.7907 131.347 26.6988 133.637 25.7138 135.61C26.8844 134.868 28.1075 134.212 29.3733 133.648C29.5921 134.259 29.8389 134.814 30.0975 135.408C28.3301 136.216 26.3135 137.284 24.5413 138.164L21.8447 139.622C21.0921 137.9 19.1159 135.432 20.6114 133.703C21.8632 132.257 23.6098 132.536 24.8872 133.674C25.5645 132.061 26.3355 130.86 27.0127 129.346Z" fill="#3E3D3E"/>
<path d="M22.6088 134.422C23.5764 134.39 24.7938 134.778 24.4174 136.078C24.3096 136.45 23.666 136.643 23.311 136.803L22.2641 137.402C21.8823 136.071 21.5247 135.462 22.6088 134.422Z" fill="#FDFCFD"/>
<path d="M49.7236 157.186C50.9546 157.733 53.4164 159.634 54.6568 160.46C54.0102 161.196 53.7645 161.721 53.3444 162.598C52.8567 162.05 51.474 161.082 50.7964 160.852C50.3053 160.927 50.4826 160.839 50.1271 161.184C50.1058 162.217 51.8054 162.622 52.1806 163.565C52.0713 164.001 51.1456 165.072 50.7493 165.219L50.5278 164.962C49.7827 164.497 49.3052 164.185 48.6168 163.646C48.0944 164.538 46.8377 166.229 46.21 167.149C44.528 165.259 43.5523 166.48 45.5803 163.334C46.8677 161.338 48.6352 159.241 49.7236 157.186Z" fill="#426587"/>
<path d="M38.5528 31.4512C38.9394 31.7354 39.3701 31.9204 39.806 32.115C42.4754 33.3057 45.2482 34.2698 47.8062 35.6993C47.2926 36.3249 47.1464 36.4581 46.5092 36.9609C45.9005 36.7698 45.3283 36.5596 44.7299 36.3408C43.7541 36.8872 43.4031 37.2723 42.6131 38.0355C42.0672 38.4919 42.0406 38.4886 41.8908 39.0687C41.9514 39.6608 42.38 40.1801 42.719 40.6909C41.9955 41.3537 41.7813 41.5851 41.1991 42.4171C40.9289 41.2611 40.3285 39.8775 39.9168 38.7178C39.1966 36.6902 38.492 34.6201 37.7031 32.621C38.1344 32.1886 38.2487 31.9626 38.5528 31.4512Z" fill="#3E3D3E"/>
<path d="M40.0039 34.0625C40.9186 34.3032 42.2577 35.0128 43.1461 35.4442L42.3197 36.2496C41.9757 36.6027 41.5591 36.9472 41.1849 37.2735C40.8357 36.1688 40.2893 35.1895 40.0039 34.0625Z" fill="#FDFCFD"/>
<path d="M169.751 114.294C170.765 114.847 176.521 119.695 177.374 120.65C177.477 121.188 177.446 121.275 177.31 121.81C176.914 122.297 173.947 122.45 173.059 122.581C171.089 122.781 169.274 123.03 167.266 123.198L167.666 121.44C168.485 121.268 169.131 121.26 169.959 121.226C170.18 120.002 170.578 118.778 170.932 117.583C170.267 116.978 169.951 116.74 169.199 116.246C169.355 115.516 169.518 115.006 169.751 114.294Z" fill="#3E3D3E"/>
<path d="M172.114 118.537C172.715 118.73 174.656 120.082 174.651 120.752L174.355 120.782C173.556 120.945 172.463 121.05 171.633 121.154C171.743 120.216 171.915 119.454 172.114 118.537Z" fill="#FDFCFD"/>
<path d="M153.996 33.2664C154.596 33.2056 154.924 33.3815 155.234 33.8958C155.469 34.8191 152.417 42.1438 151.898 43.8603C151.399 43.1499 151.072 42.867 150.431 42.2663C150.763 41.4642 151.461 40.7042 150.935 40.0526C150.163 39.3148 149.418 38.4537 148.622 37.6779C148.028 37.8406 147.181 38.2105 146.586 38.4508C146.077 38.0898 145.607 37.5906 145.16 37.1502C148.182 35.8955 151.01 34.5659 153.996 33.2664Z" fill="#3E3D3E"/>
<path d="M165.334 46.2354L165.579 46.2615C165.988 46.5506 166.082 46.5957 166.301 47.0403C166.459 47.9384 161.978 54.338 161.182 56.0567C160.723 55.285 160.551 55.0509 159.958 54.3796C160.438 53.7717 160.758 53.1972 161.149 52.5345L159.028 49.3675L156.982 49.9751C156.644 49.5508 156.07 48.931 156.111 48.4102C157.103 47.6279 163.644 46.6515 165.334 46.2354Z" fill="#3E3D3E"/>
<path d="M27.2315 44.1016C30.3503 44.9739 34.079 45.6084 37.0214 46.4924L36.0831 48.0324L33.9295 47.5388C33.2284 48.5939 32.6702 49.3692 31.8879 50.3651L31.7688 50.532C31.7824 51.0029 32.4997 51.9918 32.8097 52.5473L31.6976 54.1901C30.5107 52.0749 27.2996 47.1412 26.5938 45.4075L27.2315 44.1016Z" fill="#3E3D3E"/>
<path d="M29.2031 46.502C30.2561 46.6713 31.3051 46.8652 32.3492 47.0831C32.0652 47.5129 31.7723 48.0122 31.5 48.4559C31.3071 48.842 31.2613 48.9242 30.9809 49.2507C30.4749 49.024 29.4609 47.0755 29.2031 46.502Z" fill="#FDFCFD"/>
<path d="M21.5237 75.6633C21.9356 75.615 21.8453 75.5629 22.1509 75.725C22.3122 76.2424 22.1002 76.7929 21.9652 77.3483C21.2138 77.4741 20.4633 77.6044 19.7135 77.7393C19.5026 79.068 19.2957 80.1988 18.8846 81.4811L20.6749 82.9011C20.4494 83.4994 20.3183 84.1578 20.1731 84.783C19.316 83.9428 18.1155 83.2262 17.1146 82.4512C16.1329 81.6526 15.0769 80.9569 14.0606 80.2102C13.0723 79.484 11.6483 78.9041 12.3455 77.459C12.9678 77.0524 20.281 75.8859 21.5237 75.6633Z" fill="#3E3D3E"/>
<path d="M17.5103 78.1577C17.6924 78.1112 17.6952 78.1413 17.9016 78.1739C18.0775 78.672 17.6986 80.2041 17.5757 80.8113C17.1224 80.3859 16.7824 80.1494 16.2787 79.7898C15.689 79.2874 15.0423 78.8752 14.3984 78.445C15.4363 78.355 16.4735 78.2593 17.5103 78.1577Z" fill="#FDFCFD"/>
<path d="M19.3595 92.6738C19.5785 93.0039 19.5655 94.009 19.596 94.4874C18.7799 94.9661 18.5026 95.1281 17.6166 95.4278L17.7097 99.3705C18.3669 99.5661 18.993 99.7292 19.6579 99.8973L19.6761 101.855C17.8624 101.288 16.103 100.572 14.3339 99.8786C7.0146 97.0162 11.0527 96.7466 15.6108 94.4133C16.8079 93.8005 18.2233 93.3849 19.3595 92.6738Z" fill="#3E3D3E"/>
<path d="M15.8166 96.2402L16.0848 96.2589C16.3288 96.6095 16.2847 98.2785 16.2926 98.779C15.7342 98.5112 14.9255 98.2126 14.3331 97.9747L12.7852 97.4821C13.803 97.1049 14.8153 96.6627 15.8166 96.2402Z" fill="#FDFCFD"/>
<path d="M23.2842 50.2529C23.8547 50.4424 30.5045 54.4185 31.2873 54.9672C30.9274 55.4966 30.6376 55.9584 30.3098 56.5085L30.0473 56.4766C29.0623 55.561 27.9741 55.1326 26.7641 54.5514C26.1665 55.3729 25.3047 56.9541 24.8312 57.8619C25.9686 58.6379 27.399 58.8921 28.0592 60.1054C28.0809 60.6821 27.9584 60.6852 27.6393 61.2523L27.5409 61.337C26.8811 61.3565 20.8317 57.5689 19.3789 57.0316C19.665 56.4048 19.7724 55.9235 20.3357 55.6159C21.3302 55.4507 22.3108 56.5005 23.6375 57.0861C24.1836 55.8256 24.6598 54.8734 25.3041 53.6575C24.3357 53.0248 23.1949 52.3699 22.1945 51.7668C22.4873 51.2584 22.9211 50.7274 23.2842 50.2529Z" fill="#3E3D3E"/>
<path d="M144.302 24.2949C145.011 25.0767 145.872 25.646 144.893 26.6972C144.384 27.2427 143.902 27.7996 143.416 28.366C144.468 29.3262 145.265 30.0891 146.478 30.8509C147.212 30.0297 148.036 28.9269 148.767 28.0491C149.209 28.3742 149.635 28.7797 150.044 29.1488C149.974 29.2988 144.454 36.6132 144.42 36.6404L144.226 36.4507C143.838 36.0146 143.396 35.8215 142.881 35.5364C143.765 34.4584 144.787 33.2889 145.48 32.0945C144.476 31.2151 143.573 30.5636 142.457 29.8444C141.604 30.7163 140.628 32.0616 139.912 33.0607L138.43 31.8874C139.633 30.5717 143.345 25.7432 144.302 24.2949Z" fill="#3E3D3E"/>
<path d="M73.3571 10.3668C73.4017 10.3594 73.5194 10.42 73.5744 10.4424C74.3245 12.2309 75.4697 16.1602 75.8962 18.0928C76.5579 21.0907 73.6589 22.2834 71.0796 22.5839L70.5772 20.9867C71.1795 20.7782 71.8842 20.6089 72.5076 20.4444C71.9658 19.8221 70.71 17.9325 70.1412 17.1528C69.2498 16.0021 68.8128 15.4304 68.2383 14.0923L69.5711 13.2711C71.0163 14.9281 72.9521 18.0905 74.3462 20.0234C73.8675 17.334 72.789 13.7172 72.0418 11.1038C72.1768 10.8685 72.9814 10.5745 73.3571 10.3668Z" fill="#232222"/>
<path d="M139.272 158.878C139.627 159.062 143.182 164.309 143.762 165.088C144.89 164.402 145.271 164.171 146.266 163.31C146.768 164.271 146.79 164.397 147.521 165.227C146.934 165.861 146.309 166.349 145.643 166.895C144.916 167.476 144.125 168.175 143.244 168.463C142.646 168.329 137.94 161.531 137.16 160.465C137.822 159.937 138.588 159.389 139.272 158.878Z" fill="#426587"/>
<path d="M126.024 166.2C127.24 168.361 128.263 171.25 129.511 173.582C130.228 173.063 131.047 172.309 132.008 172.615C132.336 172.721 132.601 172.967 132.729 173.288C133.276 174.654 131.623 175.127 130.701 175.513C129.738 175.985 128.889 176.395 127.965 176.945C127.448 175.456 124.475 168.836 123.648 167.499C124.667 167.134 125.267 166.967 126.024 166.2Z" fill="#426587"/>
<path d="M176.967 70.1328L177.244 70.1933C177.781 71.5519 178.342 73.8291 178.687 75.2585L176.95 75.4947C176.756 74.4527 176.585 73.4067 176.433 72.3573C175.779 72.5319 175.061 72.6739 174.393 72.8178C174.608 73.7902 174.796 74.8513 175.02 75.887L174.817 76.1365C174.352 76.3311 174.279 76.3227 173.773 76.2813C173.351 75.9626 173.215 74.1558 172.692 73.4946L172.368 73.4597C171.679 73.6267 170.986 73.8105 170.3 73.9864C170.655 74.7324 171.341 76.6711 170.825 77.3651C170.336 77.429 170.251 77.4261 169.761 77.3538C169.059 76.8032 169.222 74.5487 168.337 72.9628L168.246 72.8011C170.865 71.8671 174.257 70.9118 176.967 70.1328Z" fill="#3E3D3E"/>
<path d="M30.8549 136.652C31.1127 136.72 33.3134 140.471 33.6512 141.008C32.5574 141.674 31.4072 142.547 30.3116 143.252C28.868 144.182 27.3825 145.067 26.0109 146.094C25.1186 145.085 23.7996 143.067 23.2611 141.767C23.179 141.569 23.2509 141.569 23.3966 141.343C23.7476 141.223 23.9155 141.187 24.2811 141.116C25.0301 141.312 25.7083 142.939 26.3121 143.793C26.8679 143.354 27.4476 142.921 28.0104 142.489C27.4251 141.813 26.4093 140.546 26.5857 139.64C26.9549 139.357 27.0969 139.18 27.5414 139.185C27.9514 139.449 28.8703 141.043 29.1989 141.565C29.9365 141.241 30.6714 140.911 31.4032 140.574C30.8332 139.203 30.4782 138.805 29.5419 137.687L30.8549 136.652Z" fill="#3E3D3E"/>
<path d="M34.411 142.525C35.2366 142.666 36.3754 143.936 36.7763 144.656C38.925 148.518 35.314 152.84 31.1482 151.741C29.5982 151.333 28.6707 150.113 27.9529 148.769C27.5135 147.489 28.4857 147.322 29.3551 146.393C29.434 147.429 29.4952 147.779 29.7849 148.781C31.2009 150.22 31.7427 150.207 33.67 149.903C34.5926 149.199 35.2873 148.436 35.5219 147.269C36.1113 144.337 33.4423 144.302 33.0532 143.711C33.1782 143.425 34.1268 142.734 34.411 142.525Z" fill="#3E3D3E"/>
<path d="M19.0614 102.498C19.4263 102.448 19.2479 102.427 19.6064 102.608C20.6534 104.179 20.7568 106.489 19.6501 108.073C18.8701 109.203 17.6737 109.977 16.3233 110.226C12.8941 110.824 11.2219 108.438 10.6836 105.412C10.7266 104.736 10.9165 104.185 11.1049 103.537C11.807 103.437 12.5935 103.378 13.3054 103.309C11.5593 105.002 12.1419 106.133 13.5087 107.779C15.1688 108.424 16.0802 108.352 17.6661 107.706L17.741 107.621C19.8796 105.147 17.984 103.809 17.9063 102.756C18.3028 102.447 18.4773 102.539 19.0614 102.498Z" fill="#3E3D3E"/>
<path d="M173.875 107.534C179.257 107.271 180.691 110.54 179.002 115.272C178.145 115.197 177.289 115.109 176.435 115.008C178.156 113.702 178.959 112.408 177.339 110.429C175.332 108.758 173.795 108.966 172.011 110.787C171.653 112.289 171.715 112.651 171.994 114.191L170.088 113.847C169.992 110.713 170.516 108.43 173.875 107.534Z" fill="#3E3D3E"/>
<path d="M11.2883 84.3896C11.9486 84.5275 12.7319 84.5548 13.4143 84.5988C12.4793 85.5179 12.4037 85.6828 12.0483 86.9527C12.2171 87.8616 12.3235 88.4728 13.0107 89.167C13.6613 89.8313 14.5522 90.2053 15.482 90.2042C17.5855 90.1955 18.8701 88.3473 18.529 86.3381C18.4631 85.9502 18.0197 85.4007 18.0126 85.0284C18.7334 84.8207 19.6969 85.0923 20.0256 85.8258C20.6539 88.149 19.7413 90.6027 17.4633 91.5837C16.1384 92.1504 14.6405 92.1565 13.311 91.6006C10.1204 90.2842 10.1036 87.1576 11.2883 84.3896Z" fill="#3E3D3E"/>
<path d="M170.673 62.4585C174.425 62.0778 176.227 64.4155 176.42 67.9442C175.837 68.1531 175.118 68.3588 174.517 68.5481C174.908 65.7249 174.285 65.0269 171.679 64.1041C170.773 64.3464 170.149 64.5175 169.364 65.0314C168.934 65.5508 168.448 66.3617 168.311 67.0259C167.948 68.7823 169.099 69.1408 169.796 70.1858C169.612 70.4751 168.774 70.9603 168.446 71.1709C166.289 69.3046 165.959 65.9578 168.035 63.8655C168.8 63.0938 169.657 62.7874 170.673 62.4585Z" fill="#3E3D3E"/>
<path d="M110.421 13.5732C111.697 13.8516 113.075 14.2858 114.34 14.6575C115.565 15.7873 116.116 17.19 115.352 18.7648C116.072 19.1279 116.003 19.2087 116.484 19.7884C116.241 19.9711 116.247 19.9364 116.068 20.174L116.005 21.2956L115.875 21.3289C115.34 21.3386 114.379 21.0938 113.815 20.9716C112.213 20.5739 110.521 20.1219 108.902 19.8395L109.426 18.0257C110.48 18.3696 112.185 19.1459 113.243 18.6041C113.496 18.4747 113.973 17.7566 114.156 17.4907L113.249 16.2616C112.132 15.983 111.131 15.7364 110.035 15.3782C110.233 14.8146 110.319 14.1659 110.421 13.5732Z" fill="#232222"/>
<path d="M115.133 19.1467C115.172 19.0157 115.272 18.8903 115.352 18.7656C116.071 19.1287 116.002 19.2096 116.484 19.7892C116.241 19.9719 116.246 19.9373 116.068 20.1748C115.985 19.8632 115.402 19.3971 115.133 19.1467Z" fill="#3E3D3E"/>
<path d="M16.66 115.778C17.6127 115.758 17.8671 115.762 18.2251 116.833C18.4162 117.404 18.582 117.995 18.7627 118.57C19.9263 117.862 21.1865 117.675 22.5013 117.351L23.0376 119.124C20.853 119.712 18.6795 120.341 16.5181 121.009C15.8544 121.213 14.7555 121.385 14.0427 121.517C13.8018 120.156 13.1584 118.259 12.8008 116.785C13.3589 116.7 13.9312 116.627 14.4917 116.55C14.6447 117.537 14.5729 118.775 15.4461 119.285C16.0018 119.334 16.4777 119.055 17.0103 118.827C16.8289 118.025 16.3758 116.461 16.66 115.778Z" fill="#3E3D3E"/>
<path d="M171.927 96.916C175.017 96.9476 178.107 96.9967 181.197 97.0634C181.195 98.7018 181.126 100.386 181.079 102.027C180.557 102.037 180.201 102.076 179.695 101.935C179.401 101.504 179.505 101.469 179.528 100.867L179.542 98.8451L177.507 98.796L177.462 101.688L175.936 101.6L176.017 98.7862C174.745 98.6889 173.181 98.7189 171.883 98.7128L171.927 96.916Z" fill="#3E3D3E"/>
<path d="M78.593 14.0493C81.502 13.8418 81.792 15.9659 83.74 17.5153L83.8581 17.6074C82.3346 19.0346 83.4532 18.8696 83.3726 19.6134C82.5139 19.8968 78.6462 20.6534 77.7487 20.7041C77.6603 20.4418 77.6019 20.286 77.4913 20.0329C77.2628 19.6779 77.1715 19.5866 77.0885 19.1838C77.672 18.7423 80.6466 18.882 81.3966 17.9798C81.3826 17.649 81.3108 17.4431 81.0782 17.1982C79.9265 15.986 78.9169 15.7555 77.6366 16.8261L77.5702 16.8824C77.0302 17.0049 76.4649 16.7643 75.9062 16.6022C76.538 14.8765 76.8972 14.6306 78.593 14.0493Z" fill="#232222"/>
<path d="M179.176 85.4531C179.544 85.4165 180.223 85.32 180.516 85.5196C180.827 86.7268 180.976 90.0876 181.059 91.5018L179.448 91.5756C179.421 90.896 179.349 90.1634 179.297 89.4805C178.044 89.6853 176.19 89.7468 174.914 89.7997C173.848 89.8514 172.784 89.9267 171.721 90.0256L171.598 88.1566C174.16 88.0362 176.705 87.7787 179.258 87.5419C179.147 86.6716 179.14 86.3344 179.176 85.4531Z" fill="#3E3D3E"/>
<path d="M24.9954 125.638C25.4373 125.871 25.9068 126.793 26.1839 127.259C24.4777 127.811 20.8979 129.635 19.1868 130.457C19.5012 131.278 19.878 132.028 19.2389 132.782C18.1764 133.073 17.9274 131.996 17.5967 131.194C17.2093 130.324 16.2788 128.444 16.2461 127.559C16.5213 127.224 17.1721 127.093 17.5699 127.244C17.7931 127.736 18.0099 128.232 18.2204 128.729C19.8892 128.195 23.5228 126.506 24.9954 125.638Z" fill="#3E3D3E"/>
<path d="M166.451 124.53C168.152 125.095 172.117 126.726 173.702 127.546C174.053 126.959 174.341 126.178 174.602 125.533C175.139 125.781 175.452 125.867 176.016 126.032C175.526 127.172 175.108 128.173 174.69 129.339C174.405 130.38 174.244 131.307 173.032 131.624C172.176 130.96 172.767 129.996 173.104 129.159C171.04 128.194 168.267 127.2 166.098 126.361C166.227 125.781 166.338 125.12 166.451 124.53Z" fill="#3E3D3E"/>
<path d="M40.0297 153.674C41.4856 153.502 42.8113 154.528 43.0101 155.98C43.209 157.433 42.2079 158.778 40.7592 159.003C39.7982 159.151 38.8314 158.771 38.2306 158.006C37.6299 157.242 37.489 156.212 37.862 155.313C38.235 154.415 39.0638 153.788 40.0297 153.674Z" fill="#426587"/>
<path d="M134.761 23.2647C135.678 22.9556 136.691 23.164 137.411 23.8105C138.132 24.4568 138.448 25.4409 138.239 26.386C138.031 27.3311 137.33 28.0908 136.405 28.3744C135.001 28.8045 133.513 28.0274 133.063 26.6302C132.614 25.2328 133.37 23.7335 134.761 23.2647Z" fill="#232222"/>
<path d="M54.5111 23.3132C55.4259 22.9472 56.4677 23.1119 57.2251 23.7421C57.9823 24.3725 58.3333 25.3672 58.1393 26.3332C57.9453 27.2993 57.2376 28.0813 56.2957 28.3704C54.9693 28.7776 53.5512 28.1067 53.0249 26.823C52.6944 26.0171 52.7756 25.1007 53.2428 24.3656C53.5447 23.8905 53.9884 23.5223 54.5111 23.3132Z" fill="#232222"/>
<path d="M149.393 153.774C150.333 153.495 151.349 153.75 152.045 154.44C152.742 155.129 153.007 156.143 152.736 157.085C152.466 158.027 151.704 158.746 150.748 158.962C149.338 159.279 147.929 158.421 147.564 157.023C147.199 155.624 148.008 154.187 149.393 153.774Z" fill="#426587"/>
<path d="M31.8008 38.415C32.5507 38.6335 36.9805 42.737 37.7675 43.5394C38.6202 42.5225 38.8675 42.296 39.5659 41.1225L40.8786 42.422L39.8823 43.4616C39.1465 44.2621 38.426 45.0766 37.7211 45.9045C36.6862 44.7829 32.0299 40.7959 30.7852 39.8651C31.1085 39.4815 31.5105 38.8469 31.8008 38.415Z" fill="#3E3D3E"/>
<path d="M159.302 38.335C159.701 38.5448 160.309 39.4111 160.61 39.8074C158.418 41.2773 156.913 43.2479 154.681 44.5937C155.289 45.5942 156.348 46.1313 156.331 47.1739C155.985 47.6878 155.96 47.5872 155.338 47.8999C154.252 46.7093 153.443 45.4864 152.191 44.3704C154.094 43.2436 157.541 39.9368 159.302 38.335Z" fill="#3E3D3E"/>
<path d="M44.8945 26.6914C45.2646 26.943 48.7411 32.1354 49.1929 32.8696C50.0471 32.3646 50.8786 31.2588 51.8463 31.578C52.1415 31.8954 52.1724 31.938 52.2516 32.3625C52.0547 33.0009 51.5456 33.1879 50.9348 33.5668C50.0044 34.1156 49.4417 34.6009 48.702 35.3725C48.0831 33.9112 43.4647 28.5502 43.5641 27.3876C43.8881 26.9959 44.396 26.8778 44.8945 26.6914Z" fill="#3E3D3E"/>
<path d="M169.242 52.2275C169.739 52.5645 170.029 53.1184 170.359 53.6315C168.169 54.8983 165.967 56.2897 163.784 57.593C164.218 58.4012 164.806 59.2193 164.724 60.0966C164.386 60.621 164.355 60.5204 163.735 60.8462L161.379 56.7828C163.302 55.8434 167.414 53.3881 169.242 52.2275Z" fill="#3E3D3E"/>
<path d="M87.1133 8.01968L88.766 7.91992C88.8467 9.3441 89.0331 10.8871 89.1272 12.3488C89.2627 14.4565 89.3306 16.8571 89.6528 18.9098C89.0701 18.9444 88.4982 19.0649 87.9224 19.168C87.5222 15.4625 87.2523 11.7441 87.1133 8.01968Z" fill="#232222"/>
<path d="M85.2567 8.18164L85.4182 8.20195C85.8617 9.23458 86.1967 14.8272 86.4931 16.2704C86.7432 17.488 85.534 18.74 84.7427 19.688C84.5295 19.45 84.4764 18.3487 84.5002 18.0118C84.7304 14.7508 84.1085 11.5682 83.6719 8.32867L85.2567 8.18164Z" fill="#232222"/>
<path d="M20.884 110.986L21.0319 111.02C21.2333 111.346 21.3636 112.503 21.4324 112.951C19.3257 113.307 14.6247 114.374 12.5893 114.898L12.4991 114.887C12.159 114.531 12.1364 113.753 12.043 113.183C14.3138 112.75 18.7202 111.664 20.884 110.986Z" fill="#3E3D3E"/>
<path d="M23.4924 121.154L23.7033 121.18C23.9813 121.431 24.1607 122.407 24.267 122.834C22.6093 123.234 17.2007 125.074 15.7164 125.729L15.4017 125.664C15.0695 125.174 15.0244 124.627 14.9102 124.033C17.37 123.461 21.026 121.604 23.4924 121.154Z" fill="#3E3D3E"/>
<path d="M164.571 129.156C165.615 129.474 171.641 132.688 172.976 133.378C172.687 133.871 172.32 134.417 172.008 134.904C170.074 133.86 165.564 131.857 163.984 130.695C164.232 130.131 164.378 129.741 164.571 129.156Z" fill="#3E3D3E"/>
<path d="M171.662 103.356C172.169 103.382 172.741 103.468 173.244 103.549C175.778 103.959 178.284 104.17 180.842 104.368C180.81 104.958 180.682 105.616 180.585 106.207C177.545 105.923 174.612 105.449 171.582 105.131L171.662 103.356Z" fill="#3E3D3E"/>
<path d="M181.055 92.8984C181.162 93.0574 181.182 94.2852 181.195 94.5781C178.464 94.8154 174.956 94.8357 172.164 94.9284L171.98 94.8584C171.797 94.4432 171.903 93.7148 171.932 93.2243C174.819 93.2525 178.169 93.089 181.055 92.8984Z" fill="#232222"/>
<path d="M130.861 20.0098C131.049 20.0797 132.321 20.8275 132.552 20.9579C131.261 23.0008 130.98 25.2199 128.252 25.6625C127.815 25.6482 127.622 25.6527 127.199 25.5573C127.42 25.2695 127.608 25.304 128.028 25.1949C128.574 24.4274 127.926 24.4988 127.941 23.7806C130.113 23.1862 129.725 21.9618 130.861 20.0098Z" fill="#232222"/>
<path d="M107.033 12.9775C107.61 13.1533 108.215 13.2193 108.814 13.308C108.666 15.059 108.495 17.2223 107.194 18.5276C106.788 18.7278 106.51 18.9257 106.071 18.893C105.714 18.122 106.673 15.8554 106.812 14.8853C106.91 14.2034 106.975 13.6765 107.033 12.9775Z" fill="#232222"/>
<path d="M10.4409 74.8301C11.1085 74.9904 11.4882 75.9874 11.7797 76.5617C11.2372 77.2872 10.2352 78.3074 10.5129 79.255C10.6023 79.5604 10.5776 79.6806 10.5156 79.9836C9.9145 80.1224 10.1584 80.1366 9.58907 79.9487C8.58957 79.0133 9.49088 77.6301 10.189 76.8467C10.1741 75.9473 10.0753 75.6366 10.4409 74.8301Z" fill="#3E3D3E"/>
<path d="M130.914 17.0566C133.022 17.1294 132.728 18.1699 131.573 19.4295C130.312 19.0667 129.596 17.9111 130.914 17.0566Z" fill="#232222"/>
<path d="M105.893 20.9965C106.845 20.5613 107.367 20.2019 108.054 21.1825C108.168 21.9404 107.868 22.5261 107.076 22.6497C106.179 22.4681 106.059 21.9171 105.84 21.111L105.893 20.9965Z" fill="#232222"/>
<path d="M101.603 10.6015C101.134 11.2437 100.772 11.8038 99.8946 11.503C99.3906 10.9073 99.452 10.1247 99.9654 9.55569C100.872 9.18073 101.159 9.73994 101.613 10.4531L101.603 10.6015Z" fill="#232222"/>
<path d="M101.615 10.4524C102.197 9.73926 102.654 9.13557 103.539 9.89347C103.862 10.6908 103.74 11.1629 103.011 11.5816C102.167 11.6377 102.049 11.2483 101.605 10.6009L101.615 10.4524Z" fill="#232222"/>
<path d="M133.041 18.1028C133.738 18.0929 134.367 18.412 134.569 19.1119C134.469 19.6764 134.562 19.4604 134.114 19.9361C133.477 20.2189 133.465 20.2121 132.877 20.0494C132.222 19.3432 132.527 18.7792 133.041 18.1028Z" fill="#232222"/>
<path d="M21.3701 86.9902C21.9824 87.0384 22.9105 88.204 23.1307 88.7533C23.0639 89.2586 23.1546 89.0727 22.7697 89.445C22.0201 89.0704 21.0457 88.6138 20.7891 87.7824C20.9179 87.2703 20.9018 87.4144 21.3701 86.9902Z" fill="#3E3D3E"/>
<path d="M116.795 19.1467C116.834 19.0157 116.933 18.8903 117.014 18.7656C117.733 19.1287 117.664 19.2096 118.146 19.7892C117.903 19.9719 117.908 19.9373 117.73 20.1748L117.667 21.2965L117.537 21.3297C117.002 21.3395 116.04 21.0946 115.477 20.9724C115.9 20.8548 115.961 20.8617 116.273 20.5755C116.187 19.9158 116.428 19.664 116.795 19.1467Z" fill="#FDFCFD"/>
<path d="M116.273 20.5752C116.763 20.687 117.303 20.8399 117.537 21.3294C117.002 21.3392 116.04 21.0943 115.477 20.9721C115.9 20.8546 115.961 20.8614 116.273 20.5752Z" fill="#232222"/>
<path d="M163.489 48.7087C163.678 48.6694 163.679 48.697 163.885 48.7315C163.961 49.3054 162.802 50.8472 162.341 51.1851L162.116 51.04C161.58 50.4336 161.181 49.9228 160.691 49.2758C161.701 49.0086 162.466 48.8782 163.489 48.7087Z" fill="#FDFCFD"/>
<path d="M152.455 35.7733C152.635 35.7039 152.641 35.731 152.85 35.7316C153.017 36.2857 152.123 37.9948 151.724 38.4029L151.478 38.2963C150.85 37.7847 150.374 37.3453 149.786 36.7862C150.739 36.3589 151.473 36.1063 152.455 35.7733Z" fill="#FDFCFD"/>
<circle cx="96.1914" cy="96.1895" r="93.5" stroke="#426587" stroke-width="2"/>
<circle cx="95.6914" cy="95.6895" r="68" stroke="#426587" stroke-width="2"/>
</g>
<defs>
<clipPath id="clip0_321_80">
<rect width="191.379" height="191.379" fill="white"/>
</clipPath>
</defs>
</svg>
