<svg width="128" height="30" viewBox="0 0 128 30" fill="none" xmlns="http://www.w3.org/2000/svg">
<g clip-path="url(#clip0_493_997)">
<path d="M65.9668 15.3477C65.9668 18.1169 64.7219 20.5942 62.7668 22.2458L62.1479 21.388L61.6555 20.7081L60.5303 19.1527C61.5465 18.2059 62.1795 16.8498 62.1795 15.3513C62.1795 15.0096 62.1479 14.675 62.081 14.3547L63.8991 13.7602L64.6938 13.5004L65.696 13.1729C65.8683 13.8706 65.9597 14.5967 65.9597 15.3477H65.9668Z" fill="#1E415E"/>
<path d="M65.3177 11.9773L64.312 12.3048L63.5173 12.5646L61.6992 13.159C60.9608 11.5644 59.4417 10.4112 57.6377 10.1941V6.37487C61.1261 6.61691 64.0623 8.86643 65.3142 11.9809L65.3177 11.9773Z" fill="#1E415E"/>
<path d="M61.1446 22.1283C59.9419 22.8687 58.5318 23.2958 57.0197 23.2958C52.6558 23.2958 49.1182 19.7364 49.1182 15.3477C49.1182 10.9591 52.3217 7.74851 56.3938 7.42461V10.1867C53.8338 10.4963 51.8505 12.6853 51.8505 15.3442C51.8505 18.213 54.1643 20.5409 57.0197 20.5409C57.9305 20.5409 58.785 20.3024 59.5305 19.8859L60.6487 21.4378L61.1446 22.1212V22.1283Z" fill="#1E415E"/>
<path d="M12.6383 19.6938L13.542 15.4261L12.6383 11.1905V7.86246H15.9473V22.9898H12.7895L12.6383 19.6902V19.6938ZM11.615 19.046C12.4976 18.1277 12.9407 16.9246 12.9407 15.4297C12.9407 13.9347 12.4976 12.7317 11.615 11.8134C10.7323 10.895 9.56836 10.4359 8.12309 10.4359C6.67781 10.4359 5.51385 10.895 4.63121 11.8134C3.74858 12.7317 3.3055 13.9347 3.3055 15.4297C3.3055 16.9246 3.74506 18.1277 4.63121 19.046C5.51385 19.9643 6.67781 20.4235 8.12309 20.4235C9.56836 20.4235 10.7288 19.9643 11.615 19.046ZM11.0558 8.68468C12.0299 9.37163 12.7613 10.2935 13.2536 11.4539C13.7459 12.6142 13.9921 13.9383 13.9921 15.4332C13.9921 16.9282 13.7459 18.2665 13.2536 19.4589C12.7613 20.6513 12.0299 21.5874 11.0558 22.2743C10.0818 22.9613 8.87561 23.303 7.43034 23.303C5.98506 23.303 4.69803 22.9755 3.56572 22.3206C2.43341 21.6657 1.55429 20.7438 0.931869 19.5514C0.309451 18.359 0 16.9887 0 15.4368C0 13.8849 0.309451 12.511 0.931869 11.3222C1.55429 10.1333 2.42989 9.21146 3.56572 8.55298C4.69803 7.89806 5.98858 7.5706 7.43034 7.5706C8.87561 7.63111 10.0818 8.00484 11.0558 8.6918V8.68468Z" fill="#1E415E"/>
<path d="M30.8679 19.0461C31.7505 18.1278 32.1936 16.9248 32.1936 15.4298C32.1936 13.9349 31.7505 12.7318 30.8679 11.8135C29.9853 10.8952 28.8213 10.4361 27.376 10.4361C25.9307 10.4361 24.7668 10.8952 23.8841 11.8135C23.0015 12.7318 22.5584 13.9349 22.5584 15.4298C22.5584 16.9248 22.998 18.1278 23.8841 19.0461C24.7668 19.9645 25.9307 20.4236 27.376 20.4236C28.8213 20.4236 29.9817 19.9645 30.8679 19.0461ZM35.1967 7.86619V22.9935C35.1967 25.2715 34.525 27.0512 33.1817 28.3325C31.8384 29.6139 29.9712 30.2546 27.587 30.2546C25.2028 30.2546 23.2793 29.7349 21.9466 28.6956C20.6103 27.6562 19.907 26.1578 19.8261 24.2037H23.1949C23.3356 25.211 23.7857 25.994 24.5488 26.5493C25.3118 27.1045 26.3246 27.3822 27.587 27.3822C28.9303 27.3822 29.9817 26.9942 30.7448 26.2183C31.5079 25.4423 31.8877 24.3674 31.8877 22.997V19.6975L32.7914 15.4298L31.8877 11.1942L32.0389 7.86619H35.2002H35.1967ZM22.8327 22.3136C21.6899 21.6587 20.8072 20.7368 20.1848 19.5445C19.5624 18.3556 19.2529 16.9817 19.2529 15.4298C19.2529 13.878 19.5624 12.504 20.1848 11.3152C20.8072 10.1264 21.6899 9.20451 22.8327 8.54603C23.9756 7.89111 25.2907 7.56364 26.7747 7.56364C28.2587 7.56364 29.4226 7.9089 30.3861 8.5923C31.3496 9.27926 32.067 10.2118 32.5382 11.39C33.0094 12.5681 33.245 13.9171 33.245 15.4298C33.245 16.9426 33.0094 18.288 32.5382 19.4697C32.067 20.6479 31.3496 21.584 30.3861 22.2674C29.4226 22.9543 28.22 23.296 26.7747 23.296C25.3294 23.296 23.9756 22.9686 22.8327 22.3136Z" fill="#1E415E"/>
<path d="M41.9523 11.3151C42.3638 10.1868 42.9756 9.32895 43.7879 8.74165C44.6002 8.15792 45.6482 7.86605 46.9317 7.86605H48.1343V10.7385H46.9317C45.2262 10.7385 43.9989 11.1122 43.2464 11.8561C42.4939 12.6036 42.1176 13.8422 42.1176 15.5792H41.2139C41.2947 13.8636 41.5409 12.4434 41.9488 11.3115L41.9523 11.3151ZM38.8086 7.86605H42.1176V22.9933H38.8086V7.86605Z" fill="#1E415E"/>
<path d="M76.9339 8.20085C77.8553 8.62442 78.5832 9.20815 79.1142 9.95562C79.6452 10.7031 79.923 11.5502 79.9405 12.497H76.6913C76.5928 11.7923 76.2588 11.2477 75.6997 10.8633C75.137 10.4824 74.4865 10.2866 73.7445 10.2866C73.0025 10.2866 72.4364 10.4539 71.9862 10.785C71.5361 11.1195 71.3076 11.5467 71.3076 12.0699C71.3076 12.5326 71.4588 12.8992 71.7577 13.159C72.0601 13.4224 72.5489 13.6218 73.2311 13.7641L75.4887 14.2162C77.1731 14.5614 78.3968 15.074 79.1599 15.7609C79.923 16.4479 80.3027 17.3733 80.3027 18.5444C80.3027 19.4912 80.0355 20.324 79.5045 21.0395C78.9735 21.7549 78.235 22.3102 77.2926 22.7017C76.3502 23.0968 75.246 23.2926 73.9836 23.2926C72.0179 23.2926 70.4777 22.8547 69.3665 21.9756C68.2517 21.1 67.6469 19.8934 67.5449 18.3593H70.766C70.8856 19.064 71.2407 19.6086 71.835 19.993C72.4258 20.3774 73.1748 20.5696 74.075 20.5696C74.9753 20.5696 75.6364 20.3988 76.1673 20.0535C76.6983 19.7118 76.9656 19.2669 76.9656 18.7223C76.9656 18.2383 76.7863 17.8538 76.4241 17.5727C76.0619 17.2915 75.4711 17.0672 74.6482 16.9071L72.4223 16.4835C70.8575 16.1809 69.7251 15.6862 69.0218 15.0028C68.3185 14.3194 67.9669 13.369 67.9669 12.1589C67.9669 10.7885 68.4979 9.67799 69.5599 8.83086C70.6218 7.98373 72.0284 7.56017 73.7726 7.56017C74.9577 7.56017 76.0091 7.77017 76.9304 8.19729L76.9339 8.20085Z" fill="#1E415E"/>
<path d="M95.1914 19.6938L96.0951 15.4261L95.1914 11.1905V7.86246H98.5004V22.9898H95.3426L95.1914 19.6902V19.6938ZM94.1681 19.046C95.0507 18.1277 95.4938 16.9246 95.4938 15.4297C95.4938 13.9347 95.0507 12.7317 94.1681 11.8134C93.2854 10.895 92.1215 10.4359 90.6762 10.4359C89.2309 10.4359 88.067 10.895 87.1843 11.8134C86.3017 12.7317 85.8586 13.9347 85.8586 15.4297C85.8586 16.9246 86.2982 18.1277 87.1843 19.046C88.067 19.9643 89.2309 20.4235 90.6762 20.4235C92.1215 20.4235 93.2819 19.9643 94.1681 19.046ZM93.6125 8.68468C94.5865 9.37163 95.318 10.2935 95.8103 11.4539C96.3026 12.6142 96.5487 13.9383 96.5487 15.4332C96.5487 16.9282 96.3026 18.2665 95.8103 19.4589C95.318 20.6513 94.5865 21.5874 93.6125 22.2743C92.6384 22.9613 91.4323 23.303 89.987 23.303C88.5417 23.303 87.2547 22.9755 86.1224 22.3206C84.99 21.6657 84.1109 20.7438 83.4885 19.5514C82.8661 18.359 82.5566 16.9887 82.5566 15.4368C82.5566 13.8849 82.8661 12.511 83.4885 11.3222C84.1109 10.1333 84.9865 9.21146 86.1224 8.55298C87.2547 7.89806 88.5452 7.5706 89.987 7.5706C91.4323 7.63111 92.6384 8.00484 93.6125 8.6918V8.68468Z" fill="#1E415E"/>
<path d="M106.177 0L102.836 0V22.9935H106.177V0Z" fill="#1E415E"/>
<path d="M123.142 14.2481L121.908 15.2768C121.946 14.33 121.778 13.4864 121.398 12.7496C121.018 12.0128 120.48 11.4434 119.787 11.0411C119.095 10.6389 118.307 10.4361 117.424 10.4361C116.601 10.4361 115.856 10.6318 115.184 11.0269C114.513 11.422 113.975 11.9737 113.574 12.6891C113.173 13.4046 112.962 14.2268 112.941 15.1558V15.7324C112.962 16.6792 113.169 17.5085 113.574 18.2133C113.975 18.918 114.513 19.4626 115.184 19.847C115.856 20.2314 116.605 20.4236 117.424 20.4236C118.328 20.4236 119.109 20.2385 119.773 19.8648C120.434 19.4911 120.948 18.9714 121.306 18.3058H124.798C124.278 19.8612 123.378 21.0785 122.105 21.9648C120.832 22.8511 119.27 23.296 117.424 23.296C115.919 23.296 114.569 22.9686 113.377 22.3136C112.181 21.6587 111.256 20.7368 110.595 19.5445C109.934 18.3556 109.604 16.9817 109.604 15.4298C109.604 13.878 109.934 12.504 110.595 11.3152C111.256 10.1264 112.185 9.20451 113.377 8.54603C114.569 7.89111 115.919 7.56364 117.424 7.56364C118.929 7.56364 120.28 7.89111 121.472 8.54603C122.664 9.20095 123.592 10.1264 124.253 11.3152C124.914 12.504 125.245 13.878 125.245 15.4298V16.188H111.977V14.2837L123.138 14.2517L123.142 14.2481Z" fill="#1E415E"/>
<path d="M126.826 5.74221C126.678 5.85255 126.499 5.9095 126.285 5.9095C126.109 5.9095 125.954 5.87391 125.82 5.80272C125.683 5.73153 125.581 5.62831 125.507 5.50017C125.434 5.37204 125.398 5.21898 125.398 5.04814C125.398 4.87729 125.434 4.72779 125.507 4.5961C125.581 4.46796 125.687 4.36474 125.82 4.29355C125.958 4.22236 126.112 4.18677 126.285 4.18677C126.499 4.18677 126.682 4.24372 126.826 4.35406C126.974 4.4644 127.069 4.61389 127.111 4.79898H126.809C126.77 4.68864 126.703 4.60321 126.612 4.53915C126.52 4.47508 126.411 4.4466 126.281 4.4466C126.102 4.4466 125.961 4.49999 125.852 4.61389C125.743 4.72423 125.69 4.87017 125.69 5.05169C125.69 5.23322 125.743 5.37916 125.852 5.4895C125.961 5.59984 126.105 5.65679 126.281 5.65679C126.411 5.65679 126.52 5.62475 126.615 5.56424C126.71 5.50373 126.773 5.41475 126.809 5.30441H127.111C127.069 5.49306 126.97 5.63899 126.826 5.74933V5.74221Z" fill="#1E415E"/>
<path d="M126.256 3.56926C125.447 3.56926 124.786 4.2313 124.786 5.0464C124.786 5.86149 125.444 6.52353 126.256 6.52353C127.068 6.52353 127.726 5.86149 127.726 5.0464C127.726 4.2313 127.068 3.56926 126.256 3.56926ZM126.256 6.7976C125.296 6.7976 124.512 6.01098 124.512 5.0464C124.512 4.08181 125.296 3.29519 126.256 3.29519C127.216 3.29519 128 4.08181 128 5.0464C128 6.01098 127.216 6.7976 126.256 6.7976Z" fill="#1E415E"/>
</g>
<defs>
<clipPath id="clip0_493_997">
<rect width="128" height="30" fill="white"/>
</clipPath>
</defs>
</svg>
