<svg width="155" height="36" viewBox="0 0 155 36" fill="none" xmlns="http://www.w3.org/2000/svg">
<g clip-path="url(#clip0_137_73)">
<path d="M79.4545 18.2626C79.4545 21.5577 77.9552 24.5054 75.6004 26.4706L74.855 25.4499L74.262 24.6409L72.9067 22.7901C74.1307 21.6635 74.8931 20.0499 74.8931 18.2668C74.8931 17.8602 74.855 17.4621 74.7745 17.0809L76.9642 16.3737L77.9213 16.0645L79.1284 15.6748C79.3359 16.5049 79.446 17.3689 79.446 18.2626H79.4545Z" fill="white"/>
<path d="M78.6708 14.2517L77.4595 14.6414L76.5023 14.9506L74.3127 15.6578C73.4233 13.7604 71.5936 12.3882 69.4209 12.1298V7.58537C73.6223 7.87337 77.1588 10.5501 78.6665 14.256L78.6708 14.2517Z" fill="white"/>
<path d="M73.6434 26.3309C72.1949 27.2118 70.4966 27.72 68.6754 27.72C63.4194 27.72 59.1587 23.4848 59.1587 18.2626C59.1587 13.0405 63.017 9.22028 67.9215 8.83487V12.1215C64.8382 12.4899 62.4495 15.0946 62.4495 18.2584C62.4495 21.672 65.2363 24.4419 68.6754 24.4419C69.7723 24.4419 70.8015 24.1582 71.6994 23.6626L73.0462 25.5092L73.6434 26.3224V26.3309Z" fill="white"/>
<path d="M15.2216 23.4339L16.3101 18.3558L15.2216 13.3158V9.35577H19.2071V27.3558H15.4038L15.2216 23.4297V23.4339ZM13.9892 22.6631C15.0522 21.5704 15.5859 20.1388 15.5859 18.36C15.5859 16.5812 15.0522 15.1497 13.9892 14.057C12.9261 12.9642 11.5242 12.4179 9.78353 12.4179C8.04282 12.4179 6.64094 12.9642 5.57788 14.057C4.51482 15.1497 3.98118 16.5812 3.98118 18.36C3.98118 20.1388 4.51059 21.5704 5.57788 22.6631C6.64094 23.7558 8.04282 24.3021 9.78353 24.3021C11.5242 24.3021 12.9219 23.7558 13.9892 22.6631ZM13.3158 10.3341C14.4889 11.1515 15.3699 12.2485 15.9628 13.6292C16.5558 15.0099 16.8522 16.5854 16.8522 18.3642C16.8522 20.1431 16.5558 21.7355 15.9628 23.1544C15.3699 24.5732 14.4889 25.6871 13.3158 26.5045C12.1426 27.3219 10.6899 27.7285 8.94918 27.7285C7.20847 27.7285 5.65835 27.3388 4.29459 26.5595C2.93082 25.7802 1.872 24.6833 1.12235 23.2645C0.372706 21.8457 0 20.2151 0 18.3685C0 16.5219 0.372706 14.8871 1.12235 13.4725C1.872 12.0579 2.92659 10.961 4.29459 10.1774C5.65835 9.39813 7.21271 9.00848 8.94918 9.00848C10.6899 9.08048 12.1426 9.52519 13.3158 10.3426V10.3341Z" fill="white"/>
<path d="M37.1816 22.6631C38.2446 21.5704 38.7783 20.1388 38.7783 18.36C38.7783 16.5812 38.2446 15.1496 37.1816 14.0569C36.1185 12.9642 34.7166 12.4179 32.9759 12.4179C31.2352 12.4179 29.8333 12.9642 28.7703 14.0569C27.7072 15.1496 27.1736 16.5812 27.1736 18.36C27.1736 20.1388 27.703 21.5704 28.7703 22.6631C29.8333 23.7558 31.2352 24.3021 32.9759 24.3021C34.7166 24.3021 36.1143 23.7558 37.1816 22.6631ZM42.3952 9.36V27.36C42.3952 30.0706 41.5863 32.1882 39.9684 33.7129C38.3505 35.2376 36.1016 36 33.23 36C30.3585 36 28.0418 35.3816 26.4366 34.1449C24.8272 32.9082 23.9801 31.1252 23.8827 28.8H27.9401C28.1096 29.9986 28.6517 30.9304 29.5707 31.5911C30.4898 32.2518 31.7096 32.5821 33.23 32.5821C34.8479 32.5821 36.1143 32.1205 37.0333 31.1972C37.9524 30.2739 38.4098 28.9948 38.4098 27.3642V23.4381L39.4983 18.36L38.4098 13.32L38.5919 9.36H42.3994H42.3952ZM27.5039 26.5511C26.1274 25.7718 25.0644 24.6748 24.3147 23.256C23.5651 21.8414 23.1924 20.2066 23.1924 18.36C23.1924 16.5134 23.5651 14.8786 24.3147 13.464C25.0644 12.0494 26.1274 10.9525 27.5039 10.1689C28.8804 9.38965 30.4644 9 32.2517 9C34.039 9 35.4409 9.41082 36.6013 10.224C37.7618 11.0414 38.6258 12.1511 39.1933 13.5529C39.7609 14.9548 40.0446 16.56 40.0446 18.36C40.0446 20.16 39.7609 21.7609 39.1933 23.1671C38.6258 24.5689 37.7618 25.6828 36.6013 26.496C35.4409 27.3134 33.9924 27.72 32.2517 27.72C30.511 27.72 28.8804 27.3304 27.5039 26.5511Z" fill="white"/>
<path d="M50.531 13.464C51.0265 12.1215 51.7635 11.1007 52.7418 10.4019C53.7202 9.70734 54.9823 9.36004 56.5282 9.36004H57.9766V12.7779H56.5282C54.474 12.7779 52.9959 13.2226 52.0896 14.1078C51.1832 14.9972 50.73 16.4711 50.73 18.5379H49.6416C49.739 16.4965 50.0355 14.8066 50.5267 13.4598L50.531 13.464ZM46.7446 9.36004H50.73V27.36H46.7446V9.36004Z" fill="white"/>
<path d="M92.6598 9.75812C93.7694 10.2621 94.6461 10.9567 95.2857 11.8461C95.9252 12.7355 96.2598 13.7435 96.281 14.8701H92.3676C92.249 14.0315 91.8466 13.3835 91.1732 12.9261C90.4956 12.4729 89.712 12.24 88.8184 12.24C87.9247 12.24 87.2429 12.4391 86.7007 12.8329C86.1586 13.2311 85.8833 13.7393 85.8833 14.3619C85.8833 14.9125 86.0654 15.3487 86.4254 15.6579C86.7897 15.9713 87.3784 16.2085 88.2 16.3779L90.9191 16.9158C92.9478 17.3266 94.4217 17.9365 95.3407 18.7539C96.2598 19.5713 96.7172 20.6725 96.7172 22.0659C96.7172 23.1925 96.3953 24.1835 95.7558 25.0348C95.1163 25.8861 94.2269 26.5468 93.0918 27.0127C91.9567 27.4828 90.6269 27.7158 89.1064 27.7158C86.7389 27.7158 84.8838 27.1948 83.5454 26.1487C82.2029 25.1068 81.4744 23.6711 81.3516 21.8456H85.2311C85.3751 22.6842 85.8029 23.3322 86.5186 23.7896C87.2301 24.2471 88.1323 24.4758 89.2165 24.4758C90.3007 24.4758 91.097 24.2725 91.7365 23.8616C92.376 23.4551 92.6979 22.9256 92.6979 22.2776C92.6979 21.7016 92.4819 21.2442 92.0457 20.9096C91.6094 20.5751 90.8979 20.3082 89.9069 20.1176L87.2259 19.6136C85.3412 19.2536 83.9774 18.6649 83.1304 17.8518C82.2833 17.0386 81.8598 15.9078 81.8598 14.4678C81.8598 12.8372 82.4993 11.5158 83.7784 10.5078C85.0574 9.49976 86.7516 8.99576 88.8523 8.99576C90.2796 8.99576 91.5459 9.24564 92.6556 9.75388L92.6598 9.75812Z" fill="white"/>
<path d="M114.653 23.4339L115.742 18.3558L114.653 13.3158V9.35577H118.639V27.3558H114.836L114.653 23.4297V23.4339ZM113.421 22.6631C114.484 21.5704 115.018 20.1388 115.018 18.36C115.018 16.5812 114.484 15.1497 113.421 14.057C112.358 12.9642 110.956 12.4179 109.215 12.4179C107.475 12.4179 106.073 12.9642 105.01 14.057C103.947 15.1497 103.413 16.5812 103.413 18.36C103.413 20.1388 103.942 21.5704 105.01 22.6631C106.073 23.7558 107.475 24.3021 109.215 24.3021C110.956 24.3021 112.354 23.7558 113.421 22.6631ZM112.752 10.3341C113.925 11.1515 114.806 12.2485 115.399 13.6292C115.992 15.0099 116.288 16.5854 116.288 18.3642C116.288 20.1431 115.992 21.7355 115.399 23.1544C114.806 24.5732 113.925 25.6871 112.752 26.5045C111.579 27.3219 110.126 27.7285 108.385 27.7285C106.645 27.7285 105.094 27.3388 103.731 26.5595C102.367 25.7802 101.308 24.6833 100.558 23.2645C99.8087 21.8457 99.436 20.2151 99.436 18.3685C99.436 16.5219 99.8087 14.8871 100.558 13.4725C101.308 12.0579 102.363 10.961 103.731 10.1774C105.094 9.39813 106.649 9.00848 108.385 9.00848C110.126 9.08048 111.579 9.52519 112.752 10.3426V10.3341Z" fill="white"/>
<path d="M127.88 0H123.857V27.36H127.88V0Z" fill="white"/>
<path d="M148.316 16.9539L146.829 18.1779C146.876 17.0513 146.672 16.0475 146.215 15.1708C145.758 14.2941 145.11 13.6165 144.275 13.1379C143.441 12.6593 142.492 12.4179 141.429 12.4179C140.438 12.4179 139.54 12.6508 138.731 13.1209C137.922 13.5911 137.274 14.2475 136.791 15.0988C136.309 15.9501 136.054 16.9285 136.029 18.0339V18.72C136.054 19.8466 136.304 20.8334 136.791 21.672C137.274 22.5106 137.922 23.1586 138.731 23.616C139.54 24.0734 140.442 24.3021 141.429 24.3021C142.518 24.3021 143.458 24.0819 144.258 23.6372C145.054 23.1925 145.673 22.5741 146.105 21.7821H150.31C149.684 23.6329 148.599 25.0814 147.066 26.136C145.533 27.1906 143.653 27.72 141.429 27.72C139.616 27.72 137.99 27.3304 136.554 26.5511C135.114 25.7718 134 24.6748 133.204 23.256C132.408 21.8414 132.01 20.2066 132.01 18.36C132.01 16.5134 132.408 14.8786 133.204 13.464C134 12.0494 135.118 10.9525 136.554 10.1689C137.99 9.38965 139.616 9 141.429 9C143.242 9 144.868 9.38965 146.304 10.1689C147.74 10.9482 148.858 12.0494 149.654 13.464C150.45 14.8786 150.848 16.5134 150.848 18.36V19.2621H134.869V16.9962L148.311 16.9581L148.316 16.9539Z" fill="white"/>
<path d="M152.754 6.83153C152.576 6.96283 152.36 7.03059 152.102 7.03059C151.89 7.03059 151.704 6.98824 151.543 6.90353C151.378 6.81883 151.255 6.696 151.166 6.54353C151.077 6.39106 151.035 6.20894 151.035 6.00565C151.035 5.80236 151.077 5.62447 151.166 5.46777C151.255 5.3153 151.382 5.19247 151.543 5.10777C151.708 5.02306 151.894 4.98071 152.102 4.98071C152.36 4.98071 152.581 5.04847 152.754 5.17977C152.932 5.31106 153.046 5.48894 153.097 5.70918H152.733C152.686 5.57789 152.606 5.47624 152.496 5.4C152.386 5.32377 152.254 5.28989 152.098 5.28989C151.882 5.28989 151.712 5.35341 151.581 5.48894C151.45 5.62024 151.386 5.79389 151.386 6.00989C151.386 6.22589 151.45 6.39953 151.581 6.53083C151.712 6.66212 151.886 6.72989 152.098 6.72989C152.254 6.72989 152.386 6.69177 152.5 6.61977C152.614 6.54777 152.691 6.44189 152.733 6.31059H153.097C153.046 6.53506 152.928 6.70871 152.754 6.84V6.83153Z" fill="white"/>
<path d="M152.064 4.248C151.09 4.248 150.294 5.03577 150.294 6.00565C150.294 6.97553 151.086 7.7633 152.064 7.7633C153.042 7.7633 153.834 6.97553 153.834 6.00565C153.834 5.03577 153.042 4.248 152.064 4.248ZM152.064 8.08942C150.908 8.08942 149.963 7.15342 149.963 6.00565C149.963 4.85789 150.908 3.92189 152.064 3.92189C153.22 3.92189 154.165 4.85789 154.165 6.00565C154.165 7.15342 153.22 8.08942 152.064 8.08942Z" fill="white"/>
</g>
<defs>
<clipPath id="clip0_137_73">
<rect width="154.165" height="36" fill="white"/>
</clipPath>
</defs>
</svg>
