<svg width="266" height="266" viewBox="0 0 266 266" fill="none" xmlns="http://www.w3.org/2000/svg">
<rect x="34" y="65" width="7" height="48" fill="white" stroke="#426587" stroke-width="2"/>
<rect x="225" y="65" width="7" height="48" fill="white" stroke="#426587" stroke-width="2"/>
<rect x="54" y="58" width="7" height="63" fill="white" stroke="#426587" stroke-width="2"/>
<rect x="76" y="58" width="7" height="63" fill="white" stroke="#426587" stroke-width="2"/>
<rect x="98" y="58" width="7" height="63" fill="white" stroke="#426587" stroke-width="2"/>
<rect x="120" y="58" width="7" height="63" fill="white" stroke="#426587" stroke-width="2"/>
<rect x="139" y="58" width="7" height="63" fill="white" stroke="#426587" stroke-width="2"/>
<rect x="161" y="58" width="7" height="63" fill="white" stroke="#426587" stroke-width="2"/>
<rect x="183" y="58" width="7" height="63" fill="white" stroke="#426587" stroke-width="2"/>
<rect x="205" y="58" width="7" height="63" fill="white" stroke="#426587" stroke-width="2"/>
<mask id="path-11-inside-1_417_330" fill="white">
<path d="M48 53H42V61H33V44H48V53Z"/>
</mask>
<path d="M48 53H42V61H33V44H48V53Z" fill="white"/>
<path d="M48 53V55H50V53H48ZM42 53V51H40V53H42ZM42 61V63H44V61H42ZM33 61H31V63H33V61ZM33 44V42H31V44H33ZM48 44H50V42H48V44ZM48 53V51H42V53V55H48V53ZM42 53H40V61H42H44V53H42ZM42 61V59H33V61V63H42V61ZM33 61H35V44H33H31V61H33ZM33 44V46H48V44V42H33V44ZM48 44H46V53H48H50V44H48Z" fill="#426587" mask="url(#path-11-inside-1_417_330)"/>
<mask id="path-13-inside-2_417_330" fill="white">
<path d="M218 53H224V61H233V44H218V53Z"/>
</mask>
<path d="M218 53H224V61H233V44H218V53Z" fill="white"/>
<path d="M218 53V55H216V53H218ZM224 53V51H226V53H224ZM224 61V63H222V61H224ZM233 61H235V63H233V61ZM233 44V42H235V44H233ZM218 44H216V42H218V44ZM218 53V51H224V53V55H218V53ZM224 53H226V61H224H222V53H224ZM224 61V59H233V61V63H224V61ZM233 61H231V44H233H235V61H233ZM233 44V46H218V44V42H233V44ZM218 44H220V53H218H216V44H218Z" fill="#426587" mask="url(#path-13-inside-2_417_330)"/>
<mask id="path-15-inside-3_417_330" fill="white">
<path d="M48 126H42V118H33V135H48V126Z"/>
</mask>
<path d="M48 126H42V118H33V135H48V126Z" fill="white"/>
<path d="M48 126V124H50V126H48ZM42 126V128H40V126H42ZM42 118V116H44V118H42ZM33 118H31V116H33V118ZM33 135V137H31V135H33ZM48 135H50V137H48V135ZM48 126V128H42V126V124H48V126ZM42 126H40V118H42H44V126H42ZM42 118V120H33V118V116H42V118ZM33 118H35V135H33H31V118H33ZM33 135V133H48V135V137H33V135ZM48 135H46V126H48H50V135H48Z" fill="#426587" mask="url(#path-15-inside-3_417_330)"/>
<mask id="path-17-inside-4_417_330" fill="white">
<path d="M218 126H224V118H233V135H218V126Z"/>
</mask>
<path d="M218 126H224V118H233V135H218V126Z" fill="white"/>
<path d="M218 126V124H216V126H218ZM224 126V128H226V126H224ZM224 118V116H222V118H224ZM233 118H235V116H233V118ZM233 135V137H235V135H233ZM218 135H216V137H218V135ZM218 126V128H224V126V124H218V126ZM224 126H226V118H224H222V126H224ZM224 118V120H233V118V116H224V118ZM233 118H231V135H233H235V118H233ZM233 135V133H218V135V137H233V135ZM218 135H220V126H218H216V135H218Z" fill="#426587" mask="url(#path-17-inside-4_417_330)"/>
<mask id="path-19-inside-5_417_330" fill="white">
<path d="M113 135H53V126H113V135ZM213 135H153V126H213V135ZM133 8C144.046 8 153 16.9543 153 28C153 34.5427 149.858 40.3511 145.001 44H213V53H136V47.7754C135.021 47.9226 134.02 48 133 48C131.98 48 130.979 47.9226 130 47.7754V53H53V44H120.999C116.142 40.3511 113 34.5427 113 28C113 16.9543 121.954 8 133 8Z"/>
</mask>
<path d="M113 135H53V126H113V135ZM213 135H153V126H213V135ZM133 8C144.046 8 153 16.9543 153 28C153 34.5427 149.858 40.3511 145.001 44H213V53H136V47.7754C135.021 47.9226 134.02 48 133 48C131.98 48 130.979 47.9226 130 47.7754V53H53V44H120.999C116.142 40.3511 113 34.5427 113 28C113 16.9543 121.954 8 133 8Z" fill="white"/>
<path d="M113 135V137H115V135H113ZM53 135H51V137H53V135ZM53 126V124H51V126H53ZM113 126H115V124H113V126ZM213 135V137H215V135H213ZM153 135H151V137H153V135ZM153 126V124H151V126H153ZM213 126H215V124H213V126ZM145.001 44L143.8 42.401L139.009 46H145.001V44ZM213 44H215V42H213V44ZM213 53V55H215V53H213ZM136 53H134V55H136V53ZM136 47.7754H138V45.452L135.702 45.7976L136 47.7754ZM130 47.7754L130.298 45.7976L128 45.452V47.7754H130ZM130 53V55H132V53H130ZM53 53H51V55H53V53ZM53 44V42H51V44H53ZM120.999 44V46H126.991L122.2 42.401L120.999 44ZM113 135V133H53V135V137H113V135ZM53 135H55V126H53H51V135H53ZM53 126V128H113V126V124H53V126ZM113 126H111V135H113H115V126H113ZM213 135V133H153V135V137H213V135ZM153 135H155V126H153H151V135H153ZM153 126V128H213V126V124H153V126ZM213 126H211V135H213H215V126H213ZM133 8V10C142.941 10 151 18.0589 151 28H153H155C155 15.8497 145.15 6 133 6V8ZM153 28H151C151 33.887 148.176 39.1135 143.8 42.401L145.001 44L146.202 45.599C151.54 41.5887 155 35.1984 155 28H153ZM145.001 44V46H213V44V42H145.001V44ZM213 44H211V53H213H215V44H213ZM213 53V51H136V53V55H213V53ZM136 53H138V47.7754H136H134V53H136ZM136 47.7754L135.702 45.7976C134.821 45.9303 133.918 46 133 46V48V50C134.121 50 135.222 49.9149 136.298 49.7531L136 47.7754ZM133 48V46C132.082 46 131.179 45.9303 130.298 45.7976L130 47.7754L129.702 49.7531C130.778 49.9149 131.879 50 133 50V48ZM130 47.7754H128V53H130H132V47.7754H130ZM130 53V51H53V53V55H130V53ZM53 53H55V44H53H51V53H53ZM53 44V46H120.999V44V42H53V44ZM120.999 44L122.2 42.401C117.824 39.1135 115 33.887 115 28H113H111C111 35.1984 114.46 41.5887 119.798 45.599L120.999 44ZM113 28H115C115 18.0589 123.059 10 133 10V8V6C120.85 6 111 15.8497 111 28H113Z" fill="#426587" mask="url(#path-19-inside-5_417_330)"/>
<circle cx="133" cy="28" r="11" fill="white" stroke="#426587" stroke-width="2"/>
<path d="M142.636 129V186.154C142.636 189.17 143.229 192.156 144.383 194.941C145.536 197.727 147.228 200.258 149.359 202.391C151.491 204.523 154.022 206.214 156.808 207.368C159.593 208.522 162.578 209.116 165.593 209.116C177.858 209.116 189.248 201.661 197.461 194.372L197.462 194.371C201.811 190.498 205.827 186.265 209.464 181.716L210.362 180.592L208.996 180.142C205.422 178.963 201.057 178.165 195.737 177.96C196.194 177.575 196.715 177.13 197.288 176.626C199.533 174.651 202.594 171.789 205.862 168.234C211.982 161.578 218.888 152.428 222.481 142.077C222.891 142.777 223.39 143.677 223.934 144.76C225.385 147.653 227.152 151.848 228.403 157.038C230.756 166.796 231.291 180.078 224.473 194.89C224.445 194.786 224.416 194.68 224.385 194.572C223.784 192.488 222.585 189.744 220.196 187.082L219.142 185.907L218.53 187.363C215.473 194.64 207.118 209.564 186.9 221.136C180.237 224.949 174.112 228.207 168.533 231.166C162.96 234.121 157.918 236.785 153.45 239.396C144.523 244.615 137.751 249.7 133.458 256.7C133.41 256.779 133.341 256.845 133.261 256.89C133.18 256.935 133.089 256.958 132.997 256.958C132.905 256.958 132.814 256.935 132.733 256.89C132.653 256.845 132.585 256.779 132.536 256.7C128.243 249.699 121.471 244.614 112.544 239.396C108.076 236.784 103.034 234.12 97.4609 231.165C91.8819 228.207 85.7576 224.949 79.0947 221.136C58.8777 209.564 50.5209 194.645 47.4658 187.363L46.8555 185.906L45.7998 187.082C43.41 189.744 42.2113 192.488 41.6104 194.572C41.5794 194.68 41.5493 194.785 41.5215 194.889C34.7076 180.077 35.2449 166.796 37.5986 157.038C38.8507 151.848 40.6171 147.653 42.0684 144.76C42.6113 143.677 43.1097 142.778 43.5195 142.078C47.1125 152.429 54.0198 161.578 60.1396 168.234C63.4081 171.789 66.4696 174.651 68.7148 176.626C69.2871 177.129 69.807 177.575 70.2637 177.96C64.9511 178.165 60.5887 178.963 57.0078 180.142L55.6436 180.59L56.5371 181.714C59.1521 185 64.9819 191.823 72.6943 197.833C80.3881 203.829 90.0839 209.116 100.411 209.116C106.497 209.117 112.334 206.7 116.639 202.397C120.944 198.095 123.365 192.259 123.37 186.172V129H142.636Z" stroke="#426587" stroke-width="2"/>
<rect x="112" y="121" width="42" height="19" fill="white" stroke="#426587" stroke-width="2"/>
</svg>
