<svg width="222" height="222" viewBox="0 0 222 222" fill="none" xmlns="http://www.w3.org/2000/svg">
<path d="M20.5 153.317V196.001L53.5203 209M20.5 153.317L53.5203 165.734M20.5 153.317L28.5 150.077L56.4338 138.765L77.0229 146.6M53.5203 209V165.734M53.5203 209L89.0656 194.837V189.792M53.5203 165.734L58 163.9M89.0656 151.182V165.734L73.1382 172.136V184.554M89.0656 151.182L77.0229 146.6M89.0656 151.182L71.5299 158.361M73.1382 184.554L89.0656 177.763V189.792M73.1382 184.554L91.008 176.773L103.439 171.36V161.271M89.0656 189.792L111.014 197.747M103.439 160.301V161.271M136.265 206.478L116.647 198.911V182.419L103.439 177.763V161.271M136.265 206.478V171.36M136.265 206.478L202.5 178.733V144.78M136.265 171.36L202.5 144.78M136.265 171.36L124.611 167.09M103.439 159.331V161.271M103.439 159.331L139.956 145.238M103.439 159.331L111.597 162.321M171.811 132.945L202.5 144.78M171.811 132.945V106.117L201.199 94.5339V44.6986M171.811 132.945L139.956 145.238M201.199 44.6986L171.422 54.9756M201.199 44.6986L172.199 34L152.775 40.5714L144.035 43.5285M144.035 43.5285L144.423 67.8621M144.035 43.5285L149 45.6326M171.422 54.9756L171.811 78.8134M171.422 54.9756L160.351 50.636M171.811 78.8134L139.956 89.8724M171.811 78.8134L160.351 74.1824M144.423 67.8621L109.655 78.8134M144.423 67.8621L152.112 70.8636M109.655 78.8134V104.618M109.655 78.8134L115 80.7643M123.057 121.109L109.655 116.065V104.618M123.057 121.109V109.468L139.956 115.095M123.057 121.109L105.77 128.094M139.956 115.095V89.8724M139.956 115.095V145.238M139.956 89.8724L128.301 85.798M105.77 128.094V155.257M105.77 128.094L77.0229 117.617M77.0229 117.617L109.655 104.618M77.0229 117.617V146.6M128.301 85.798V92.5887L118.978 89.2904V82.2162L152.112 70.8636M128.301 85.798L160.351 74.1824M152.112 70.8636L160.351 74.1824M160.351 50.636V57.3038L152.775 53.7899V46.9993L181.522 37.4657M160.351 50.636L190.069 40.5733" stroke="#426587" stroke-width="2" stroke-linecap="round"/>
<path d="M114.295 77.4563C111.146 73.4974 108.781 69.0525 103.814 72.5061C102.933 73.118 101.833 73.3617 100.786 73.133C97.4712 72.409 95.0096 73.0465 93.9016 74.8739C92.9194 76.4937 91.4571 78.2901 89.7623 79.1363C87.4026 80.3144 85.9559 82.5959 86.3514 83.6093C87.3253 95.1949 86.1079 94.102 81.2404 90.823C79.2692 89.4952 77.944 89.5826 76.9893 90.2196C75.1828 91.425 75.1435 94.0036 75.2413 96.1732C75.3703 99.0333 74.8626 99.2143 72.2337 99.889C68.8269 100.763 72.2303 108.311 67.6045 108.967C62.9786 109.622 63.4673 100.441 59.0831 99.1297C54.699 97.8181 51.0487 90.6044 46.9098 89.5114C42.7709 88.4185 43.9882 87.3255 44.2316 83.6093C44.4751 79.8932 39.8509 77.7072 39.5219 74.8655C39.1928 72.0237 42.6481 75.0841 45.1161 72.8981C47.5842 70.7122 48.0778 73.1167 50.2174 72.8981C51.9496 72.7211 52.3145 69.5489 53.9939 69.0887C56.3572 68.441 57.9512 67.4661 57.9512 65.6844C57.9512 63.0613 53.343 61.3125 53.343 59.1265C53.343 56.9406 52.0267 58.2521 51.6976 54.7546C51.3686 51.2571 52.8494 52.5686 53.343 49.7269C53.8366 46.8851 50.5464 46.2294 50.2174 44.0434C49.9541 42.2946 59.0033 40.4001 61.5193 39.6715C60.7403 36.5237 64.1164 33.8422 65.9019 32.895C63.4673 29.8346 63.2238 27.8673 63.4673 26.1185C63.7107 24.3697 66.1454 25.4627 69.3105 21.0908C71.2742 18.3782 75.6105 17.8571 78.8209 17.9977C79.7138 18.0368 80.1633 17.0649 79.9696 16.1924C79.8282 15.5555 80.0841 14.9125 81.2404 14.3143C89.0048 10.2974 96.2031 16.3463 95.9596 15.7634C97.9461 12.6531 102.995 6.43257 107.29 8.36517C111.138 10.0971 108.268 16.4629 107.138 18.579M152.5 25.2757C147.631 22.6525 148.192 20.6536 142.836 21.3094C137.479 21.9652 136.262 23.4953 133.097 21.9652C129.932 20.435 132.123 19.1234 126.767 19.342C121.411 19.5606 119.219 25.2441 117.028 23.0581C114.837 20.8722 114.107 16.7188 111.672 19.342C109.334 21.8607 106.099 21.1549 107.138 18.579M107.29 18.249C107.231 18.3622 107.181 18.4722 107.138 18.579" stroke="#426587" stroke-width="2" stroke-linecap="round"/>
<path d="M181.533 137L114.5 163.456V169.974L124.467 174L124.662 167.098L191.5 140.642" stroke="#426587" stroke-width="2" stroke-linecap="round"/>
<path d="M30.5 149.573L62.9906 162.275V172L71.5 167.832V158.901L39.0094 146" stroke="#426587" stroke-width="2" stroke-linecap="round"/>
</svg>
