<svg width="222" height="222" viewBox="0 0 222 222" fill="none" xmlns="http://www.w3.org/2000/svg">
<g clip-path="url(#clip0_314_449)">
<path d="M81.5865 182.175L82.4573 208.429L101 194.491V169.786M81.5865 182.175L101 169.786M81.5865 182.175L51 168.753M101 169.786L71.2182 158.429L51 168.753M51 168.753L52.9076 198.62" stroke="#426587" stroke-width="2" stroke-linecap="round"/>
<path d="M12 154.429C14.4255 167.811 32.1038 199.546 82 209.429" stroke="#426587" stroke-width="2" stroke-linecap="round"/>
<path d="M12.1657 126.401V154.913M12.1657 126.401C12.6745 129.254 13.845 132.822 15.8433 136.769M12.1657 126.401C9.93316 100.308 29.3738 46.9815 124.993 42.4193M51.325 169.429C31.9002 159.941 21.0557 147.066 15.8433 136.769M124.993 42.4193L124.993 11.8336M124.993 42.4193L153.844 53.8245M15.8433 136.769C22.3451 113.095 59.3569 68.7543 155.389 80.7813M81.7164 162.171V133.659M81.7164 133.659L91.5322 116.551H124.993L134.809 133.659M81.7164 133.659C102.736 137.391 125.869 135.214 134.809 133.659M134.809 133.659L139.933 132.622M124.993 116.033V101.518C131.69 100.654 147.146 97.5777 155.389 92.1863M155.389 92.1863V76.6341M155.389 92.1863L184.755 105.665C160.85 115.204 145.257 116.897 140.449 116.551M155.389 76.6341C157.679 75.866 162.337 73.9832 167.754 71.1184M155.389 76.6341L187.331 89.0761M177.543 65.2292V49.677M177.543 65.2292C174.233 67.5 170.868 69.4715 167.754 71.1184M177.543 65.2292L210 64.711M177.543 49.677L153.844 35.9091M177.543 49.677L210 38.7907M153.844 35.9091V53.8245M153.844 35.9091L182.695 24.5671M153.844 35.9091V21.6833M153.844 56.4165V53.8245M167.754 71.1184V64.1187L154.194 56.3426M210 38.7907C203.406 32.1551 190.423 26.0034 184.755 23.757L182.695 24.5671M210 38.7907V64.711M140.449 116.551V150.248C161.571 145.74 176.698 139.262 187.331 132.387M140.449 116.551L124.993 100.999M187.331 89.0761V132.387M187.331 89.0761C193.17 87.1753 205.878 79.6411 210 64.711M187.331 132.387C204.087 121.554 209.685 109.733 210 103.073V64.711M124.993 11.8336L153.844 0.428711L182.695 11.3152M124.993 11.8336L153.844 21.6833M182.695 11.3152V24.5671M182.695 11.3152L153.844 21.6833" stroke="#426587" stroke-width="2" stroke-linecap="round"/>
</g>
<defs>
<clipPath id="clip0_314_449">
<rect width="222" height="222" fill="white"/>
</clipPath>
</defs>
</svg>
