<svg width="266" height="266" viewBox="0 0 266 266" fill="none" xmlns="http://www.w3.org/2000/svg">
<g clip-path="url(#clip0_417_554)">
<path d="M51 40.7098V107.311L133.76 132.859M51 40.7098L130.048 18L151.557 24.4095M51 40.7098L73.2226 47.0424M133.76 132.859V64.2931M133.76 132.859L206.257 104.69V40.7098M133.76 64.2931L206.257 40.7098M133.76 64.2931L101.66 55.1461M206.257 40.7098L173.065 30.819M101.66 55.1461V78.4868L76.9853 70.189V48.1146L151.557 24.4095M101.66 55.1461L173.065 30.819M173.065 30.819L151.557 24.4095M99.04 94.209L121.968 100.353M99.6951 100.978L121.968 106.946M104.718 109.276L121.968 113.898" stroke="#426587" stroke-width="2" stroke-linecap="round"/>
<path d="M159.746 63.4199L140.094 69.9708V84.3828L159.746 77.1768V63.4199Z" stroke="#426587" stroke-width="2" stroke-linecap="round"/>
<path d="M38.5 167.213C64 138.713 106.1 92.9134 148.5 129.713C154 134.88 164.9 146.713 164.5 152.713C161.206 149.2 156.231 145.67 149.834 143.335C136.502 166.233 106.389 161.141 93 155.733C85.2258 161.302 77.0307 168.662 68.5 178.213L38.5 167.213Z" fill="white"/>
<path d="M227.126 170.739C188.253 163.764 161.609 178.025 148.069 183.382C70.4966 214.074 29.2644 218.382 15.7241 215.33C22.5671 223.759 47.6092 236.867 93.0345 221.87C138.46 206.873 197.425 186.121 226.253 198.764L216.644 218.695L264.5 186.213L219.264 147.197L227.126 170.739Z" fill="white"/>
<path d="M1 195.713C10.9004 194.551 31.1937 175.933 65.954 139.036C109.195 93.1371 158.552 128.014 165.54 154.731C161.456 149.947 154.401 144.765 145.011 142.233M8.29885 207.919C15.433 210.535 40.0092 205.826 81.2414 166.066C107.05 141.179 129.3 137.996 145.011 142.233M145.011 142.233C142.703 143.332 139.887 144.986 137.149 147.088M148.069 183.382C142.391 184.109 132.345 181.202 127.977 171.298C124.594 163.627 129.874 152.672 137.149 147.088M148.069 183.382C161.609 178.025 188.253 163.764 227.126 170.739L219.264 147.197L264.5 186.213L216.644 218.695L226.253 198.764C197.425 186.121 138.46 206.873 93.0345 221.87C47.6092 236.867 22.5671 223.759 15.7241 215.33C29.2644 218.382 70.4966 214.074 148.069 183.382ZM137.149 147.088C125.211 149.781 104.478 161.358 117.057 186.121" stroke="#426587" stroke-width="2" stroke-linecap="round"/>
</g>
<defs>
<clipPath id="clip0_417_554">
<rect width="266" height="266" fill="white"/>
</clipPath>
</defs>
</svg>
